<?xml version="1.0" encoding="utf-8" standalone="no"?>
<!DOCTYPE svg PUBLIC "-//W3C//DTD SVG 1.1//EN"
  "http://www.w3.org/Graphics/SVG/1.1/DTD/svg11.dtd">
<svg xmlns:xlink="http://www.w3.org/1999/xlink" width="864pt" height="288pt" viewBox="0 0 864 288" xmlns="http://www.w3.org/2000/svg" version="1.1">
 <metadata>
  <rdf:RDF xmlns:dc="http://purl.org/dc/elements/1.1/" xmlns:cc="http://creativecommons.org/ns#" xmlns:rdf="http://www.w3.org/1999/02/22-rdf-syntax-ns#">
   <cc:Work>
    <dc:type rdf:resource="http://purl.org/dc/dcmitype/StillImage"/>
    <dc:date>2026-03-13T16:32:05.532931</dc:date>
    <dc:format>image/svg+xml</dc:format>
    <dc:creator>
     <cc:Agent>
      <dc:title>Matplotlib v3.10.0, https://matplotlib.org/</dc:title>
     </cc:Agent>
    </dc:creator>
   </cc:Work>
  </rdf:RDF>
 </metadata>
 <defs>
  <style type="text/css">*{stroke-linejoin: round; stroke-linecap: butt}</style>
 </defs>
 <g id="figure_1">
  <g id="patch_1">
   <path d="M 0 288 
L 864 288 
L 864 0 
L 0 0 
z
" style="fill: #ffffff"/>
  </g>
  <g id="axes_1">
   <g id="patch_2">
    <path d="M 51.57 242.82 
L 851.04 242.82 
L 851.04 33.04 
L 51.57 33.04 
z
" style="fill: #ffffff"/>
   </g>
   <g id="matplotlib.axis_1">
    <g id="xtick_1">
     <g id="line2d_1">
      <path d="M 87.909545 242.82 
L 87.909545 33.04 
" clip-path="url(#p44149fd417)" style="fill: none; stroke-dasharray: 1.85,0.8; stroke-dashoffset: 0; stroke: #cccccc; stroke-opacity: 0.25; stroke-width: 0.5"/>
     </g>
     <g id="text_1">
      <!-- 2015-01 -->
      <g style="fill: #262626" transform="translate(71.396655 258.762031) scale(0.09 -0.09)">
       <defs>
        <path id="ArialMT-32" d="M 3222 541 
L 3222 0 
L 194 0 
Q 188 203 259 391 
Q 375 700 629 1000 
Q 884 1300 1366 1694 
Q 2113 2306 2375 2664 
Q 2638 3022 2638 3341 
Q 2638 3675 2398 3904 
Q 2159 4134 1775 4134 
Q 1369 4134 1125 3890 
Q 881 3647 878 3216 
L 300 3275 
Q 359 3922 746 4261 
Q 1134 4600 1788 4600 
Q 2447 4600 2831 4234 
Q 3216 3869 3216 3328 
Q 3216 3053 3103 2787 
Q 2991 2522 2730 2228 
Q 2469 1934 1863 1422 
Q 1356 997 1212 845 
Q 1069 694 975 541 
L 3222 541 
z
" transform="scale(0.015625)"/>
        <path id="ArialMT-30" d="M 266 2259 
Q 266 3072 433 3567 
Q 600 4063 929 4331 
Q 1259 4600 1759 4600 
Q 2128 4600 2406 4451 
Q 2684 4303 2865 4023 
Q 3047 3744 3150 3342 
Q 3253 2941 3253 2259 
Q 3253 1453 3087 958 
Q 2922 463 2592 192 
Q 2263 -78 1759 -78 
Q 1097 -78 719 397 
Q 266 969 266 2259 
z
M 844 2259 
Q 844 1131 1108 757 
Q 1372 384 1759 384 
Q 2147 384 2411 759 
Q 2675 1134 2675 2259 
Q 2675 3391 2411 3762 
Q 2147 4134 1753 4134 
Q 1366 4134 1134 3806 
Q 844 3388 844 2259 
z
" transform="scale(0.015625)"/>
        <path id="ArialMT-31" d="M 2384 0 
L 1822 0 
L 1822 3584 
Q 1619 3391 1289 3197 
Q 959 3003 697 2906 
L 697 3450 
Q 1169 3672 1522 3987 
Q 1875 4303 2022 4600 
L 2384 4600 
L 2384 0 
z
" transform="scale(0.015625)"/>
        <path id="ArialMT-35" d="M 266 1200 
L 856 1250 
Q 922 819 1161 601 
Q 1400 384 1738 384 
Q 2144 384 2425 690 
Q 2706 997 2706 1503 
Q 2706 1984 2436 2262 
Q 2166 2541 1728 2541 
Q 1456 2541 1237 2417 
Q 1019 2294 894 2097 
L 366 2166 
L 809 4519 
L 3088 4519 
L 3088 3981 
L 1259 3981 
L 1013 2750 
Q 1425 3038 1878 3038 
Q 2478 3038 2890 2622 
Q 3303 2206 3303 1553 
Q 3303 931 2941 478 
Q 2500 -78 1738 -78 
Q 1113 -78 717 272 
Q 322 622 266 1200 
z
" transform="scale(0.015625)"/>
        <path id="ArialMT-2d" d="M 203 1375 
L 203 1941 
L 1931 1941 
L 1931 1375 
L 203 1375 
z
" transform="scale(0.015625)"/>
       </defs>
       <use xlink:href="#ArialMT-32"/>
       <use xlink:href="#ArialMT-30" transform="translate(55.615234 0)"/>
       <use xlink:href="#ArialMT-31" transform="translate(111.230469 0)"/>
       <use xlink:href="#ArialMT-35" transform="translate(166.845703 0)"/>
       <use xlink:href="#ArialMT-2d" transform="translate(222.460938 0)"/>
       <use xlink:href="#ArialMT-30" transform="translate(255.761719 0)"/>
       <use xlink:href="#ArialMT-31" transform="translate(311.376953 0)"/>
      </g>
     </g>
    </g>
    <g id="xtick_2">
     <g id="line2d_2">
      <path d="M 165.36506 242.82 
L 165.36506 33.04 
" clip-path="url(#p44149fd417)" style="fill: none; stroke-dasharray: 1.85,0.8; stroke-dashoffset: 0; stroke: #cccccc; stroke-opacity: 0.25; stroke-width: 0.5"/>
     </g>
     <g id="text_2">
      <!-- 2015-05 -->
      <g style="fill: #262626" transform="translate(148.852169 258.762031) scale(0.09 -0.09)">
       <use xlink:href="#ArialMT-32"/>
       <use xlink:href="#ArialMT-30" transform="translate(55.615234 0)"/>
       <use xlink:href="#ArialMT-31" transform="translate(111.230469 0)"/>
       <use xlink:href="#ArialMT-35" transform="translate(166.845703 0)"/>
       <use xlink:href="#ArialMT-2d" transform="translate(222.460938 0)"/>
       <use xlink:href="#ArialMT-30" transform="translate(255.761719 0)"/>
       <use xlink:href="#ArialMT-35" transform="translate(311.376953 0)"/>
      </g>
     </g>
    </g>
    <g id="xtick_3">
     <g id="line2d_3">
      <path d="M 244.756962 242.82 
L 244.756962 33.04 
" clip-path="url(#p44149fd417)" style="fill: none; stroke-dasharray: 1.85,0.8; stroke-dashoffset: 0; stroke: #cccccc; stroke-opacity: 0.25; stroke-width: 0.5"/>
     </g>
     <g id="text_3">
      <!-- 2015-09 -->
      <g style="fill: #262626" transform="translate(228.244071 258.762031) scale(0.09 -0.09)">
       <defs>
        <path id="ArialMT-39" d="M 350 1059 
L 891 1109 
Q 959 728 1153 556 
Q 1347 384 1650 384 
Q 1909 384 2104 503 
Q 2300 622 2425 820 
Q 2550 1019 2634 1356 
Q 2719 1694 2719 2044 
Q 2719 2081 2716 2156 
Q 2547 1888 2255 1720 
Q 1963 1553 1622 1553 
Q 1053 1553 659 1965 
Q 266 2378 266 3053 
Q 266 3750 677 4175 
Q 1088 4600 1706 4600 
Q 2153 4600 2523 4359 
Q 2894 4119 3086 3673 
Q 3278 3228 3278 2384 
Q 3278 1506 3087 986 
Q 2897 466 2520 194 
Q 2144 -78 1638 -78 
Q 1100 -78 759 220 
Q 419 519 350 1059 
z
M 2653 3081 
Q 2653 3566 2395 3850 
Q 2138 4134 1775 4134 
Q 1400 4134 1122 3828 
Q 844 3522 844 3034 
Q 844 2597 1108 2323 
Q 1372 2050 1759 2050 
Q 2150 2050 2401 2323 
Q 2653 2597 2653 3081 
z
" transform="scale(0.015625)"/>
       </defs>
       <use xlink:href="#ArialMT-32"/>
       <use xlink:href="#ArialMT-30" transform="translate(55.615234 0)"/>
       <use xlink:href="#ArialMT-31" transform="translate(111.230469 0)"/>
       <use xlink:href="#ArialMT-35" transform="translate(166.845703 0)"/>
       <use xlink:href="#ArialMT-2d" transform="translate(222.460938 0)"/>
       <use xlink:href="#ArialMT-30" transform="translate(255.761719 0)"/>
       <use xlink:href="#ArialMT-39" transform="translate(311.376953 0)"/>
      </g>
     </g>
    </g>
    <g id="xtick_4">
     <g id="line2d_4">
      <path d="M 323.503401 242.82 
L 323.503401 33.04 
" clip-path="url(#p44149fd417)" style="fill: none; stroke-dasharray: 1.85,0.8; stroke-dashoffset: 0; stroke: #cccccc; stroke-opacity: 0.25; stroke-width: 0.5"/>
     </g>
     <g id="text_4">
      <!-- 2016-01 -->
      <g style="fill: #262626" transform="translate(306.990511 258.762031) scale(0.09 -0.09)">
       <defs>
        <path id="ArialMT-36" d="M 3184 3459 
L 2625 3416 
Q 2550 3747 2413 3897 
Q 2184 4138 1850 4138 
Q 1581 4138 1378 3988 
Q 1113 3794 959 3422 
Q 806 3050 800 2363 
Q 1003 2672 1297 2822 
Q 1591 2972 1913 2972 
Q 2475 2972 2870 2558 
Q 3266 2144 3266 1488 
Q 3266 1056 3080 686 
Q 2894 316 2569 119 
Q 2244 -78 1831 -78 
Q 1128 -78 684 439 
Q 241 956 241 2144 
Q 241 3472 731 4075 
Q 1159 4600 1884 4600 
Q 2425 4600 2770 4297 
Q 3116 3994 3184 3459 
z
M 888 1484 
Q 888 1194 1011 928 
Q 1134 663 1356 523 
Q 1578 384 1822 384 
Q 2178 384 2434 671 
Q 2691 959 2691 1453 
Q 2691 1928 2437 2201 
Q 2184 2475 1800 2475 
Q 1419 2475 1153 2201 
Q 888 1928 888 1484 
z
" transform="scale(0.015625)"/>
       </defs>
       <use xlink:href="#ArialMT-32"/>
       <use xlink:href="#ArialMT-30" transform="translate(55.615234 0)"/>
       <use xlink:href="#ArialMT-31" transform="translate(111.230469 0)"/>
       <use xlink:href="#ArialMT-36" transform="translate(166.845703 0)"/>
       <use xlink:href="#ArialMT-2d" transform="translate(222.460938 0)"/>
       <use xlink:href="#ArialMT-30" transform="translate(255.761719 0)"/>
       <use xlink:href="#ArialMT-31" transform="translate(311.376953 0)"/>
      </g>
     </g>
    </g>
    <g id="xtick_5">
     <g id="line2d_5">
      <path d="M 401.604378 242.82 
L 401.604378 33.04 
" clip-path="url(#p44149fd417)" style="fill: none; stroke-dasharray: 1.85,0.8; stroke-dashoffset: 0; stroke: #cccccc; stroke-opacity: 0.25; stroke-width: 0.5"/>
     </g>
     <g id="text_5">
      <!-- 2016-05 -->
      <g style="fill: #262626" transform="translate(385.091488 258.762031) scale(0.09 -0.09)">
       <use xlink:href="#ArialMT-32"/>
       <use xlink:href="#ArialMT-30" transform="translate(55.615234 0)"/>
       <use xlink:href="#ArialMT-31" transform="translate(111.230469 0)"/>
       <use xlink:href="#ArialMT-36" transform="translate(166.845703 0)"/>
       <use xlink:href="#ArialMT-2d" transform="translate(222.460938 0)"/>
       <use xlink:href="#ArialMT-30" transform="translate(255.761719 0)"/>
       <use xlink:href="#ArialMT-35" transform="translate(311.376953 0)"/>
      </g>
     </g>
    </g>
    <g id="xtick_6">
     <g id="line2d_6">
      <path d="M 480.99628 242.82 
L 480.99628 33.04 
" clip-path="url(#p44149fd417)" style="fill: none; stroke-dasharray: 1.85,0.8; stroke-dashoffset: 0; stroke: #cccccc; stroke-opacity: 0.25; stroke-width: 0.5"/>
     </g>
     <g id="text_6">
      <!-- 2016-09 -->
      <g style="fill: #262626" transform="translate(464.48339 258.762031) scale(0.09 -0.09)">
       <use xlink:href="#ArialMT-32"/>
       <use xlink:href="#ArialMT-30" transform="translate(55.615234 0)"/>
       <use xlink:href="#ArialMT-31" transform="translate(111.230469 0)"/>
       <use xlink:href="#ArialMT-36" transform="translate(166.845703 0)"/>
       <use xlink:href="#ArialMT-2d" transform="translate(222.460938 0)"/>
       <use xlink:href="#ArialMT-30" transform="translate(255.761719 0)"/>
       <use xlink:href="#ArialMT-39" transform="translate(311.376953 0)"/>
      </g>
     </g>
    </g>
    <g id="xtick_7">
     <g id="line2d_7">
      <path d="M 559.74272 242.82 
L 559.74272 33.04 
" clip-path="url(#p44149fd417)" style="fill: none; stroke-dasharray: 1.85,0.8; stroke-dashoffset: 0; stroke: #cccccc; stroke-opacity: 0.25; stroke-width: 0.5"/>
     </g>
     <g id="text_7">
      <!-- 2017-01 -->
      <g style="fill: #262626" transform="translate(543.229829 258.762031) scale(0.09 -0.09)">
       <defs>
        <path id="ArialMT-37" d="M 303 3981 
L 303 4522 
L 3269 4522 
L 3269 4084 
Q 2831 3619 2401 2847 
Q 1972 2075 1738 1259 
Q 1569 684 1522 0 
L 944 0 
Q 953 541 1156 1306 
Q 1359 2072 1739 2783 
Q 2119 3494 2547 3981 
L 303 3981 
z
" transform="scale(0.015625)"/>
       </defs>
       <use xlink:href="#ArialMT-32"/>
       <use xlink:href="#ArialMT-30" transform="translate(55.615234 0)"/>
       <use xlink:href="#ArialMT-31" transform="translate(111.230469 0)"/>
       <use xlink:href="#ArialMT-37" transform="translate(166.845703 0)"/>
       <use xlink:href="#ArialMT-2d" transform="translate(222.460938 0)"/>
       <use xlink:href="#ArialMT-30" transform="translate(255.761719 0)"/>
       <use xlink:href="#ArialMT-31" transform="translate(311.376953 0)"/>
      </g>
     </g>
    </g>
    <g id="xtick_8">
     <g id="line2d_8">
      <path d="M 637.198234 242.82 
L 637.198234 33.04 
" clip-path="url(#p44149fd417)" style="fill: none; stroke-dasharray: 1.85,0.8; stroke-dashoffset: 0; stroke: #cccccc; stroke-opacity: 0.25; stroke-width: 0.5"/>
     </g>
     <g id="text_8">
      <!-- 2017-05 -->
      <g style="fill: #262626" transform="translate(620.685344 258.762031) scale(0.09 -0.09)">
       <use xlink:href="#ArialMT-32"/>
       <use xlink:href="#ArialMT-30" transform="translate(55.615234 0)"/>
       <use xlink:href="#ArialMT-31" transform="translate(111.230469 0)"/>
       <use xlink:href="#ArialMT-37" transform="translate(166.845703 0)"/>
       <use xlink:href="#ArialMT-2d" transform="translate(222.460938 0)"/>
       <use xlink:href="#ArialMT-30" transform="translate(255.761719 0)"/>
       <use xlink:href="#ArialMT-35" transform="translate(311.376953 0)"/>
      </g>
     </g>
    </g>
    <g id="xtick_9">
     <g id="line2d_9">
      <path d="M 716.590136 242.82 
L 716.590136 33.04 
" clip-path="url(#p44149fd417)" style="fill: none; stroke-dasharray: 1.85,0.8; stroke-dashoffset: 0; stroke: #cccccc; stroke-opacity: 0.25; stroke-width: 0.5"/>
     </g>
     <g id="text_9">
      <!-- 2017-09 -->
      <g style="fill: #262626" transform="translate(700.077246 258.762031) scale(0.09 -0.09)">
       <use xlink:href="#ArialMT-32"/>
       <use xlink:href="#ArialMT-30" transform="translate(55.615234 0)"/>
       <use xlink:href="#ArialMT-31" transform="translate(111.230469 0)"/>
       <use xlink:href="#ArialMT-37" transform="translate(166.845703 0)"/>
       <use xlink:href="#ArialMT-2d" transform="translate(222.460938 0)"/>
       <use xlink:href="#ArialMT-30" transform="translate(255.761719 0)"/>
       <use xlink:href="#ArialMT-39" transform="translate(311.376953 0)"/>
      </g>
     </g>
    </g>
    <g id="xtick_10">
     <g id="line2d_10">
      <path d="M 795.336576 242.82 
L 795.336576 33.04 
" clip-path="url(#p44149fd417)" style="fill: none; stroke-dasharray: 1.85,0.8; stroke-dashoffset: 0; stroke: #cccccc; stroke-opacity: 0.25; stroke-width: 0.5"/>
     </g>
     <g id="text_10">
      <!-- 2018-01 -->
      <g style="fill: #262626" transform="translate(778.823685 258.762031) scale(0.09 -0.09)">
       <defs>
        <path id="ArialMT-38" d="M 1131 2484 
Q 781 2613 612 2850 
Q 444 3088 444 3419 
Q 444 3919 803 4259 
Q 1163 4600 1759 4600 
Q 2359 4600 2725 4251 
Q 3091 3903 3091 3403 
Q 3091 3084 2923 2848 
Q 2756 2613 2416 2484 
Q 2838 2347 3058 2040 
Q 3278 1734 3278 1309 
Q 3278 722 2862 322 
Q 2447 -78 1769 -78 
Q 1091 -78 675 323 
Q 259 725 259 1325 
Q 259 1772 486 2073 
Q 713 2375 1131 2484 
z
M 1019 3438 
Q 1019 3113 1228 2906 
Q 1438 2700 1772 2700 
Q 2097 2700 2305 2904 
Q 2513 3109 2513 3406 
Q 2513 3716 2298 3927 
Q 2084 4138 1766 4138 
Q 1444 4138 1231 3931 
Q 1019 3725 1019 3438 
z
M 838 1322 
Q 838 1081 952 856 
Q 1066 631 1291 507 
Q 1516 384 1775 384 
Q 2178 384 2440 643 
Q 2703 903 2703 1303 
Q 2703 1709 2433 1975 
Q 2163 2241 1756 2241 
Q 1359 2241 1098 1978 
Q 838 1716 838 1322 
z
" transform="scale(0.015625)"/>
       </defs>
       <use xlink:href="#ArialMT-32"/>
       <use xlink:href="#ArialMT-30" transform="translate(55.615234 0)"/>
       <use xlink:href="#ArialMT-31" transform="translate(111.230469 0)"/>
       <use xlink:href="#ArialMT-38" transform="translate(166.845703 0)"/>
       <use xlink:href="#ArialMT-2d" transform="translate(222.460938 0)"/>
       <use xlink:href="#ArialMT-30" transform="translate(255.761719 0)"/>
       <use xlink:href="#ArialMT-31" transform="translate(311.376953 0)"/>
      </g>
     </g>
    </g>
    <g id="text_11">
     <!-- Date -->
     <g style="fill: #262626" transform="translate(440.744062 271.708594) scale(0.1 -0.1)">
      <defs>
       <path id="ArialMT-44" d="M 494 0 
L 494 4581 
L 2072 4581 
Q 2606 4581 2888 4516 
Q 3281 4425 3559 4188 
Q 3922 3881 4101 3404 
Q 4281 2928 4281 2316 
Q 4281 1794 4159 1391 
Q 4038 988 3847 723 
Q 3656 459 3429 307 
Q 3203 156 2883 78 
Q 2563 0 2147 0 
L 494 0 
z
M 1100 541 
L 2078 541 
Q 2531 541 2789 625 
Q 3047 709 3200 863 
Q 3416 1078 3536 1442 
Q 3656 1806 3656 2325 
Q 3656 3044 3420 3430 
Q 3184 3816 2847 3947 
Q 2603 4041 2063 4041 
L 1100 4041 
L 1100 541 
z
" transform="scale(0.015625)"/>
       <path id="ArialMT-61" d="M 2588 409 
Q 2275 144 1986 34 
Q 1697 -75 1366 -75 
Q 819 -75 525 192 
Q 231 459 231 875 
Q 231 1119 342 1320 
Q 453 1522 633 1644 
Q 813 1766 1038 1828 
Q 1203 1872 1538 1913 
Q 2219 1994 2541 2106 
Q 2544 2222 2544 2253 
Q 2544 2597 2384 2738 
Q 2169 2928 1744 2928 
Q 1347 2928 1158 2789 
Q 969 2650 878 2297 
L 328 2372 
Q 403 2725 575 2942 
Q 747 3159 1072 3276 
Q 1397 3394 1825 3394 
Q 2250 3394 2515 3294 
Q 2781 3194 2906 3042 
Q 3031 2891 3081 2659 
Q 3109 2516 3109 2141 
L 3109 1391 
Q 3109 606 3145 398 
Q 3181 191 3288 0 
L 2700 0 
Q 2613 175 2588 409 
z
M 2541 1666 
Q 2234 1541 1622 1453 
Q 1275 1403 1131 1340 
Q 988 1278 909 1158 
Q 831 1038 831 891 
Q 831 666 1001 516 
Q 1172 366 1500 366 
Q 1825 366 2078 508 
Q 2331 650 2450 897 
Q 2541 1088 2541 1459 
L 2541 1666 
z
" transform="scale(0.015625)"/>
       <path id="ArialMT-74" d="M 1650 503 
L 1731 6 
Q 1494 -44 1306 -44 
Q 1000 -44 831 53 
Q 663 150 594 308 
Q 525 466 525 972 
L 525 2881 
L 113 2881 
L 113 3319 
L 525 3319 
L 525 4141 
L 1084 4478 
L 1084 3319 
L 1650 3319 
L 1650 2881 
L 1084 2881 
L 1084 941 
Q 1084 700 1114 631 
Q 1144 563 1211 522 
Q 1278 481 1403 481 
Q 1497 481 1650 503 
z
" transform="scale(0.015625)"/>
       <path id="ArialMT-65" d="M 2694 1069 
L 3275 997 
Q 3138 488 2766 206 
Q 2394 -75 1816 -75 
Q 1088 -75 661 373 
Q 234 822 234 1631 
Q 234 2469 665 2931 
Q 1097 3394 1784 3394 
Q 2450 3394 2872 2941 
Q 3294 2488 3294 1666 
Q 3294 1616 3291 1516 
L 816 1516 
Q 847 969 1125 678 
Q 1403 388 1819 388 
Q 2128 388 2347 550 
Q 2566 713 2694 1069 
z
M 847 1978 
L 2700 1978 
Q 2663 2397 2488 2606 
Q 2219 2931 1791 2931 
Q 1403 2931 1139 2672 
Q 875 2413 847 1978 
z
" transform="scale(0.015625)"/>
      </defs>
      <use xlink:href="#ArialMT-44"/>
      <use xlink:href="#ArialMT-61" transform="translate(72.216797 0)"/>
      <use xlink:href="#ArialMT-74" transform="translate(127.832031 0)"/>
      <use xlink:href="#ArialMT-65" transform="translate(155.615234 0)"/>
     </g>
    </g>
   </g>
   <g id="matplotlib.axis_2">
    <g id="ytick_1">
     <g id="line2d_11">
      <path d="M 51.57 239.436452 
L 851.04 239.436452 
" clip-path="url(#p44149fd417)" style="fill: none; stroke-dasharray: 1.85,0.8; stroke-dashoffset: 0; stroke: #cccccc; stroke-opacity: 0.25; stroke-width: 0.5"/>
     </g>
     <g id="text_12">
      <!-- 60 -->
      <g style="fill: #262626" transform="translate(32.060313 242.657467) scale(0.09 -0.09)">
       <use xlink:href="#ArialMT-36"/>
       <use xlink:href="#ArialMT-30" transform="translate(55.615234 0)"/>
      </g>
     </g>
    </g>
    <g id="ytick_2">
     <g id="line2d_12">
      <path d="M 51.57 214.828827 
L 851.04 214.828827 
" clip-path="url(#p44149fd417)" style="fill: none; stroke-dasharray: 1.85,0.8; stroke-dashoffset: 0; stroke: #cccccc; stroke-opacity: 0.25; stroke-width: 0.5"/>
     </g>
     <g id="text_13">
      <!-- 80 -->
      <g style="fill: #262626" transform="translate(32.060313 218.049843) scale(0.09 -0.09)">
       <use xlink:href="#ArialMT-38"/>
       <use xlink:href="#ArialMT-30" transform="translate(55.615234 0)"/>
      </g>
     </g>
    </g>
    <g id="ytick_3">
     <g id="line2d_13">
      <path d="M 51.57 190.221202 
L 851.04 190.221202 
" clip-path="url(#p44149fd417)" style="fill: none; stroke-dasharray: 1.85,0.8; stroke-dashoffset: 0; stroke: #cccccc; stroke-opacity: 0.25; stroke-width: 0.5"/>
     </g>
     <g id="text_14">
      <!-- 100 -->
      <g style="fill: #262626" transform="translate(27.055469 193.442218) scale(0.09 -0.09)">
       <use xlink:href="#ArialMT-31"/>
       <use xlink:href="#ArialMT-30" transform="translate(55.615234 0)"/>
       <use xlink:href="#ArialMT-30" transform="translate(111.230469 0)"/>
      </g>
     </g>
    </g>
    <g id="ytick_4">
     <g id="line2d_14">
      <path d="M 51.57 165.613578 
L 851.04 165.613578 
" clip-path="url(#p44149fd417)" style="fill: none; stroke-dasharray: 1.85,0.8; stroke-dashoffset: 0; stroke: #cccccc; stroke-opacity: 0.25; stroke-width: 0.5"/>
     </g>
     <g id="text_15">
      <!-- 120 -->
      <g style="fill: #262626" transform="translate(27.055469 168.834593) scale(0.09 -0.09)">
       <use xlink:href="#ArialMT-31"/>
       <use xlink:href="#ArialMT-32" transform="translate(55.615234 0)"/>
       <use xlink:href="#ArialMT-30" transform="translate(111.230469 0)"/>
      </g>
     </g>
    </g>
    <g id="ytick_5">
     <g id="line2d_15">
      <path d="M 51.57 141.005953 
L 851.04 141.005953 
" clip-path="url(#p44149fd417)" style="fill: none; stroke-dasharray: 1.85,0.8; stroke-dashoffset: 0; stroke: #cccccc; stroke-opacity: 0.25; stroke-width: 0.5"/>
     </g>
     <g id="text_16">
      <!-- 140 -->
      <g style="fill: #262626" transform="translate(27.055469 144.226969) scale(0.09 -0.09)">
       <defs>
        <path id="ArialMT-34" d="M 2069 0 
L 2069 1097 
L 81 1097 
L 81 1613 
L 2172 4581 
L 2631 4581 
L 2631 1613 
L 3250 1613 
L 3250 1097 
L 2631 1097 
L 2631 0 
L 2069 0 
z
M 2069 1613 
L 2069 3678 
L 634 1613 
L 2069 1613 
z
" transform="scale(0.015625)"/>
       </defs>
       <use xlink:href="#ArialMT-31"/>
       <use xlink:href="#ArialMT-34" transform="translate(55.615234 0)"/>
       <use xlink:href="#ArialMT-30" transform="translate(111.230469 0)"/>
      </g>
     </g>
    </g>
    <g id="ytick_6">
     <g id="line2d_16">
      <path d="M 51.57 116.398328 
L 851.04 116.398328 
" clip-path="url(#p44149fd417)" style="fill: none; stroke-dasharray: 1.85,0.8; stroke-dashoffset: 0; stroke: #cccccc; stroke-opacity: 0.25; stroke-width: 0.5"/>
     </g>
     <g id="text_17">
      <!-- 160 -->
      <g style="fill: #262626" transform="translate(27.055469 119.619344) scale(0.09 -0.09)">
       <use xlink:href="#ArialMT-31"/>
       <use xlink:href="#ArialMT-36" transform="translate(55.615234 0)"/>
       <use xlink:href="#ArialMT-30" transform="translate(111.230469 0)"/>
      </g>
     </g>
    </g>
    <g id="ytick_7">
     <g id="line2d_17">
      <path d="M 51.57 91.790704 
L 851.04 91.790704 
" clip-path="url(#p44149fd417)" style="fill: none; stroke-dasharray: 1.85,0.8; stroke-dashoffset: 0; stroke: #cccccc; stroke-opacity: 0.25; stroke-width: 0.5"/>
     </g>
     <g id="text_18">
      <!-- 180 -->
      <g style="fill: #262626" transform="translate(27.055469 95.011719) scale(0.09 -0.09)">
       <use xlink:href="#ArialMT-31"/>
       <use xlink:href="#ArialMT-38" transform="translate(55.615234 0)"/>
       <use xlink:href="#ArialMT-30" transform="translate(111.230469 0)"/>
      </g>
     </g>
    </g>
    <g id="ytick_8">
     <g id="line2d_18">
      <path d="M 51.57 67.183079 
L 851.04 67.183079 
" clip-path="url(#p44149fd417)" style="fill: none; stroke-dasharray: 1.85,0.8; stroke-dashoffset: 0; stroke: #cccccc; stroke-opacity: 0.25; stroke-width: 0.5"/>
     </g>
     <g id="text_19">
      <!-- 200 -->
      <g style="fill: #262626" transform="translate(27.055469 70.404095) scale(0.09 -0.09)">
       <use xlink:href="#ArialMT-32"/>
       <use xlink:href="#ArialMT-30" transform="translate(55.615234 0)"/>
       <use xlink:href="#ArialMT-30" transform="translate(111.230469 0)"/>
      </g>
     </g>
    </g>
    <g id="ytick_9">
     <g id="line2d_19">
      <path d="M 51.57 42.575455 
L 851.04 42.575455 
" clip-path="url(#p44149fd417)" style="fill: none; stroke-dasharray: 1.85,0.8; stroke-dashoffset: 0; stroke: #cccccc; stroke-opacity: 0.25; stroke-width: 0.5"/>
     </g>
     <g id="text_20">
      <!-- 220 -->
      <g style="fill: #262626" transform="translate(27.055469 45.79647) scale(0.09 -0.09)">
       <use xlink:href="#ArialMT-32"/>
       <use xlink:href="#ArialMT-32" transform="translate(55.615234 0)"/>
       <use xlink:href="#ArialMT-30" transform="translate(111.230469 0)"/>
      </g>
     </g>
    </g>
    <g id="text_21">
     <!-- Count -->
     <g style="fill: #262626" transform="translate(21.067969 151.271406) rotate(-90) scale(0.1 -0.1)">
      <defs>
       <path id="ArialMT-43" d="M 3763 1606 
L 4369 1453 
Q 4178 706 3683 314 
Q 3188 -78 2472 -78 
Q 1731 -78 1267 223 
Q 803 525 561 1097 
Q 319 1669 319 2325 
Q 319 3041 592 3573 
Q 866 4106 1370 4382 
Q 1875 4659 2481 4659 
Q 3169 4659 3637 4309 
Q 4106 3959 4291 3325 
L 3694 3184 
Q 3534 3684 3231 3912 
Q 2928 4141 2469 4141 
Q 1941 4141 1586 3887 
Q 1231 3634 1087 3207 
Q 944 2781 944 2328 
Q 944 1744 1114 1308 
Q 1284 872 1643 656 
Q 2003 441 2422 441 
Q 2931 441 3284 734 
Q 3638 1028 3763 1606 
z
" transform="scale(0.015625)"/>
       <path id="ArialMT-6f" d="M 213 1659 
Q 213 2581 725 3025 
Q 1153 3394 1769 3394 
Q 2453 3394 2887 2945 
Q 3322 2497 3322 1706 
Q 3322 1066 3130 698 
Q 2938 331 2570 128 
Q 2203 -75 1769 -75 
Q 1072 -75 642 372 
Q 213 819 213 1659 
z
M 791 1659 
Q 791 1022 1069 705 
Q 1347 388 1769 388 
Q 2188 388 2466 706 
Q 2744 1025 2744 1678 
Q 2744 2294 2464 2611 
Q 2184 2928 1769 2928 
Q 1347 2928 1069 2612 
Q 791 2297 791 1659 
z
" transform="scale(0.015625)"/>
       <path id="ArialMT-75" d="M 2597 0 
L 2597 488 
Q 2209 -75 1544 -75 
Q 1250 -75 995 37 
Q 741 150 617 320 
Q 494 491 444 738 
Q 409 903 409 1263 
L 409 3319 
L 972 3319 
L 972 1478 
Q 972 1038 1006 884 
Q 1059 663 1231 536 
Q 1403 409 1656 409 
Q 1909 409 2131 539 
Q 2353 669 2445 892 
Q 2538 1116 2538 1541 
L 2538 3319 
L 3100 3319 
L 3100 0 
L 2597 0 
z
" transform="scale(0.015625)"/>
       <path id="ArialMT-6e" d="M 422 0 
L 422 3319 
L 928 3319 
L 928 2847 
Q 1294 3394 1984 3394 
Q 2284 3394 2536 3286 
Q 2788 3178 2913 3003 
Q 3038 2828 3088 2588 
Q 3119 2431 3119 2041 
L 3119 0 
L 2556 0 
L 2556 2019 
Q 2556 2363 2490 2533 
Q 2425 2703 2258 2804 
Q 2091 2906 1866 2906 
Q 1506 2906 1245 2678 
Q 984 2450 984 1813 
L 984 0 
L 422 0 
z
" transform="scale(0.015625)"/>
      </defs>
      <use xlink:href="#ArialMT-43"/>
      <use xlink:href="#ArialMT-6f" transform="translate(72.216797 0)"/>
      <use xlink:href="#ArialMT-75" transform="translate(127.832031 0)"/>
      <use xlink:href="#ArialMT-6e" transform="translate(183.447266 0)"/>
      <use xlink:href="#ArialMT-74" transform="translate(239.0625 0)"/>
     </g>
    </g>
   </g>
   <g id="line2d_20">
    <path d="M 87.909545 106.555279 
L 88.555008 123.780616 
L 89.200471 93.021085 
L 89.845933 78.25651 
L 90.491396 116.398328 
L 91.136859 105.324897 
L 91.782321 115.167947 
L 92.427784 74.565367 
L 93.073246 154.540147 
L 93.718709 90.560323 
L 94.364172 105.324897 
L 95.009634 69.643842 
L 95.655097 100.403372 
L 96.30056 115.167947 
L 96.946022 96.712229 
L 97.591485 104.094516 
L 98.236947 116.398328 
L 98.88241 104.094516 
L 99.527873 111.476804 
L 100.173335 109.016041 
L 100.818798 81.947654 
L 101.46426 85.638798 
L 102.109723 101.633754 
L 102.755186 110.246422 
L 103.400648 110.246422 
L 104.046111 90.560323 
L 104.691574 100.403372 
L 105.337036 99.172991 
L 105.982499 106.555279 
L 106.627961 102.864135 
L 107.273424 83.178035 
L 107.918887 90.560323 
L 108.564349 116.398328 
L 109.209812 106.555279 
L 109.855275 118.859091 
L 110.500737 99.172991 
L 111.1462 85.638798 
L 111.791662 89.329941 
L 112.437125 109.016041 
L 113.082588 99.172991 
L 113.72805 79.486891 
L 114.373513 131.162903 
L 115.018975 142.236334 
L 115.664438 101.633754 
L 116.309901 137.314809 
L 116.955363 85.638798 
L 117.600826 101.633754 
L 118.246289 111.476804 
L 118.891751 113.937566 
L 119.537214 102.864135 
L 120.182676 115.167947 
L 120.828139 79.486891 
L 121.473602 106.555279 
L 122.119064 104.094516 
L 122.764527 110.246422 
L 123.40999 101.633754 
L 124.055452 101.633754 
L 124.700915 121.319853 
L 125.346377 90.560323 
L 125.99184 69.643842 
L 126.637303 83.178035 
L 127.282765 79.486891 
L 127.928228 85.638798 
L 128.57369 102.864135 
L 129.219153 110.246422 
L 129.864616 86.869179 
L 130.510078 99.172991 
L 131.155541 88.09956 
L 131.801004 111.476804 
L 132.446466 139.775572 
L 133.091929 90.560323 
L 133.737391 101.633754 
L 134.382854 86.869179 
L 135.028317 131.162903 
L 135.673779 117.62871 
L 136.319242 107.78566 
L 136.964705 105.324897 
L 137.610167 81.947654 
L 138.25563 139.775572 
L 138.901092 99.172991 
L 139.546555 101.633754 
L 140.192018 115.167947 
L 140.83748 118.859091 
L 141.482943 115.167947 
L 142.128405 107.78566 
L 142.773868 117.62871 
L 143.419331 90.560323 
L 144.064793 78.25651 
L 144.710256 58.570411 
L 145.355719 91.790704 
L 146.001181 74.565367 
L 146.646644 107.78566 
L 147.292106 91.790704 
L 147.937569 111.476804 
L 148.583032 121.319853 
L 149.228494 127.47176 
L 149.873957 94.251466 
L 150.51942 104.094516 
L 151.164882 93.021085 
L 151.810345 67.183079 
L 152.455807 96.712229 
L 153.10127 97.94261 
L 153.746733 112.707185 
L 154.392195 94.251466 
L 155.037658 113.937566 
L 155.68312 86.869179 
L 156.328583 89.329941 
L 156.974046 121.319853 
L 157.619508 63.491935 
L 158.264971 104.094516 
L 158.910434 152.079384 
L 159.555896 100.403372 
L 160.201359 128.702141 
L 160.846821 99.172991 
L 161.492284 122.550235 
L 162.137747 95.481848 
L 162.783209 105.324897 
L 163.428672 126.241378 
L 164.074135 90.560323 
L 164.719597 96.712229 
L 166.010522 106.555279 
L 166.655985 109.016041 
L 167.301448 107.78566 
L 167.94691 121.319853 
L 168.592373 100.403372 
L 169.237835 90.560323 
L 169.883298 106.555279 
L 170.528761 86.869179 
L 171.174223 139.775572 
L 171.819686 100.403372 
L 172.465149 117.62871 
L 173.110611 86.869179 
L 173.756074 78.25651 
L 174.401536 109.016041 
L 175.046999 123.780616 
L 175.692462 95.481848 
L 176.337924 74.565367 
L 176.983387 83.178035 
L 177.62885 111.476804 
L 178.274312 125.010997 
L 178.919775 90.560323 
L 179.565237 111.476804 
L 180.2107 112.707185 
L 180.856163 77.026129 
L 181.501625 111.476804 
L 182.147088 100.403372 
L 182.79255 101.633754 
L 184.083476 56.109648 
L 184.728938 104.094516 
L 185.374401 86.869179 
L 186.019864 89.329941 
L 186.665326 116.398328 
L 187.310789 97.94261 
L 187.956251 126.241378 
L 188.601714 112.707185 
L 189.247177 102.864135 
L 189.892639 64.722317 
L 190.538102 106.555279 
L 191.183565 110.246422 
L 191.829027 138.545191 
L 192.47449 127.47176 
L 193.119952 99.172991 
L 193.765415 91.790704 
L 194.410878 100.403372 
L 195.05634 88.09956 
L 195.701803 102.864135 
L 196.347265 123.780616 
L 196.992728 102.864135 
L 197.638191 90.560323 
L 198.283653 99.172991 
L 198.929116 115.167947 
L 199.574579 122.550235 
L 200.220041 106.555279 
L 200.865504 80.717273 
L 201.510966 106.555279 
L 202.156429 110.246422 
L 202.801892 116.398328 
L 203.447354 90.560323 
L 204.092817 53.648886 
L 204.73828 109.016041 
L 205.383742 85.638798 
L 206.029205 94.251466 
L 206.674667 122.550235 
L 207.32013 107.78566 
L 207.965593 122.550235 
L 208.611055 101.633754 
L 209.256518 107.78566 
L 209.90198 86.869179 
L 210.547443 100.403372 
L 211.192906 96.712229 
L 211.838368 96.712229 
L 212.483831 112.707185 
L 213.129294 51.188123 
L 213.774756 95.481848 
L 214.420219 89.329941 
L 215.065681 102.864135 
L 215.711144 110.246422 
L 216.356607 100.403372 
L 217.002069 120.089472 
L 217.647532 81.947654 
L 218.292995 144.697097 
L 218.938457 112.707185 
L 219.58392 101.633754 
L 220.229382 101.633754 
L 220.874845 89.329941 
L 221.520308 127.47176 
L 222.16577 73.334985 
L 222.811233 117.62871 
L 223.456695 126.241378 
L 224.102158 100.403372 
L 224.747621 107.78566 
L 225.393083 88.09956 
L 226.038546 104.094516 
L 226.684009 80.717273 
L 227.329471 81.947654 
L 227.974934 102.864135 
L 228.620396 91.790704 
L 229.265859 147.157859 
L 229.911322 121.319853 
L 230.556784 101.633754 
L 231.202247 118.859091 
L 231.84771 95.481848 
L 232.493172 112.707185 
L 233.138635 117.62871 
L 233.784097 96.712229 
L 234.42956 96.712229 
L 235.075023 89.329941 
L 235.720485 126.241378 
L 236.365948 101.633754 
L 237.01141 127.47176 
L 237.656873 93.021085 
L 238.947798 115.167947 
L 239.593261 157.000909 
L 240.238724 67.183079 
L 240.884186 110.246422 
L 241.529649 107.78566 
L 242.175111 96.712229 
L 242.820574 81.947654 
L 243.466037 89.329941 
L 244.111499 90.560323 
L 244.756962 112.707185 
L 245.402425 94.251466 
L 246.047887 109.016041 
L 246.69335 81.947654 
L 247.338812 96.712229 
L 247.984275 79.486891 
L 248.629738 104.094516 
L 249.2752 104.094516 
L 249.920663 102.864135 
L 250.566125 133.623666 
L 251.211588 105.324897 
L 251.857051 89.329941 
L 252.502513 101.633754 
L 253.147976 107.78566 
L 253.793439 131.162903 
L 254.438901 88.09956 
L 255.084364 118.859091 
L 255.729826 100.403372 
L 256.375289 110.246422 
L 257.020752 86.869179 
L 257.666214 102.864135 
L 258.311677 90.560323 
L 258.95714 89.329941 
L 259.602602 110.246422 
L 260.248065 113.937566 
L 260.893527 96.712229 
L 261.53899 88.09956 
L 262.184453 107.78566 
L 262.829915 121.319853 
L 264.12084 65.952698 
L 264.766303 100.403372 
L 265.411766 91.790704 
L 266.057228 126.241378 
L 266.702691 122.550235 
L 267.348154 97.94261 
L 267.993616 131.162903 
L 268.639079 80.717273 
L 269.284541 78.25651 
L 269.930004 133.623666 
L 270.575467 95.481848 
L 271.220929 104.094516 
L 271.866392 83.178035 
L 272.511855 105.324897 
L 273.157317 102.864135 
L 273.80278 121.319853 
L 274.448242 112.707185 
L 275.093705 85.638798 
L 275.739168 94.251466 
L 276.38463 111.476804 
L 277.030093 106.555279 
L 277.675555 132.393284 
L 278.321018 120.089472 
L 278.966481 120.089472 
L 279.611943 107.78566 
L 280.257406 125.010997 
L 280.902869 46.266598 
L 281.548331 86.869179 
L 282.193794 102.864135 
L 282.839256 89.329941 
L 284.130182 120.089472 
L 284.775644 68.41346 
L 285.421107 106.555279 
L 286.06657 75.795748 
L 286.712032 93.021085 
L 287.357495 90.560323 
L 288.002957 115.167947 
L 288.64842 102.864135 
L 289.293883 83.178035 
L 289.939345 152.079384 
L 290.584808 86.869179 
L 291.23027 104.094516 
L 291.875733 52.418504 
L 292.521196 122.550235 
L 293.166658 115.167947 
L 293.812121 89.329941 
L 294.457584 96.712229 
L 295.103046 96.712229 
L 295.748509 75.795748 
L 296.393971 95.481848 
L 297.039434 89.329941 
L 297.684897 115.167947 
L 298.330359 99.172991 
L 298.975822 118.859091 
L 299.621285 102.864135 
L 300.266747 120.089472 
L 300.91221 86.869179 
L 301.557672 105.324897 
L 302.203135 88.09956 
L 302.848598 88.09956 
L 303.49406 101.633754 
L 304.784985 94.251466 
L 305.430448 112.707185 
L 306.075911 85.638798 
L 307.366836 131.162903 
L 308.012299 136.084428 
L 308.657761 88.09956 
L 309.303224 117.62871 
L 309.948686 99.172991 
L 310.594149 99.172991 
L 311.239612 86.869179 
L 311.885074 94.251466 
L 312.530537 90.560323 
L 313.176 88.09956 
L 313.821462 145.927478 
L 314.466925 112.707185 
L 315.112387 100.403372 
L 315.75785 107.78566 
L 316.403313 94.251466 
L 317.048775 112.707185 
L 317.694238 73.334985 
L 318.3397 84.408416 
L 318.985163 70.874223 
L 319.630626 100.403372 
L 320.276088 77.026129 
L 320.921551 102.864135 
L 321.567014 94.251466 
L 322.212476 89.329941 
L 322.857939 104.094516 
L 323.503401 89.329941 
L 324.148864 110.246422 
L 324.794327 84.408416 
L 325.439789 122.550235 
L 326.085252 132.393284 
L 326.730715 94.251466 
L 327.376177 90.560323 
L 328.02164 115.167947 
L 328.667102 97.94261 
L 329.312565 126.241378 
L 329.958028 101.633754 
L 330.60349 129.932522 
L 331.248953 115.167947 
L 331.894415 95.481848 
L 332.539878 118.859091 
L 333.185341 77.026129 
L 333.830803 110.246422 
L 334.476266 105.324897 
L 335.121729 95.481848 
L 335.767191 110.246422 
L 336.412654 85.638798 
L 337.058116 95.481848 
L 337.703579 99.172991 
L 338.349042 89.329941 
L 338.994504 89.329941 
L 339.639967 68.41346 
L 340.28543 91.790704 
L 340.930892 128.702141 
L 341.576355 117.62871 
L 342.221817 69.643842 
L 342.86728 111.476804 
L 343.512743 100.403372 
L 344.158205 117.62871 
L 344.803668 111.476804 
L 345.44913 123.780616 
L 346.094593 121.319853 
L 346.740056 116.398328 
L 347.385518 79.486891 
L 348.030981 112.707185 
L 348.676444 93.021085 
L 349.321906 110.246422 
L 349.967369 105.324897 
L 350.612831 127.47176 
L 351.258294 122.550235 
L 351.903757 113.937566 
L 352.549219 132.393284 
L 353.194682 94.251466 
L 353.840145 84.408416 
L 354.485607 90.560323 
L 355.13107 73.334985 
L 355.776532 101.633754 
L 356.421995 109.016041 
L 357.067458 93.021085 
L 357.71292 91.790704 
L 358.358383 118.859091 
L 359.003845 123.780616 
L 359.649308 93.021085 
L 360.294771 112.707185 
L 360.940233 102.864135 
L 361.585696 85.638798 
L 362.231159 125.010997 
L 362.876621 120.089472 
L 363.522084 81.947654 
L 364.167546 97.94261 
L 364.813009 109.016041 
L 365.458472 85.638798 
L 366.103934 100.403372 
L 366.749397 132.393284 
L 368.040322 70.874223 
L 368.685785 128.702141 
L 369.331247 120.089472 
L 369.97671 136.084428 
L 370.622173 129.932522 
L 371.267635 111.476804 
L 371.913098 128.702141 
L 372.55856 104.094516 
L 373.204023 52.418504 
L 373.849486 105.324897 
L 374.494948 99.172991 
L 375.140411 116.398328 
L 375.785874 138.545191 
L 376.431336 136.084428 
L 377.076799 93.021085 
L 377.722261 74.565367 
L 379.013187 97.94261 
L 379.658649 104.094516 
L 380.304112 125.010997 
L 380.949575 84.408416 
L 381.595037 105.324897 
L 382.2405 77.026129 
L 382.885962 110.246422 
L 383.531425 115.167947 
L 384.176888 123.780616 
L 384.82235 100.403372 
L 385.467813 101.633754 
L 386.113275 99.172991 
L 386.758738 112.707185 
L 388.049663 86.869179 
L 388.695126 68.41346 
L 389.340589 88.09956 
L 389.986051 84.408416 
L 390.631514 113.937566 
L 391.276976 96.712229 
L 391.922439 94.251466 
L 392.567902 121.319853 
L 393.213364 69.643842 
L 393.858827 105.324897 
L 394.50429 96.712229 
L 395.149752 81.947654 
L 395.795215 131.162903 
L 396.440677 94.251466 
L 397.731603 109.016041 
L 398.377065 125.010997 
L 399.022528 129.932522 
L 399.66799 107.78566 
L 400.313453 131.162903 
L 400.958916 149.618622 
L 401.604378 109.016041 
L 402.249841 142.236334 
L 402.895304 121.319853 
L 403.540766 112.707185 
L 404.186229 110.246422 
L 404.831691 116.398328 
L 405.477154 102.864135 
L 406.122617 85.638798 
L 406.768079 105.324897 
L 407.413542 131.162903 
L 408.059005 88.09956 
L 408.704467 80.717273 
L 409.34993 83.178035 
L 409.995392 88.09956 
L 410.640855 64.722317 
L 411.286318 83.178035 
L 411.93178 125.010997 
L 412.577243 120.089472 
L 413.222705 111.476804 
L 413.868168 93.021085 
L 414.513631 100.403372 
L 415.159093 75.795748 
L 415.804556 105.324897 
L 416.450019 88.09956 
L 417.095481 122.550235 
L 417.740944 128.702141 
L 418.386406 96.712229 
L 419.031869 96.712229 
L 419.677332 120.089472 
L 420.322794 79.486891 
L 420.968257 99.172991 
L 421.61372 110.246422 
L 422.259182 118.859091 
L 422.904645 106.555279 
L 423.550107 86.869179 
L 424.19557 121.319853 
L 424.841033 99.172991 
L 425.486495 91.790704 
L 426.77742 137.314809 
L 427.422883 73.334985 
L 428.713808 122.550235 
L 429.359271 105.324897 
L 430.004734 106.555279 
L 430.650196 89.329941 
L 431.295659 115.167947 
L 431.941121 131.162903 
L 432.586584 111.476804 
L 433.232047 118.859091 
L 433.877509 109.016041 
L 434.522972 104.094516 
L 435.168435 89.329941 
L 435.813897 107.78566 
L 436.45936 121.319853 
L 437.104822 97.94261 
L 437.750285 68.41346 
L 438.395748 91.790704 
L 439.04121 85.638798 
L 439.686673 121.319853 
L 440.332135 123.780616 
L 440.977598 105.324897 
L 441.623061 107.78566 
L 442.268523 80.717273 
L 442.913986 122.550235 
L 443.559449 110.246422 
L 444.204911 79.486891 
L 444.850374 86.869179 
L 445.495836 107.78566 
L 446.141299 104.094516 
L 446.786762 106.555279 
L 447.432224 93.021085 
L 448.72315 128.702141 
L 449.368612 85.638798 
L 450.014075 142.236334 
L 450.659537 80.717273 
L 451.305 69.643842 
L 451.950463 75.795748 
L 452.595925 115.167947 
L 453.241388 105.324897 
L 453.88685 104.094516 
L 454.532313 99.172991 
L 455.177776 132.393284 
L 455.823238 93.021085 
L 456.468701 109.016041 
L 457.114164 99.172991 
L 457.759626 100.403372 
L 458.405089 78.25651 
L 459.050551 106.555279 
L 459.696014 117.62871 
L 460.341477 125.010997 
L 460.986939 120.089472 
L 461.632402 147.157859 
L 462.277865 72.104604 
L 462.923327 141.005953 
L 463.56879 88.09956 
L 464.214252 74.565367 
L 465.505178 115.167947 
L 466.15064 91.790704 
L 466.796103 134.854047 
L 467.441565 80.717273 
L 468.087028 86.869179 
L 468.732491 116.398328 
L 469.377953 120.089472 
L 470.023416 109.016041 
L 470.668879 111.476804 
L 471.314341 74.565367 
L 471.959804 68.41346 
L 472.605266 120.089472 
L 473.250729 78.25651 
L 473.896192 102.864135 
L 474.541654 85.638798 
L 475.187117 121.319853 
L 475.83258 110.246422 
L 476.478042 78.25651 
L 477.123505 123.780616 
L 477.768967 107.78566 
L 478.41443 96.712229 
L 479.059893 100.403372 
L 479.705355 96.712229 
L 480.350818 78.25651 
L 480.99628 122.550235 
L 482.287206 97.94261 
L 482.932668 99.172991 
L 483.578131 96.712229 
L 484.223594 88.09956 
L 484.869056 86.869179 
L 485.514519 118.859091 
L 486.159981 88.09956 
L 486.805444 126.241378 
L 487.450907 118.859091 
L 488.096369 100.403372 
L 488.741832 115.167947 
L 489.387295 105.324897 
L 490.032757 110.246422 
L 490.67822 61.031173 
L 491.323682 73.334985 
L 491.969145 56.109648 
L 492.614608 113.937566 
L 493.26007 88.09956 
L 493.905533 122.550235 
L 494.550995 85.638798 
L 495.196458 93.021085 
L 495.841921 116.398328 
L 496.487383 116.398328 
L 497.132846 104.094516 
L 497.778309 136.084428 
L 498.423771 93.021085 
L 499.069234 83.178035 
L 499.714696 121.319853 
L 500.360159 93.021085 
L 501.005622 84.408416 
L 501.651084 109.016041 
L 502.296547 95.481848 
L 502.94201 138.545191 
L 503.587472 94.251466 
L 504.232935 132.393284 
L 504.878397 89.329941 
L 505.52386 142.236334 
L 506.169323 81.947654 
L 506.814785 94.251466 
L 507.460248 116.398328 
L 508.10571 83.178035 
L 508.751173 70.874223 
L 509.396636 85.638798 
L 510.042098 113.937566 
L 510.687561 120.089472 
L 511.333024 122.550235 
L 511.978486 106.555279 
L 512.623949 59.800792 
L 513.269411 77.026129 
L 513.914874 80.717273 
L 514.560337 113.937566 
L 515.205799 85.638798 
L 515.851262 96.712229 
L 516.496725 93.021085 
L 517.142187 83.178035 
L 517.78765 97.94261 
L 518.433112 99.172991 
L 519.078575 99.172991 
L 519.724038 109.016041 
L 520.3695 125.010997 
L 521.014963 77.026129 
L 521.660425 79.486891 
L 522.305888 110.246422 
L 522.951351 106.555279 
L 523.596813 107.78566 
L 524.242276 59.800792 
L 524.887739 105.324897 
L 525.533201 113.937566 
L 526.178664 148.38824 
L 526.824126 61.031173 
L 527.469589 75.795748 
L 528.115052 120.089472 
L 528.760514 125.010997 
L 529.405977 122.550235 
L 530.05144 132.393284 
L 530.696902 68.41346 
L 531.342365 102.864135 
L 531.987827 104.094516 
L 532.63329 75.795748 
L 533.278753 96.712229 
L 533.924215 97.94261 
L 534.569678 118.859091 
L 535.21514 102.864135 
L 535.860603 78.25651 
L 536.506066 88.09956 
L 537.151528 100.403372 
L 537.796991 101.633754 
L 538.442454 89.329941 
L 539.087916 91.790704 
L 539.733379 125.010997 
L 540.378841 102.864135 
L 541.024304 91.790704 
L 541.669767 90.560323 
L 542.315229 99.172991 
L 542.960692 100.403372 
L 543.606155 106.555279 
L 544.251617 105.324897 
L 544.89708 121.319853 
L 545.542542 93.021085 
L 546.188005 99.172991 
L 546.833468 93.021085 
L 547.47893 113.937566 
L 548.124393 125.010997 
L 548.769855 109.016041 
L 549.415318 101.633754 
L 550.060781 99.172991 
L 550.706243 100.403372 
L 551.351706 116.398328 
L 551.997169 125.010997 
L 552.642631 118.859091 
L 553.288094 113.937566 
L 553.933556 104.094516 
L 554.579019 106.555279 
L 555.224482 74.565367 
L 555.869944 113.937566 
L 556.515407 81.947654 
L 557.16087 75.795748 
L 557.806332 123.780616 
L 558.451795 88.09956 
L 559.097257 107.78566 
L 559.74272 139.775572 
L 560.388183 107.78566 
L 561.033645 128.702141 
L 561.679108 115.167947 
L 562.32457 116.398328 
L 562.970033 100.403372 
L 564.260958 84.408416 
L 564.906421 100.403372 
L 565.551884 101.633754 
L 566.197346 105.324897 
L 566.842809 89.329941 
L 567.488271 109.016041 
L 568.133734 99.172991 
L 568.779197 116.398328 
L 569.424659 100.403372 
L 570.070122 116.398328 
L 570.715585 84.408416 
L 571.361047 112.707185 
L 572.00651 80.717273 
L 572.651972 110.246422 
L 573.297435 118.859091 
L 574.58836 111.476804 
L 575.233823 106.555279 
L 575.879285 90.560323 
L 576.524748 116.398328 
L 577.170211 95.481848 
L 577.815673 112.707185 
L 578.461136 110.246422 
L 579.106599 102.864135 
L 579.752061 84.408416 
L 580.397524 85.638798 
L 581.042986 85.638798 
L 581.688449 91.790704 
L 582.333912 94.251466 
L 582.979374 93.021085 
L 583.624837 88.09956 
L 584.2703 93.021085 
L 584.915762 109.016041 
L 585.561225 86.869179 
L 586.206687 127.47176 
L 586.85215 134.854047 
L 587.497613 104.094516 
L 588.143075 143.466716 
L 588.788538 96.712229 
L 589.434 110.246422 
L 590.079463 106.555279 
L 590.724926 81.947654 
L 591.370388 96.712229 
L 592.015851 79.486891 
L 592.661314 72.104604 
L 593.306776 93.021085 
L 593.952239 97.94261 
L 594.597701 93.021085 
L 595.243164 90.560323 
L 595.888627 97.94261 
L 596.534089 112.707185 
L 597.179552 84.408416 
L 597.825015 111.476804 
L 598.470477 100.403372 
L 599.11594 74.565367 
L 599.761402 107.78566 
L 600.406865 97.94261 
L 601.052328 97.94261 
L 601.69779 79.486891 
L 602.343253 127.47176 
L 602.988715 97.94261 
L 603.634178 78.25651 
L 604.279641 115.167947 
L 604.925103 102.864135 
L 605.570566 104.094516 
L 606.861491 122.550235 
L 607.506954 68.41346 
L 608.152416 110.246422 
L 608.797879 100.403372 
L 609.443342 81.947654 
L 610.088804 104.094516 
L 610.734267 111.476804 
L 611.37973 105.324897 
L 612.025192 90.560323 
L 612.670655 136.084428 
L 613.316117 105.324897 
L 613.96158 116.398328 
L 614.607043 120.089472 
L 615.252505 102.864135 
L 615.897968 59.800792 
L 616.54343 90.560323 
L 617.188893 97.94261 
L 617.834356 102.864135 
L 618.479818 102.864135 
L 619.125281 89.329941 
L 619.770744 97.94261 
L 620.416206 93.021085 
L 621.061669 137.314809 
L 621.707131 101.633754 
L 622.352594 110.246422 
L 622.998057 61.031173 
L 623.643519 133.623666 
L 624.288982 99.172991 
L 624.934445 70.874223 
L 625.579907 123.780616 
L 626.22537 102.864135 
L 626.870832 90.560323 
L 627.516295 110.246422 
L 628.161758 90.560323 
L 628.80722 94.251466 
L 629.452683 88.09956 
L 630.098145 128.702141 
L 630.743608 86.869179 
L 631.389071 168.07434 
L 631.389071 168.07434 
" clip-path="url(#p44149fd417)" style="fill: none; stroke: #4472c4; stroke-width: 1.5; stroke-linecap: round"/>
   </g>
   <g id="line2d_21">
    <path d="M 631.389071 233.284545 
L 632.034533 86.869179 
L 632.679996 107.78566 
L 633.325459 105.324897 
L 633.970921 99.172991 
L 634.616384 90.560323 
L 635.261846 104.094516 
L 635.907309 109.016041 
L 636.552772 78.25651 
L 637.198234 89.329941 
L 637.843697 65.952698 
L 638.48916 117.62871 
L 639.134622 117.62871 
L 639.780085 78.25651 
L 640.425547 102.864135 
L 641.07101 89.329941 
L 641.716473 113.937566 
L 642.361935 80.717273 
L 643.007398 105.324897 
L 643.65286 120.089472 
L 644.298323 113.937566 
L 644.943786 101.633754 
L 645.589248 96.712229 
L 646.234711 63.491935 
L 647.525636 131.162903 
L 648.171099 117.62871 
L 648.816561 110.246422 
L 649.462024 116.398328 
L 650.107487 123.780616 
L 650.752949 51.188123 
L 651.398412 121.319853 
L 652.689337 83.178035 
L 653.3348 116.398328 
L 653.980262 116.398328 
L 654.625725 152.079384 
L 655.271188 94.251466 
L 655.91665 61.031173 
L 656.562113 116.398328 
L 657.207575 75.795748 
L 657.853038 89.329941 
L 658.498501 94.251466 
L 659.143963 121.319853 
L 659.789426 120.089472 
L 660.434889 125.010997 
L 661.080351 122.550235 
L 661.725814 117.62871 
L 662.371276 125.010997 
L 663.016739 118.859091 
L 663.662202 80.717273 
L 664.307664 112.707185 
L 664.953127 80.717273 
L 666.244052 148.38824 
L 666.889515 120.089472 
L 667.534977 111.476804 
L 668.18044 142.236334 
L 668.825903 109.016041 
L 669.471365 128.702141 
L 670.116828 95.481848 
L 670.76229 94.251466 
L 671.407753 73.334985 
L 672.053216 99.172991 
L 672.698678 107.78566 
L 673.344141 100.403372 
L 673.989604 96.712229 
L 674.635066 138.545191 
L 675.280529 117.62871 
L 675.925991 126.241378 
L 676.571454 110.246422 
L 677.216917 42.575455 
L 677.862379 88.09956 
L 678.507842 112.707185 
L 679.153305 83.178035 
L 679.798767 93.021085 
L 680.44423 80.717273 
L 681.089692 129.932522 
L 681.735155 118.859091 
L 682.380618 134.854047 
L 683.02608 63.491935 
L 683.671543 105.324897 
L 684.317005 105.324897 
L 684.962468 131.162903 
L 685.607931 99.172991 
L 686.253393 122.550235 
L 686.898856 104.094516 
L 687.544319 96.712229 
L 688.189781 112.707185 
L 688.835244 89.329941 
L 689.480706 96.712229 
L 690.126169 69.643842 
L 690.771632 96.712229 
L 691.417094 101.633754 
L 692.062557 99.172991 
L 692.70802 126.241378 
L 693.353482 133.623666 
L 693.998945 86.869179 
L 694.644407 115.167947 
L 695.28987 106.555279 
L 695.935333 111.476804 
L 696.580795 95.481848 
L 697.226258 101.633754 
L 697.87172 104.094516 
L 698.517183 89.329941 
L 699.162646 86.869179 
L 699.808108 132.393284 
L 700.453571 129.932522 
L 701.099034 111.476804 
L 701.744496 97.94261 
L 702.389959 99.172991 
L 703.035421 81.947654 
L 703.680884 123.780616 
L 704.326347 90.560323 
L 704.971809 110.246422 
L 705.617272 111.476804 
L 706.262735 107.78566 
L 706.908197 91.790704 
L 708.199122 117.62871 
L 708.844585 101.633754 
L 709.490048 75.795748 
L 710.13551 89.329941 
L 710.780973 84.408416 
L 711.426435 86.869179 
L 712.071898 137.314809 
L 712.717361 73.334985 
L 713.362823 107.78566 
L 714.008286 115.167947 
L 714.653749 118.859091 
L 715.299211 91.790704 
L 715.944674 113.937566 
L 716.590136 91.790704 
L 717.235599 100.403372 
L 717.881062 88.09956 
L 718.526524 112.707185 
L 719.171987 94.251466 
L 719.81745 110.246422 
L 720.462912 133.623666 
L 721.108375 106.555279 
L 721.753837 97.94261 
L 722.3993 84.408416 
L 723.044763 79.486891 
L 723.690225 79.486891 
L 724.335688 91.790704 
L 725.626613 110.246422 
L 726.272076 104.094516 
L 726.917538 95.481848 
L 727.563001 121.319853 
L 728.208464 105.324897 
L 728.853926 83.178035 
L 729.499389 90.560323 
L 730.144851 122.550235 
L 730.790314 110.246422 
L 731.435777 95.481848 
L 732.081239 93.021085 
L 732.726702 68.41346 
L 733.372165 141.005953 
L 734.017627 109.016041 
L 734.66309 96.712229 
L 735.308552 94.251466 
L 735.954015 110.246422 
L 736.599478 185.299677 
L 737.24494 229.593402 
L 737.890403 228.363021 
L 738.535865 229.593402 
L 739.181328 228.363021 
L 739.826791 229.593402 
L 740.472253 228.363021 
L 741.117716 229.593402 
L 741.763179 228.363021 
L 742.408641 229.593402 
L 743.054104 228.363021 
L 743.699566 229.593402 
L 744.345029 228.363021 
L 744.990492 229.593402 
L 745.635954 228.363021 
L 746.281417 229.593402 
L 746.92688 228.363021 
L 747.572342 229.593402 
L 748.217805 228.363021 
L 748.863267 229.593402 
L 749.50873 228.363021 
L 750.154193 229.593402 
L 750.799655 228.363021 
L 751.445118 229.593402 
L 752.09058 228.363021 
L 752.736043 229.593402 
L 753.381506 228.363021 
L 754.026968 229.593402 
L 754.672431 228.363021 
L 755.317894 229.593402 
L 755.963356 228.363021 
L 756.608819 229.593402 
L 757.254281 228.363021 
L 757.899744 229.593402 
L 758.545207 228.363021 
L 759.190669 229.593402 
L 759.836132 228.363021 
L 760.481595 229.593402 
L 761.127057 228.363021 
L 761.77252 229.593402 
L 762.417982 228.363021 
L 763.063445 229.593402 
L 763.708908 228.363021 
L 764.35437 229.593402 
L 764.999833 228.363021 
L 765.645295 229.593402 
L 766.290758 228.363021 
L 766.936221 229.593402 
L 767.581683 228.363021 
L 768.227146 229.593402 
L 768.872609 228.363021 
L 769.518071 229.593402 
L 770.163534 228.363021 
L 770.808996 229.593402 
L 771.454459 228.363021 
L 772.099922 229.593402 
L 772.745384 228.363021 
L 773.390847 229.593402 
L 774.03631 228.363021 
L 774.681772 229.593402 
L 775.327235 228.363021 
L 775.972697 229.593402 
L 776.61816 228.363021 
L 777.263623 229.593402 
L 777.909085 228.363021 
L 778.554548 229.593402 
L 779.20001 228.363021 
L 779.845473 229.593402 
L 780.490936 228.363021 
L 781.136398 229.593402 
L 781.781861 228.363021 
L 782.427324 229.593402 
L 783.072786 228.363021 
L 783.718249 229.593402 
L 784.363711 228.363021 
L 785.009174 229.593402 
L 785.654637 228.363021 
L 786.300099 229.593402 
L 786.945562 228.363021 
L 787.591025 229.593402 
L 788.236487 228.363021 
L 788.88195 229.593402 
L 789.527412 228.363021 
L 790.172875 229.593402 
L 790.818338 228.363021 
L 791.4638 229.593402 
L 792.109263 228.363021 
L 792.754725 229.593402 
L 793.400188 228.363021 
L 794.045651 229.593402 
L 794.691113 228.363021 
L 795.336576 229.593402 
L 795.982039 228.363021 
L 796.627501 229.593402 
L 797.272964 228.363021 
L 797.918426 229.593402 
L 798.563889 228.363021 
L 799.209352 229.593402 
L 799.854814 228.363021 
L 800.500277 229.593402 
L 801.14574 228.363021 
L 801.791202 229.593402 
L 802.436665 228.363021 
L 803.082127 229.593402 
L 803.72759 228.363021 
L 804.373053 229.593402 
L 805.018515 228.363021 
L 805.663978 229.593402 
L 806.30944 228.363021 
L 806.954903 229.593402 
L 807.600366 228.363021 
L 808.245828 229.593402 
L 808.891291 228.363021 
L 809.536754 229.593402 
L 810.182216 228.363021 
L 810.827679 229.593402 
L 811.473141 228.363021 
L 812.118604 229.593402 
L 812.764067 228.363021 
L 813.409529 229.593402 
L 814.054992 228.363021 
L 814.700455 229.593402 
L 814.700455 229.593402 
" clip-path="url(#p44149fd417)" style="fill: none; stroke: #ff7f0e; stroke-width: 1.5; stroke-linecap: round"/>
   </g>
   <g id="patch_3">
    <path d="M 51.57 242.82 
L 51.57 33.04 
" style="fill: none; stroke: #cccccc; stroke-width: 1.25; stroke-linejoin: miter; stroke-linecap: square"/>
   </g>
   <g id="patch_4">
    <path d="M 851.04 242.82 
L 851.04 33.04 
" style="fill: none; stroke: #cccccc; stroke-width: 1.25; stroke-linejoin: miter; stroke-linecap: square"/>
   </g>
   <g id="patch_5">
    <path d="M 51.57 242.82 
L 851.04 242.82 
" style="fill: none; stroke: #cccccc; stroke-width: 1.25; stroke-linejoin: miter; stroke-linecap: square"/>
   </g>
   <g id="patch_6">
    <path d="M 51.57 33.04 
L 851.04 33.04 
" style="fill: none; stroke: #cccccc; stroke-width: 1.25; stroke-linejoin: miter; stroke-linecap: square"/>
   </g>
   <g id="text_22">
    <!-- Orders over time (daily counts) -->
    <g style="fill: #262626" transform="translate(362.45 23.04) scale(0.13 -0.13)">
     <defs>
      <path id="ArialMT-4f" d="M 309 2231 
Q 309 3372 921 4017 
Q 1534 4663 2503 4663 
Q 3138 4663 3647 4359 
Q 4156 4056 4423 3514 
Q 4691 2972 4691 2284 
Q 4691 1588 4409 1038 
Q 4128 488 3612 205 
Q 3097 -78 2500 -78 
Q 1853 -78 1343 234 
Q 834 547 571 1087 
Q 309 1628 309 2231 
z
M 934 2222 
Q 934 1394 1379 917 
Q 1825 441 2497 441 
Q 3181 441 3623 922 
Q 4066 1403 4066 2288 
Q 4066 2847 3877 3264 
Q 3688 3681 3323 3911 
Q 2959 4141 2506 4141 
Q 1863 4141 1398 3698 
Q 934 3256 934 2222 
z
" transform="scale(0.015625)"/>
      <path id="ArialMT-72" d="M 416 0 
L 416 3319 
L 922 3319 
L 922 2816 
Q 1116 3169 1280 3281 
Q 1444 3394 1641 3394 
Q 1925 3394 2219 3213 
L 2025 2691 
Q 1819 2813 1613 2813 
Q 1428 2813 1281 2702 
Q 1134 2591 1072 2394 
Q 978 2094 978 1738 
L 978 0 
L 416 0 
z
" transform="scale(0.015625)"/>
      <path id="ArialMT-64" d="M 2575 0 
L 2575 419 
Q 2259 -75 1647 -75 
Q 1250 -75 917 144 
Q 584 363 401 755 
Q 219 1147 219 1656 
Q 219 2153 384 2558 
Q 550 2963 881 3178 
Q 1213 3394 1622 3394 
Q 1922 3394 2156 3267 
Q 2391 3141 2538 2938 
L 2538 4581 
L 3097 4581 
L 3097 0 
L 2575 0 
z
M 797 1656 
Q 797 1019 1065 703 
Q 1334 388 1700 388 
Q 2069 388 2326 689 
Q 2584 991 2584 1609 
Q 2584 2291 2321 2609 
Q 2059 2928 1675 2928 
Q 1300 2928 1048 2622 
Q 797 2316 797 1656 
z
" transform="scale(0.015625)"/>
      <path id="ArialMT-73" d="M 197 991 
L 753 1078 
Q 800 744 1014 566 
Q 1228 388 1613 388 
Q 2000 388 2187 545 
Q 2375 703 2375 916 
Q 2375 1106 2209 1216 
Q 2094 1291 1634 1406 
Q 1016 1563 777 1677 
Q 538 1791 414 1992 
Q 291 2194 291 2438 
Q 291 2659 392 2848 
Q 494 3038 669 3163 
Q 800 3259 1026 3326 
Q 1253 3394 1513 3394 
Q 1903 3394 2198 3281 
Q 2494 3169 2634 2976 
Q 2775 2784 2828 2463 
L 2278 2388 
Q 2241 2644 2061 2787 
Q 1881 2931 1553 2931 
Q 1166 2931 1000 2803 
Q 834 2675 834 2503 
Q 834 2394 903 2306 
Q 972 2216 1119 2156 
Q 1203 2125 1616 2013 
Q 2213 1853 2448 1751 
Q 2684 1650 2818 1456 
Q 2953 1263 2953 975 
Q 2953 694 2789 445 
Q 2625 197 2315 61 
Q 2006 -75 1616 -75 
Q 969 -75 630 194 
Q 291 463 197 991 
z
" transform="scale(0.015625)"/>
      <path id="ArialMT-20" transform="scale(0.015625)"/>
      <path id="ArialMT-76" d="M 1344 0 
L 81 3319 
L 675 3319 
L 1388 1331 
Q 1503 1009 1600 663 
Q 1675 925 1809 1294 
L 2547 3319 
L 3125 3319 
L 1869 0 
L 1344 0 
z
" transform="scale(0.015625)"/>
      <path id="ArialMT-69" d="M 425 3934 
L 425 4581 
L 988 4581 
L 988 3934 
L 425 3934 
z
M 425 0 
L 425 3319 
L 988 3319 
L 988 0 
L 425 0 
z
" transform="scale(0.015625)"/>
      <path id="ArialMT-6d" d="M 422 0 
L 422 3319 
L 925 3319 
L 925 2853 
Q 1081 3097 1340 3245 
Q 1600 3394 1931 3394 
Q 2300 3394 2536 3241 
Q 2772 3088 2869 2813 
Q 3263 3394 3894 3394 
Q 4388 3394 4653 3120 
Q 4919 2847 4919 2278 
L 4919 0 
L 4359 0 
L 4359 2091 
Q 4359 2428 4304 2576 
Q 4250 2725 4106 2815 
Q 3963 2906 3769 2906 
Q 3419 2906 3187 2673 
Q 2956 2441 2956 1928 
L 2956 0 
L 2394 0 
L 2394 2156 
Q 2394 2531 2256 2718 
Q 2119 2906 1806 2906 
Q 1569 2906 1367 2781 
Q 1166 2656 1075 2415 
Q 984 2175 984 1722 
L 984 0 
L 422 0 
z
" transform="scale(0.015625)"/>
      <path id="ArialMT-28" d="M 1497 -1347 
Q 1031 -759 709 28 
Q 388 816 388 1659 
Q 388 2403 628 3084 
Q 909 3875 1497 4659 
L 1900 4659 
Q 1522 4009 1400 3731 
Q 1209 3300 1100 2831 
Q 966 2247 966 1656 
Q 966 153 1900 -1347 
L 1497 -1347 
z
" transform="scale(0.015625)"/>
      <path id="ArialMT-6c" d="M 409 0 
L 409 4581 
L 972 4581 
L 972 0 
L 409 0 
z
" transform="scale(0.015625)"/>
      <path id="ArialMT-79" d="M 397 -1278 
L 334 -750 
Q 519 -800 656 -800 
Q 844 -800 956 -737 
Q 1069 -675 1141 -563 
Q 1194 -478 1313 -144 
Q 1328 -97 1363 -6 
L 103 3319 
L 709 3319 
L 1400 1397 
Q 1534 1031 1641 628 
Q 1738 1016 1872 1384 
L 2581 3319 
L 3144 3319 
L 1881 -56 
Q 1678 -603 1566 -809 
Q 1416 -1088 1222 -1217 
Q 1028 -1347 759 -1347 
Q 597 -1347 397 -1278 
z
" transform="scale(0.015625)"/>
      <path id="ArialMT-63" d="M 2588 1216 
L 3141 1144 
Q 3050 572 2676 248 
Q 2303 -75 1759 -75 
Q 1078 -75 664 370 
Q 250 816 250 1647 
Q 250 2184 428 2587 
Q 606 2991 970 3192 
Q 1334 3394 1763 3394 
Q 2303 3394 2647 3120 
Q 2991 2847 3088 2344 
L 2541 2259 
Q 2463 2594 2264 2762 
Q 2066 2931 1784 2931 
Q 1359 2931 1093 2626 
Q 828 2322 828 1663 
Q 828 994 1084 691 
Q 1341 388 1753 388 
Q 2084 388 2306 591 
Q 2528 794 2588 1216 
z
" transform="scale(0.015625)"/>
      <path id="ArialMT-29" d="M 791 -1347 
L 388 -1347 
Q 1322 153 1322 1656 
Q 1322 2244 1188 2822 
Q 1081 3291 891 3722 
Q 769 4003 388 4659 
L 791 4659 
Q 1378 3875 1659 3084 
Q 1900 2403 1900 1659 
Q 1900 816 1576 28 
Q 1253 -759 791 -1347 
z
" transform="scale(0.015625)"/>
     </defs>
     <use xlink:href="#ArialMT-4f"/>
     <use xlink:href="#ArialMT-72" transform="translate(77.783203 0)"/>
     <use xlink:href="#ArialMT-64" transform="translate(111.083984 0)"/>
     <use xlink:href="#ArialMT-65" transform="translate(166.699219 0)"/>
     <use xlink:href="#ArialMT-72" transform="translate(222.314453 0)"/>
     <use xlink:href="#ArialMT-73" transform="translate(255.615234 0)"/>
     <use xlink:href="#ArialMT-20" transform="translate(305.615234 0)"/>
     <use xlink:href="#ArialMT-6f" transform="translate(333.398438 0)"/>
     <use xlink:href="#ArialMT-76" transform="translate(389.013672 0)"/>
     <use xlink:href="#ArialMT-65" transform="translate(439.013672 0)"/>
     <use xlink:href="#ArialMT-72" transform="translate(494.628906 0)"/>
     <use xlink:href="#ArialMT-20" transform="translate(527.929688 0)"/>
     <use xlink:href="#ArialMT-74" transform="translate(555.712891 0)"/>
     <use xlink:href="#ArialMT-69" transform="translate(583.496094 0)"/>
     <use xlink:href="#ArialMT-6d" transform="translate(605.712891 0)"/>
     <use xlink:href="#ArialMT-65" transform="translate(689.013672 0)"/>
     <use xlink:href="#ArialMT-20" transform="translate(744.628906 0)"/>
     <use xlink:href="#ArialMT-28" transform="translate(772.412109 0)"/>
     <use xlink:href="#ArialMT-64" transform="translate(805.712891 0)"/>
     <use xlink:href="#ArialMT-61" transform="translate(861.328125 0)"/>
     <use xlink:href="#ArialMT-69" transform="translate(916.943359 0)"/>
     <use xlink:href="#ArialMT-6c" transform="translate(939.160156 0)"/>
     <use xlink:href="#ArialMT-79" transform="translate(961.376953 0)"/>
     <use xlink:href="#ArialMT-20" transform="translate(1011.376953 0)"/>
     <use xlink:href="#ArialMT-63" transform="translate(1039.160156 0)"/>
     <use xlink:href="#ArialMT-6f" transform="translate(1089.160156 0)"/>
     <use xlink:href="#ArialMT-75" transform="translate(1144.775391 0)"/>
     <use xlink:href="#ArialMT-6e" transform="translate(1200.390625 0)"/>
     <use xlink:href="#ArialMT-74" transform="translate(1256.005859 0)"/>
     <use xlink:href="#ArialMT-73" transform="translate(1283.789062 0)"/>
     <use xlink:href="#ArialMT-29" transform="translate(1333.789062 0)"/>
    </g>
   </g>
   <g id="legend_1">
    <g id="patch_7">
     <path d="M 795.774375 65.701563 
L 844.74 65.701563 
Q 846.54 65.701563 846.54 63.901563 
L 846.54 39.34 
Q 846.54 37.54 844.74 37.54 
L 795.774375 37.54 
Q 793.974375 37.54 793.974375 39.34 
L 793.974375 63.901563 
Q 793.974375 65.701563 795.774375 65.701563 
z
" style="fill: #ffffff; opacity: 0.8; stroke: #cccccc; stroke-linejoin: miter"/>
    </g>
    <g id="line2d_22">
     <path d="M 797.574375 44.432031 
L 806.574375 44.432031 
L 815.574375 44.432031 
" style="fill: none; stroke: #4472c4; stroke-width: 1.5; stroke-linecap: round"/>
    </g>
    <g id="text_23">
     <!-- Train -->
     <g style="fill: #262626" transform="translate(822.774375 47.582031) scale(0.09 -0.09)">
      <defs>
       <path id="ArialMT-54" d="M 1659 0 
L 1659 4041 
L 150 4041 
L 150 4581 
L 3781 4581 
L 3781 4041 
L 2266 4041 
L 2266 0 
L 1659 0 
z
" transform="scale(0.015625)"/>
      </defs>
      <use xlink:href="#ArialMT-54"/>
      <use xlink:href="#ArialMT-72" transform="translate(57.333984 0)"/>
      <use xlink:href="#ArialMT-61" transform="translate(90.634766 0)"/>
      <use xlink:href="#ArialMT-69" transform="translate(146.25 0)"/>
      <use xlink:href="#ArialMT-6e" transform="translate(168.466797 0)"/>
     </g>
    </g>
    <g id="line2d_23">
     <path d="M 797.574375 57.162813 
L 806.574375 57.162813 
L 815.574375 57.162813 
" style="fill: none; stroke: #ff7f0e; stroke-width: 1.5; stroke-linecap: round"/>
    </g>
    <g id="text_24">
     <!-- Test -->
     <g style="fill: #262626" transform="translate(822.774375 60.312813) scale(0.09 -0.09)">
      <use xlink:href="#ArialMT-54"/>
      <use xlink:href="#ArialMT-65" transform="translate(49.958984 0)"/>
      <use xlink:href="#ArialMT-73" transform="translate(105.574219 0)"/>
      <use xlink:href="#ArialMT-74" transform="translate(155.574219 0)"/>
     </g>
    </g>
   </g>
  </g>
 </g>
 <defs>
  <clipPath id="p44149fd417">
   <rect x="51.57" y="33.04" width="799.47" height="209.78"/>
  </clipPath>
 </defs>
</svg>
