<?xml version="1.0" encoding="utf-8" standalone="no"?>
<!DOCTYPE svg PUBLIC "-//W3C//DTD SVG 1.1//EN"
  "http://www.w3.org/Graphics/SVG/1.1/DTD/svg11.dtd">
<svg xmlns:xlink="http://www.w3.org/1999/xlink" width="792pt" height="403.2pt" viewBox="0 0 792 403.2" xmlns="http://www.w3.org/2000/svg" version="1.1">
 <metadata>
  <rdf:RDF xmlns:dc="http://purl.org/dc/elements/1.1/" xmlns:cc="http://creativecommons.org/ns#" xmlns:rdf="http://www.w3.org/1999/02/22-rdf-syntax-ns#">
   <cc:Work>
    <dc:type rdf:resource="http://purl.org/dc/dcmitype/StillImage"/>
    <dc:date>2026-03-13T17:02:52.498026</dc:date>
    <dc:format>image/svg+xml</dc:format>
    <dc:creator>
     <cc:Agent>
      <dc:title>Matplotlib v3.10.0, https://matplotlib.org/</dc:title>
     </cc:Agent>
    </dc:creator>
   </cc:Work>
  </rdf:RDF>
 </metadata>
 <defs>
  <style type="text/css">*{stroke-linejoin: round; stroke-linecap: butt}</style>
 </defs>
 <g id="figure_1">
  <g id="patch_1">
   <path d="M 0 403.2 
L 792 403.2 
L 792 0 
L 0 0 
z
" style="fill: #ffffff"/>
  </g>
  <g id="axes_1">
   <g id="patch_2">
    <path d="M 57.6 181.50975 
L 389.52 181.50975 
L 389.52 62.3395 
L 57.6 62.3395 
z
" style="fill: #ffffff"/>
   </g>
   <g id="matplotlib.axis_1">
    <g id="xtick_1">
     <g id="line2d_1">
      <path d="M 64.957749 181.50975 
L 64.957749 62.3395 
" clip-path="url(#pad17e84bb7)" style="fill: none; stroke-dasharray: 1.85,0.8; stroke-dashoffset: 0; stroke: #cccccc; stroke-opacity: 0.25; stroke-width: 0.5"/>
     </g>
     <g id="text_1">
      <!-- 0 -->
      <g style="fill: #262626" transform="translate(62.733374 196.736) scale(0.08 -0.08)">
       <defs>
        <path id="ArialMT-30" d="M 266 2259 
Q 266 3072 433 3567 
Q 600 4063 929 4331 
Q 1259 4600 1759 4600 
Q 2128 4600 2406 4451 
Q 2684 4303 2865 4023 
Q 3047 3744 3150 3342 
Q 3253 2941 3253 2259 
Q 3253 1453 3087 958 
Q 2922 463 2592 192 
Q 2263 -78 1759 -78 
Q 1097 -78 719 397 
Q 266 969 266 2259 
z
M 844 2259 
Q 844 1131 1108 757 
Q 1372 384 1759 384 
Q 2147 384 2411 759 
Q 2675 1134 2675 2259 
Q 2675 3391 2411 3762 
Q 2147 4134 1753 4134 
Q 1366 4134 1134 3806 
Q 844 3388 844 2259 
z
" transform="scale(0.015625)"/>
       </defs>
       <use xlink:href="#ArialMT-30"/>
      </g>
     </g>
    </g>
    <g id="xtick_2">
     <g id="line2d_2">
      <path d="M 103.644055 181.50975 
L 103.644055 62.3395 
" clip-path="url(#pad17e84bb7)" style="fill: none; stroke-dasharray: 1.85,0.8; stroke-dashoffset: 0; stroke: #cccccc; stroke-opacity: 0.25; stroke-width: 0.5"/>
     </g>
     <g id="text_2">
      <!-- 50 -->
      <g style="fill: #262626" transform="translate(99.195305 196.736) scale(0.08 -0.08)">
       <defs>
        <path id="ArialMT-35" d="M 266 1200 
L 856 1250 
Q 922 819 1161 601 
Q 1400 384 1738 384 
Q 2144 384 2425 690 
Q 2706 997 2706 1503 
Q 2706 1984 2436 2262 
Q 2166 2541 1728 2541 
Q 1456 2541 1237 2417 
Q 1019 2294 894 2097 
L 366 2166 
L 809 4519 
L 3088 4519 
L 3088 3981 
L 1259 3981 
L 1013 2750 
Q 1425 3038 1878 3038 
Q 2478 3038 2890 2622 
Q 3303 2206 3303 1553 
Q 3303 931 2941 478 
Q 2500 -78 1738 -78 
Q 1113 -78 717 272 
Q 322 622 266 1200 
z
" transform="scale(0.015625)"/>
       </defs>
       <use xlink:href="#ArialMT-35"/>
       <use xlink:href="#ArialMT-30" transform="translate(55.615234 0)"/>
      </g>
     </g>
    </g>
    <g id="xtick_3">
     <g id="line2d_3">
      <path d="M 142.33036 181.50975 
L 142.33036 62.3395 
" clip-path="url(#pad17e84bb7)" style="fill: none; stroke-dasharray: 1.85,0.8; stroke-dashoffset: 0; stroke: #cccccc; stroke-opacity: 0.25; stroke-width: 0.5"/>
     </g>
     <g id="text_3">
      <!-- 100 -->
      <g style="fill: #262626" transform="translate(135.657235 196.736) scale(0.08 -0.08)">
       <defs>
        <path id="ArialMT-31" d="M 2384 0 
L 1822 0 
L 1822 3584 
Q 1619 3391 1289 3197 
Q 959 3003 697 2906 
L 697 3450 
Q 1169 3672 1522 3987 
Q 1875 4303 2022 4600 
L 2384 4600 
L 2384 0 
z
" transform="scale(0.015625)"/>
       </defs>
       <use xlink:href="#ArialMT-31"/>
       <use xlink:href="#ArialMT-30" transform="translate(55.615234 0)"/>
       <use xlink:href="#ArialMT-30" transform="translate(111.230469 0)"/>
      </g>
     </g>
    </g>
    <g id="xtick_4">
     <g id="line2d_4">
      <path d="M 181.016666 181.50975 
L 181.016666 62.3395 
" clip-path="url(#pad17e84bb7)" style="fill: none; stroke-dasharray: 1.85,0.8; stroke-dashoffset: 0; stroke: #cccccc; stroke-opacity: 0.25; stroke-width: 0.5"/>
     </g>
     <g id="text_4">
      <!-- 150 -->
      <g style="fill: #262626" transform="translate(174.343541 196.736) scale(0.08 -0.08)">
       <use xlink:href="#ArialMT-31"/>
       <use xlink:href="#ArialMT-35" transform="translate(55.615234 0)"/>
       <use xlink:href="#ArialMT-30" transform="translate(111.230469 0)"/>
      </g>
     </g>
    </g>
    <g id="xtick_5">
     <g id="line2d_5">
      <path d="M 219.702971 181.50975 
L 219.702971 62.3395 
" clip-path="url(#pad17e84bb7)" style="fill: none; stroke-dasharray: 1.85,0.8; stroke-dashoffset: 0; stroke: #cccccc; stroke-opacity: 0.25; stroke-width: 0.5"/>
     </g>
     <g id="text_5">
      <!-- 200 -->
      <g style="fill: #262626" transform="translate(213.029846 196.736) scale(0.08 -0.08)">
       <defs>
        <path id="ArialMT-32" d="M 3222 541 
L 3222 0 
L 194 0 
Q 188 203 259 391 
Q 375 700 629 1000 
Q 884 1300 1366 1694 
Q 2113 2306 2375 2664 
Q 2638 3022 2638 3341 
Q 2638 3675 2398 3904 
Q 2159 4134 1775 4134 
Q 1369 4134 1125 3890 
Q 881 3647 878 3216 
L 300 3275 
Q 359 3922 746 4261 
Q 1134 4600 1788 4600 
Q 2447 4600 2831 4234 
Q 3216 3869 3216 3328 
Q 3216 3053 3103 2787 
Q 2991 2522 2730 2228 
Q 2469 1934 1863 1422 
Q 1356 997 1212 845 
Q 1069 694 975 541 
L 3222 541 
z
" transform="scale(0.015625)"/>
       </defs>
       <use xlink:href="#ArialMT-32"/>
       <use xlink:href="#ArialMT-30" transform="translate(55.615234 0)"/>
       <use xlink:href="#ArialMT-30" transform="translate(111.230469 0)"/>
      </g>
     </g>
    </g>
    <g id="xtick_6">
     <g id="line2d_6">
      <path d="M 258.389277 181.50975 
L 258.389277 62.3395 
" clip-path="url(#pad17e84bb7)" style="fill: none; stroke-dasharray: 1.85,0.8; stroke-dashoffset: 0; stroke: #cccccc; stroke-opacity: 0.25; stroke-width: 0.5"/>
     </g>
     <g id="text_6">
      <!-- 250 -->
      <g style="fill: #262626" transform="translate(251.716152 196.736) scale(0.08 -0.08)">
       <use xlink:href="#ArialMT-32"/>
       <use xlink:href="#ArialMT-35" transform="translate(55.615234 0)"/>
       <use xlink:href="#ArialMT-30" transform="translate(111.230469 0)"/>
      </g>
     </g>
    </g>
    <g id="xtick_7">
     <g id="line2d_7">
      <path d="M 297.075582 181.50975 
L 297.075582 62.3395 
" clip-path="url(#pad17e84bb7)" style="fill: none; stroke-dasharray: 1.85,0.8; stroke-dashoffset: 0; stroke: #cccccc; stroke-opacity: 0.25; stroke-width: 0.5"/>
     </g>
     <g id="text_7">
      <!-- 300 -->
      <g style="fill: #262626" transform="translate(290.402457 196.736) scale(0.08 -0.08)">
       <defs>
        <path id="ArialMT-33" d="M 269 1209 
L 831 1284 
Q 928 806 1161 595 
Q 1394 384 1728 384 
Q 2125 384 2398 659 
Q 2672 934 2672 1341 
Q 2672 1728 2419 1979 
Q 2166 2231 1775 2231 
Q 1616 2231 1378 2169 
L 1441 2663 
Q 1497 2656 1531 2656 
Q 1891 2656 2178 2843 
Q 2466 3031 2466 3422 
Q 2466 3731 2256 3934 
Q 2047 4138 1716 4138 
Q 1388 4138 1169 3931 
Q 950 3725 888 3313 
L 325 3413 
Q 428 3978 793 4289 
Q 1159 4600 1703 4600 
Q 2078 4600 2393 4439 
Q 2709 4278 2876 4000 
Q 3044 3722 3044 3409 
Q 3044 3113 2884 2869 
Q 2725 2625 2413 2481 
Q 2819 2388 3044 2092 
Q 3269 1797 3269 1353 
Q 3269 753 2831 336 
Q 2394 -81 1725 -81 
Q 1122 -81 723 278 
Q 325 638 269 1209 
z
" transform="scale(0.015625)"/>
       </defs>
       <use xlink:href="#ArialMT-33"/>
       <use xlink:href="#ArialMT-30" transform="translate(55.615234 0)"/>
       <use xlink:href="#ArialMT-30" transform="translate(111.230469 0)"/>
      </g>
     </g>
    </g>
    <g id="xtick_8">
     <g id="line2d_8">
      <path d="M 335.761888 181.50975 
L 335.761888 62.3395 
" clip-path="url(#pad17e84bb7)" style="fill: none; stroke-dasharray: 1.85,0.8; stroke-dashoffset: 0; stroke: #cccccc; stroke-opacity: 0.25; stroke-width: 0.5"/>
     </g>
     <g id="text_8">
      <!-- 350 -->
      <g style="fill: #262626" transform="translate(329.088763 196.736) scale(0.08 -0.08)">
       <use xlink:href="#ArialMT-33"/>
       <use xlink:href="#ArialMT-35" transform="translate(55.615234 0)"/>
       <use xlink:href="#ArialMT-30" transform="translate(111.230469 0)"/>
      </g>
     </g>
    </g>
    <g id="xtick_9">
     <g id="line2d_9">
      <path d="M 374.448193 181.50975 
L 374.448193 62.3395 
" clip-path="url(#pad17e84bb7)" style="fill: none; stroke-dasharray: 1.85,0.8; stroke-dashoffset: 0; stroke: #cccccc; stroke-opacity: 0.25; stroke-width: 0.5"/>
     </g>
     <g id="text_9">
      <!-- 400 -->
      <g style="fill: #262626" transform="translate(367.775068 196.736) scale(0.08 -0.08)">
       <defs>
        <path id="ArialMT-34" d="M 2069 0 
L 2069 1097 
L 81 1097 
L 81 1613 
L 2172 4581 
L 2631 4581 
L 2631 1613 
L 3250 1613 
L 3250 1097 
L 2631 1097 
L 2631 0 
L 2069 0 
z
M 2069 1613 
L 2069 3678 
L 634 1613 
L 2069 1613 
z
" transform="scale(0.015625)"/>
       </defs>
       <use xlink:href="#ArialMT-34"/>
       <use xlink:href="#ArialMT-30" transform="translate(55.615234 0)"/>
       <use xlink:href="#ArialMT-30" transform="translate(111.230469 0)"/>
      </g>
     </g>
    </g>
    <g id="text_10">
     <!-- Value -->
     <g style="fill: #262626" transform="translate(212.383125 208.768031) scale(0.09 -0.09)">
      <defs>
       <path id="ArialMT-56" d="M 1803 0 
L 28 4581 
L 684 4581 
L 1875 1253 
Q 2019 853 2116 503 
Q 2222 878 2363 1253 
L 3600 4581 
L 4219 4581 
L 2425 0 
L 1803 0 
z
" transform="scale(0.015625)"/>
       <path id="ArialMT-61" d="M 2588 409 
Q 2275 144 1986 34 
Q 1697 -75 1366 -75 
Q 819 -75 525 192 
Q 231 459 231 875 
Q 231 1119 342 1320 
Q 453 1522 633 1644 
Q 813 1766 1038 1828 
Q 1203 1872 1538 1913 
Q 2219 1994 2541 2106 
Q 2544 2222 2544 2253 
Q 2544 2597 2384 2738 
Q 2169 2928 1744 2928 
Q 1347 2928 1158 2789 
Q 969 2650 878 2297 
L 328 2372 
Q 403 2725 575 2942 
Q 747 3159 1072 3276 
Q 1397 3394 1825 3394 
Q 2250 3394 2515 3294 
Q 2781 3194 2906 3042 
Q 3031 2891 3081 2659 
Q 3109 2516 3109 2141 
L 3109 1391 
Q 3109 606 3145 398 
Q 3181 191 3288 0 
L 2700 0 
Q 2613 175 2588 409 
z
M 2541 1666 
Q 2234 1541 1622 1453 
Q 1275 1403 1131 1340 
Q 988 1278 909 1158 
Q 831 1038 831 891 
Q 831 666 1001 516 
Q 1172 366 1500 366 
Q 1825 366 2078 508 
Q 2331 650 2450 897 
Q 2541 1088 2541 1459 
L 2541 1666 
z
" transform="scale(0.015625)"/>
       <path id="ArialMT-6c" d="M 409 0 
L 409 4581 
L 972 4581 
L 972 0 
L 409 0 
z
" transform="scale(0.015625)"/>
       <path id="ArialMT-75" d="M 2597 0 
L 2597 488 
Q 2209 -75 1544 -75 
Q 1250 -75 995 37 
Q 741 150 617 320 
Q 494 491 444 738 
Q 409 903 409 1263 
L 409 3319 
L 972 3319 
L 972 1478 
Q 972 1038 1006 884 
Q 1059 663 1231 536 
Q 1403 409 1656 409 
Q 1909 409 2131 539 
Q 2353 669 2445 892 
Q 2538 1116 2538 1541 
L 2538 3319 
L 3100 3319 
L 3100 0 
L 2597 0 
z
" transform="scale(0.015625)"/>
       <path id="ArialMT-65" d="M 2694 1069 
L 3275 997 
Q 3138 488 2766 206 
Q 2394 -75 1816 -75 
Q 1088 -75 661 373 
Q 234 822 234 1631 
Q 234 2469 665 2931 
Q 1097 3394 1784 3394 
Q 2450 3394 2872 2941 
Q 3294 2488 3294 1666 
Q 3294 1616 3291 1516 
L 816 1516 
Q 847 969 1125 678 
Q 1403 388 1819 388 
Q 2128 388 2347 550 
Q 2566 713 2694 1069 
z
M 847 1978 
L 2700 1978 
Q 2663 2397 2488 2606 
Q 2219 2931 1791 2931 
Q 1403 2931 1139 2672 
Q 875 2413 847 1978 
z
" transform="scale(0.015625)"/>
      </defs>
      <use xlink:href="#ArialMT-56"/>
      <use xlink:href="#ArialMT-61" transform="translate(59.324219 0)"/>
      <use xlink:href="#ArialMT-6c" transform="translate(114.939453 0)"/>
      <use xlink:href="#ArialMT-75" transform="translate(137.15625 0)"/>
      <use xlink:href="#ArialMT-65" transform="translate(192.771484 0)"/>
     </g>
    </g>
   </g>
   <g id="matplotlib.axis_2">
    <g id="ytick_1">
     <g id="line2d_10">
      <path d="M 57.6 181.50975 
L 389.52 181.50975 
" clip-path="url(#pad17e84bb7)" style="fill: none; stroke-dasharray: 1.85,0.8; stroke-dashoffset: 0; stroke: #cccccc; stroke-opacity: 0.25; stroke-width: 0.5"/>
     </g>
     <g id="text_11">
      <!-- 0 -->
      <g style="fill: #262626" transform="translate(43.65125 184.372875) scale(0.08 -0.08)">
       <use xlink:href="#ArialMT-30"/>
      </g>
     </g>
    </g>
    <g id="ytick_2">
     <g id="line2d_11">
      <path d="M 57.6 148.932616 
L 389.52 148.932616 
" clip-path="url(#pad17e84bb7)" style="fill: none; stroke-dasharray: 1.85,0.8; stroke-dashoffset: 0; stroke: #cccccc; stroke-opacity: 0.25; stroke-width: 0.5"/>
     </g>
     <g id="text_12">
      <!-- 10000 -->
      <g style="fill: #262626" transform="translate(25.85625 151.795741) scale(0.08 -0.08)">
       <use xlink:href="#ArialMT-31"/>
       <use xlink:href="#ArialMT-30" transform="translate(55.615234 0)"/>
       <use xlink:href="#ArialMT-30" transform="translate(111.230469 0)"/>
       <use xlink:href="#ArialMT-30" transform="translate(166.845703 0)"/>
       <use xlink:href="#ArialMT-30" transform="translate(222.460938 0)"/>
      </g>
     </g>
    </g>
    <g id="ytick_3">
     <g id="line2d_12">
      <path d="M 57.6 116.355483 
L 389.52 116.355483 
" clip-path="url(#pad17e84bb7)" style="fill: none; stroke-dasharray: 1.85,0.8; stroke-dashoffset: 0; stroke: #cccccc; stroke-opacity: 0.25; stroke-width: 0.5"/>
     </g>
     <g id="text_13">
      <!-- 20000 -->
      <g style="fill: #262626" transform="translate(25.85625 119.218608) scale(0.08 -0.08)">
       <use xlink:href="#ArialMT-32"/>
       <use xlink:href="#ArialMT-30" transform="translate(55.615234 0)"/>
       <use xlink:href="#ArialMT-30" transform="translate(111.230469 0)"/>
       <use xlink:href="#ArialMT-30" transform="translate(166.845703 0)"/>
       <use xlink:href="#ArialMT-30" transform="translate(222.460938 0)"/>
      </g>
     </g>
    </g>
    <g id="ytick_4">
     <g id="line2d_13">
      <path d="M 57.6 83.778349 
L 389.52 83.778349 
" clip-path="url(#pad17e84bb7)" style="fill: none; stroke-dasharray: 1.85,0.8; stroke-dashoffset: 0; stroke: #cccccc; stroke-opacity: 0.25; stroke-width: 0.5"/>
     </g>
     <g id="text_14">
      <!-- 30000 -->
      <g style="fill: #262626" transform="translate(25.85625 86.641474) scale(0.08 -0.08)">
       <use xlink:href="#ArialMT-33"/>
       <use xlink:href="#ArialMT-30" transform="translate(55.615234 0)"/>
       <use xlink:href="#ArialMT-30" transform="translate(111.230469 0)"/>
       <use xlink:href="#ArialMT-30" transform="translate(166.845703 0)"/>
       <use xlink:href="#ArialMT-30" transform="translate(222.460938 0)"/>
      </g>
     </g>
    </g>
    <g id="text_15">
     <!-- Count -->
     <g style="fill: #262626" transform="translate(20.0675 133.931891) rotate(-90) scale(0.09 -0.09)">
      <defs>
       <path id="ArialMT-43" d="M 3763 1606 
L 4369 1453 
Q 4178 706 3683 314 
Q 3188 -78 2472 -78 
Q 1731 -78 1267 223 
Q 803 525 561 1097 
Q 319 1669 319 2325 
Q 319 3041 592 3573 
Q 866 4106 1370 4382 
Q 1875 4659 2481 4659 
Q 3169 4659 3637 4309 
Q 4106 3959 4291 3325 
L 3694 3184 
Q 3534 3684 3231 3912 
Q 2928 4141 2469 4141 
Q 1941 4141 1586 3887 
Q 1231 3634 1087 3207 
Q 944 2781 944 2328 
Q 944 1744 1114 1308 
Q 1284 872 1643 656 
Q 2003 441 2422 441 
Q 2931 441 3284 734 
Q 3638 1028 3763 1606 
z
" transform="scale(0.015625)"/>
       <path id="ArialMT-6f" d="M 213 1659 
Q 213 2581 725 3025 
Q 1153 3394 1769 3394 
Q 2453 3394 2887 2945 
Q 3322 2497 3322 1706 
Q 3322 1066 3130 698 
Q 2938 331 2570 128 
Q 2203 -75 1769 -75 
Q 1072 -75 642 372 
Q 213 819 213 1659 
z
M 791 1659 
Q 791 1022 1069 705 
Q 1347 388 1769 388 
Q 2188 388 2466 706 
Q 2744 1025 2744 1678 
Q 2744 2294 2464 2611 
Q 2184 2928 1769 2928 
Q 1347 2928 1069 2612 
Q 791 2297 791 1659 
z
" transform="scale(0.015625)"/>
       <path id="ArialMT-6e" d="M 422 0 
L 422 3319 
L 928 3319 
L 928 2847 
Q 1294 3394 1984 3394 
Q 2284 3394 2536 3286 
Q 2788 3178 2913 3003 
Q 3038 2828 3088 2588 
Q 3119 2431 3119 2041 
L 3119 0 
L 2556 0 
L 2556 2019 
Q 2556 2363 2490 2533 
Q 2425 2703 2258 2804 
Q 2091 2906 1866 2906 
Q 1506 2906 1245 2678 
Q 984 2450 984 1813 
L 984 0 
L 422 0 
z
" transform="scale(0.015625)"/>
       <path id="ArialMT-74" d="M 1650 503 
L 1731 6 
Q 1494 -44 1306 -44 
Q 1000 -44 831 53 
Q 663 150 594 308 
Q 525 466 525 972 
L 525 2881 
L 113 2881 
L 113 3319 
L 525 3319 
L 525 4141 
L 1084 4478 
L 1084 3319 
L 1650 3319 
L 1650 2881 
L 1084 2881 
L 1084 941 
Q 1084 700 1114 631 
Q 1144 563 1211 522 
Q 1278 481 1403 481 
Q 1497 481 1650 503 
z
" transform="scale(0.015625)"/>
      </defs>
      <use xlink:href="#ArialMT-43"/>
      <use xlink:href="#ArialMT-6f" transform="translate(72.216797 0)"/>
      <use xlink:href="#ArialMT-75" transform="translate(127.832031 0)"/>
      <use xlink:href="#ArialMT-6e" transform="translate(183.447266 0)"/>
      <use xlink:href="#ArialMT-74" transform="translate(239.0625 0)"/>
     </g>
    </g>
   </g>
   <g id="patch_3">
    <path d="M 72.687273 181.50975 
L 80.230909 181.50975 
L 80.230909 175.720793 
L 72.687273 175.720793 
z
" clip-path="url(#pad17e84bb7)" style="fill: #4472c4; opacity: 0.85; stroke: #ffffff; stroke-width: 0.7; stroke-linejoin: miter"/>
   </g>
   <g id="patch_4">
    <path d="M 80.230909 181.50975 
L 87.774545 181.50975 
L 87.774545 166.371156 
L 80.230909 166.371156 
z
" clip-path="url(#pad17e84bb7)" style="fill: #4472c4; opacity: 0.85; stroke: #ffffff; stroke-width: 0.7; stroke-linejoin: miter"/>
   </g>
   <g id="patch_5">
    <path d="M 87.774545 181.50975 
L 95.318182 181.50975 
L 95.318182 170.850512 
L 87.774545 170.850512 
z
" clip-path="url(#pad17e84bb7)" style="fill: #4472c4; opacity: 0.85; stroke: #ffffff; stroke-width: 0.7; stroke-linejoin: miter"/>
   </g>
   <g id="patch_6">
    <path d="M 95.318182 181.50975 
L 102.861818 181.50975 
L 102.861818 146.821618 
L 95.318182 146.821618 
z
" clip-path="url(#pad17e84bb7)" style="fill: #4472c4; opacity: 0.85; stroke: #ffffff; stroke-width: 0.7; stroke-linejoin: miter"/>
   </g>
   <g id="patch_7">
    <path d="M 102.861818 181.50975 
L 110.405455 181.50975 
L 110.405455 68.014274 
L 102.861818 68.014274 
z
" clip-path="url(#pad17e84bb7)" style="fill: #4472c4; opacity: 0.85; stroke: #ffffff; stroke-width: 0.7; stroke-linejoin: miter"/>
   </g>
   <g id="patch_8">
    <path d="M 110.405455 181.50975 
L 117.949091 181.50975 
L 117.949091 112.208413 
L 110.405455 112.208413 
z
" clip-path="url(#pad17e84bb7)" style="fill: #4472c4; opacity: 0.85; stroke: #ffffff; stroke-width: 0.7; stroke-linejoin: miter"/>
   </g>
   <g id="patch_9">
    <path d="M 117.949091 181.50975 
L 125.492727 181.50975 
L 125.492727 180.486828 
L 117.949091 180.486828 
z
" clip-path="url(#pad17e84bb7)" style="fill: #4472c4; opacity: 0.85; stroke: #ffffff; stroke-width: 0.7; stroke-linejoin: miter"/>
   </g>
   <g id="patch_10">
    <path d="M 125.492727 181.50975 
L 133.036364 181.50975 
L 133.036364 181.50975 
L 125.492727 181.50975 
z
" clip-path="url(#pad17e84bb7)" style="fill: #4472c4; opacity: 0.85; stroke: #ffffff; stroke-width: 0.7; stroke-linejoin: miter"/>
   </g>
   <g id="patch_11">
    <path d="M 133.036364 181.50975 
L 140.58 181.50975 
L 140.58 181.50975 
L 133.036364 181.50975 
z
" clip-path="url(#pad17e84bb7)" style="fill: #4472c4; opacity: 0.85; stroke: #ffffff; stroke-width: 0.7; stroke-linejoin: miter"/>
   </g>
   <g id="patch_12">
    <path d="M 140.58 181.50975 
L 148.123636 181.50975 
L 148.123636 148.202888 
L 140.58 148.202888 
z
" clip-path="url(#pad17e84bb7)" style="fill: #4472c4; opacity: 0.85; stroke: #ffffff; stroke-width: 0.7; stroke-linejoin: miter"/>
   </g>
   <g id="patch_13">
    <path d="M 148.123636 181.50975 
L 155.667273 181.50975 
L 155.667273 181.50975 
L 148.123636 181.50975 
z
" clip-path="url(#pad17e84bb7)" style="fill: #4472c4; opacity: 0.85; stroke: #ffffff; stroke-width: 0.7; stroke-linejoin: miter"/>
   </g>
   <g id="patch_14">
    <path d="M 155.667273 181.50975 
L 163.210909 181.50975 
L 163.210909 181.50975 
L 155.667273 181.50975 
z
" clip-path="url(#pad17e84bb7)" style="fill: #4472c4; opacity: 0.85; stroke: #ffffff; stroke-width: 0.7; stroke-linejoin: miter"/>
   </g>
   <g id="patch_15">
    <path d="M 163.210909 181.50975 
L 170.754545 181.50975 
L 170.754545 121.007497 
L 163.210909 121.007497 
z
" clip-path="url(#pad17e84bb7)" style="fill: #4472c4; opacity: 0.85; stroke: #ffffff; stroke-width: 0.7; stroke-linejoin: miter"/>
   </g>
   <g id="patch_16">
    <path d="M 170.754545 181.50975 
L 178.298182 181.50975 
L 178.298182 181.50975 
L 170.754545 181.50975 
z
" clip-path="url(#pad17e84bb7)" style="fill: #4472c4; opacity: 0.85; stroke: #ffffff; stroke-width: 0.7; stroke-linejoin: miter"/>
   </g>
   <g id="patch_17">
    <path d="M 178.298182 181.50975 
L 185.841818 181.50975 
L 185.841818 181.50975 
L 178.298182 181.50975 
z
" clip-path="url(#pad17e84bb7)" style="fill: #4472c4; opacity: 0.85; stroke: #ffffff; stroke-width: 0.7; stroke-linejoin: miter"/>
   </g>
   <g id="patch_18">
    <path d="M 185.841818 181.50975 
L 193.385455 181.50975 
L 193.385455 181.50975 
L 185.841818 181.50975 
z
" clip-path="url(#pad17e84bb7)" style="fill: #4472c4; opacity: 0.85; stroke: #ffffff; stroke-width: 0.7; stroke-linejoin: miter"/>
   </g>
   <g id="patch_19">
    <path d="M 193.385455 181.50975 
L 200.929091 181.50975 
L 200.929091 181.50975 
L 193.385455 181.50975 
z
" clip-path="url(#pad17e84bb7)" style="fill: #4472c4; opacity: 0.85; stroke: #ffffff; stroke-width: 0.7; stroke-linejoin: miter"/>
   </g>
   <g id="patch_20">
    <path d="M 200.929091 181.50975 
L 208.472727 181.50975 
L 208.472727 181.50975 
L 200.929091 181.50975 
z
" clip-path="url(#pad17e84bb7)" style="fill: #4472c4; opacity: 0.85; stroke: #ffffff; stroke-width: 0.7; stroke-linejoin: miter"/>
   </g>
   <g id="patch_21">
    <path d="M 208.472727 181.50975 
L 216.016364 181.50975 
L 216.016364 181.50975 
L 208.472727 181.50975 
z
" clip-path="url(#pad17e84bb7)" style="fill: #4472c4; opacity: 0.85; stroke: #ffffff; stroke-width: 0.7; stroke-linejoin: miter"/>
   </g>
   <g id="patch_22">
    <path d="M 216.016364 181.50975 
L 223.56 181.50975 
L 223.56 139.390774 
L 216.016364 139.390774 
z
" clip-path="url(#pad17e84bb7)" style="fill: #4472c4; opacity: 0.85; stroke: #ffffff; stroke-width: 0.7; stroke-linejoin: miter"/>
   </g>
   <g id="patch_23">
    <path d="M 223.56 181.50975 
L 231.103636 181.50975 
L 231.103636 181.50975 
L 223.56 181.50975 
z
" clip-path="url(#pad17e84bb7)" style="fill: #4472c4; opacity: 0.85; stroke: #ffffff; stroke-width: 0.7; stroke-linejoin: miter"/>
   </g>
   <g id="patch_24">
    <path d="M 231.103636 181.50975 
L 238.647273 181.50975 
L 238.647273 181.50975 
L 231.103636 181.50975 
z
" clip-path="url(#pad17e84bb7)" style="fill: #4472c4; opacity: 0.85; stroke: #ffffff; stroke-width: 0.7; stroke-linejoin: miter"/>
   </g>
   <g id="patch_25">
    <path d="M 238.647273 181.50975 
L 246.190909 181.50975 
L 246.190909 181.50975 
L 238.647273 181.50975 
z
" clip-path="url(#pad17e84bb7)" style="fill: #4472c4; opacity: 0.85; stroke: #ffffff; stroke-width: 0.7; stroke-linejoin: miter"/>
   </g>
   <g id="patch_26">
    <path d="M 246.190909 181.50975 
L 253.734545 181.50975 
L 253.734545 181.50975 
L 246.190909 181.50975 
z
" clip-path="url(#pad17e84bb7)" style="fill: #4472c4; opacity: 0.85; stroke: #ffffff; stroke-width: 0.7; stroke-linejoin: miter"/>
   </g>
   <g id="patch_27">
    <path d="M 253.734545 181.50975 
L 261.278182 181.50975 
L 261.278182 181.50975 
L 253.734545 181.50975 
z
" clip-path="url(#pad17e84bb7)" style="fill: #4472c4; opacity: 0.85; stroke: #ffffff; stroke-width: 0.7; stroke-linejoin: miter"/>
   </g>
   <g id="patch_28">
    <path d="M 261.278182 181.50975 
L 268.821818 181.50975 
L 268.821818 181.50975 
L 261.278182 181.50975 
z
" clip-path="url(#pad17e84bb7)" style="fill: #4472c4; opacity: 0.85; stroke: #ffffff; stroke-width: 0.7; stroke-linejoin: miter"/>
   </g>
   <g id="patch_29">
    <path d="M 268.821818 181.50975 
L 276.365455 181.50975 
L 276.365455 181.50975 
L 268.821818 181.50975 
z
" clip-path="url(#pad17e84bb7)" style="fill: #4472c4; opacity: 0.85; stroke: #ffffff; stroke-width: 0.7; stroke-linejoin: miter"/>
   </g>
   <g id="patch_30">
    <path d="M 276.365455 181.50975 
L 283.909091 181.50975 
L 283.909091 181.50975 
L 276.365455 181.50975 
z
" clip-path="url(#pad17e84bb7)" style="fill: #4472c4; opacity: 0.85; stroke: #ffffff; stroke-width: 0.7; stroke-linejoin: miter"/>
   </g>
   <g id="patch_31">
    <path d="M 283.909091 181.50975 
L 291.452727 181.50975 
L 291.452727 181.50975 
L 283.909091 181.50975 
z
" clip-path="url(#pad17e84bb7)" style="fill: #4472c4; opacity: 0.85; stroke: #ffffff; stroke-width: 0.7; stroke-linejoin: miter"/>
   </g>
   <g id="patch_32">
    <path d="M 291.452727 181.50975 
L 298.996364 181.50975 
L 298.996364 144.130747 
L 291.452727 144.130747 
z
" clip-path="url(#pad17e84bb7)" style="fill: #4472c4; opacity: 0.85; stroke: #ffffff; stroke-width: 0.7; stroke-linejoin: miter"/>
   </g>
   <g id="patch_33">
    <path d="M 298.996364 181.50975 
L 306.54 181.50975 
L 306.54 181.50975 
L 298.996364 181.50975 
z
" clip-path="url(#pad17e84bb7)" style="fill: #4472c4; opacity: 0.85; stroke: #ffffff; stroke-width: 0.7; stroke-linejoin: miter"/>
   </g>
   <g id="patch_34">
    <path d="M 306.54 181.50975 
L 314.083636 181.50975 
L 314.083636 181.50975 
L 306.54 181.50975 
z
" clip-path="url(#pad17e84bb7)" style="fill: #4472c4; opacity: 0.85; stroke: #ffffff; stroke-width: 0.7; stroke-linejoin: miter"/>
   </g>
   <g id="patch_35">
    <path d="M 314.083636 181.50975 
L 321.627273 181.50975 
L 321.627273 181.50975 
L 314.083636 181.50975 
z
" clip-path="url(#pad17e84bb7)" style="fill: #4472c4; opacity: 0.85; stroke: #ffffff; stroke-width: 0.7; stroke-linejoin: miter"/>
   </g>
   <g id="patch_36">
    <path d="M 321.627273 181.50975 
L 329.170909 181.50975 
L 329.170909 181.50975 
L 321.627273 181.50975 
z
" clip-path="url(#pad17e84bb7)" style="fill: #4472c4; opacity: 0.85; stroke: #ffffff; stroke-width: 0.7; stroke-linejoin: miter"/>
   </g>
   <g id="patch_37">
    <path d="M 329.170909 181.50975 
L 336.714545 181.50975 
L 336.714545 181.50975 
L 329.170909 181.50975 
z
" clip-path="url(#pad17e84bb7)" style="fill: #4472c4; opacity: 0.85; stroke: #ffffff; stroke-width: 0.7; stroke-linejoin: miter"/>
   </g>
   <g id="patch_38">
    <path d="M 336.714545 181.50975 
L 344.258182 181.50975 
L 344.258182 181.50975 
L 336.714545 181.50975 
z
" clip-path="url(#pad17e84bb7)" style="fill: #4472c4; opacity: 0.85; stroke: #ffffff; stroke-width: 0.7; stroke-linejoin: miter"/>
   </g>
   <g id="patch_39">
    <path d="M 344.258182 181.50975 
L 351.801818 181.50975 
L 351.801818 181.50975 
L 344.258182 181.50975 
z
" clip-path="url(#pad17e84bb7)" style="fill: #4472c4; opacity: 0.85; stroke: #ffffff; stroke-width: 0.7; stroke-linejoin: miter"/>
   </g>
   <g id="patch_40">
    <path d="M 351.801818 181.50975 
L 359.345455 181.50975 
L 359.345455 181.50975 
L 351.801818 181.50975 
z
" clip-path="url(#pad17e84bb7)" style="fill: #4472c4; opacity: 0.85; stroke: #ffffff; stroke-width: 0.7; stroke-linejoin: miter"/>
   </g>
   <g id="patch_41">
    <path d="M 359.345455 181.50975 
L 366.889091 181.50975 
L 366.889091 181.50975 
L 359.345455 181.50975 
z
" clip-path="url(#pad17e84bb7)" style="fill: #4472c4; opacity: 0.85; stroke: #ffffff; stroke-width: 0.7; stroke-linejoin: miter"/>
   </g>
   <g id="patch_42">
    <path d="M 366.889091 181.50975 
L 374.432727 181.50975 
L 374.432727 134.448823 
L 366.889091 134.448823 
z
" clip-path="url(#pad17e84bb7)" style="fill: #4472c4; opacity: 0.85; stroke: #ffffff; stroke-width: 0.7; stroke-linejoin: miter"/>
   </g>
   <g id="patch_43">
    <path d="M 57.6 181.50975 
L 57.6 62.3395 
" style="fill: none; stroke: #cccccc; stroke-width: 1.25; stroke-linejoin: miter; stroke-linecap: square"/>
   </g>
   <g id="patch_44">
    <path d="M 389.52 181.50975 
L 389.52 62.3395 
" style="fill: none; stroke: #cccccc; stroke-width: 1.25; stroke-linejoin: miter; stroke-linecap: square"/>
   </g>
   <g id="patch_45">
    <path d="M 57.6 181.50975 
L 389.52 181.50975 
" style="fill: none; stroke: #cccccc; stroke-width: 1.25; stroke-linejoin: miter; stroke-linecap: square"/>
   </g>
   <g id="patch_46">
    <path d="M 57.6 62.3395 
L 389.52 62.3395 
" style="fill: none; stroke: #cccccc; stroke-width: 1.25; stroke-linejoin: miter; stroke-linecap: square"/>
   </g>
   <g id="text_16">
    <!-- Original - Product Price -->
    <g style="fill: #262626" transform="translate(166.709766 52.3395) scale(0.11 -0.11)">
     <defs>
      <path id="ArialMT-4f" d="M 309 2231 
Q 309 3372 921 4017 
Q 1534 4663 2503 4663 
Q 3138 4663 3647 4359 
Q 4156 4056 4423 3514 
Q 4691 2972 4691 2284 
Q 4691 1588 4409 1038 
Q 4128 488 3612 205 
Q 3097 -78 2500 -78 
Q 1853 -78 1343 234 
Q 834 547 571 1087 
Q 309 1628 309 2231 
z
M 934 2222 
Q 934 1394 1379 917 
Q 1825 441 2497 441 
Q 3181 441 3623 922 
Q 4066 1403 4066 2288 
Q 4066 2847 3877 3264 
Q 3688 3681 3323 3911 
Q 2959 4141 2506 4141 
Q 1863 4141 1398 3698 
Q 934 3256 934 2222 
z
" transform="scale(0.015625)"/>
      <path id="ArialMT-72" d="M 416 0 
L 416 3319 
L 922 3319 
L 922 2816 
Q 1116 3169 1280 3281 
Q 1444 3394 1641 3394 
Q 1925 3394 2219 3213 
L 2025 2691 
Q 1819 2813 1613 2813 
Q 1428 2813 1281 2702 
Q 1134 2591 1072 2394 
Q 978 2094 978 1738 
L 978 0 
L 416 0 
z
" transform="scale(0.015625)"/>
      <path id="ArialMT-69" d="M 425 3934 
L 425 4581 
L 988 4581 
L 988 3934 
L 425 3934 
z
M 425 0 
L 425 3319 
L 988 3319 
L 988 0 
L 425 0 
z
" transform="scale(0.015625)"/>
      <path id="ArialMT-67" d="M 319 -275 
L 866 -356 
Q 900 -609 1056 -725 
Q 1266 -881 1628 -881 
Q 2019 -881 2231 -725 
Q 2444 -569 2519 -288 
Q 2563 -116 2559 434 
Q 2191 0 1641 0 
Q 956 0 581 494 
Q 206 988 206 1678 
Q 206 2153 378 2554 
Q 550 2956 876 3175 
Q 1203 3394 1644 3394 
Q 2231 3394 2613 2919 
L 2613 3319 
L 3131 3319 
L 3131 450 
Q 3131 -325 2973 -648 
Q 2816 -972 2473 -1159 
Q 2131 -1347 1631 -1347 
Q 1038 -1347 672 -1080 
Q 306 -813 319 -275 
z
M 784 1719 
Q 784 1066 1043 766 
Q 1303 466 1694 466 
Q 2081 466 2343 764 
Q 2606 1063 2606 1700 
Q 2606 2309 2336 2618 
Q 2066 2928 1684 2928 
Q 1309 2928 1046 2623 
Q 784 2319 784 1719 
z
" transform="scale(0.015625)"/>
      <path id="ArialMT-20" transform="scale(0.015625)"/>
      <path id="ArialMT-2d" d="M 203 1375 
L 203 1941 
L 1931 1941 
L 1931 1375 
L 203 1375 
z
" transform="scale(0.015625)"/>
      <path id="ArialMT-50" d="M 494 0 
L 494 4581 
L 2222 4581 
Q 2678 4581 2919 4538 
Q 3256 4481 3484 4323 
Q 3713 4166 3852 3881 
Q 3991 3597 3991 3256 
Q 3991 2672 3619 2267 
Q 3247 1863 2275 1863 
L 1100 1863 
L 1100 0 
L 494 0 
z
M 1100 2403 
L 2284 2403 
Q 2872 2403 3119 2622 
Q 3366 2841 3366 3238 
Q 3366 3525 3220 3729 
Q 3075 3934 2838 4000 
Q 2684 4041 2272 4041 
L 1100 4041 
L 1100 2403 
z
" transform="scale(0.015625)"/>
      <path id="ArialMT-64" d="M 2575 0 
L 2575 419 
Q 2259 -75 1647 -75 
Q 1250 -75 917 144 
Q 584 363 401 755 
Q 219 1147 219 1656 
Q 219 2153 384 2558 
Q 550 2963 881 3178 
Q 1213 3394 1622 3394 
Q 1922 3394 2156 3267 
Q 2391 3141 2538 2938 
L 2538 4581 
L 3097 4581 
L 3097 0 
L 2575 0 
z
M 797 1656 
Q 797 1019 1065 703 
Q 1334 388 1700 388 
Q 2069 388 2326 689 
Q 2584 991 2584 1609 
Q 2584 2291 2321 2609 
Q 2059 2928 1675 2928 
Q 1300 2928 1048 2622 
Q 797 2316 797 1656 
z
" transform="scale(0.015625)"/>
      <path id="ArialMT-63" d="M 2588 1216 
L 3141 1144 
Q 3050 572 2676 248 
Q 2303 -75 1759 -75 
Q 1078 -75 664 370 
Q 250 816 250 1647 
Q 250 2184 428 2587 
Q 606 2991 970 3192 
Q 1334 3394 1763 3394 
Q 2303 3394 2647 3120 
Q 2991 2847 3088 2344 
L 2541 2259 
Q 2463 2594 2264 2762 
Q 2066 2931 1784 2931 
Q 1359 2931 1093 2626 
Q 828 2322 828 1663 
Q 828 994 1084 691 
Q 1341 388 1753 388 
Q 2084 388 2306 591 
Q 2528 794 2588 1216 
z
" transform="scale(0.015625)"/>
     </defs>
     <use xlink:href="#ArialMT-4f"/>
     <use xlink:href="#ArialMT-72" transform="translate(77.783203 0)"/>
     <use xlink:href="#ArialMT-69" transform="translate(111.083984 0)"/>
     <use xlink:href="#ArialMT-67" transform="translate(133.300781 0)"/>
     <use xlink:href="#ArialMT-69" transform="translate(188.916016 0)"/>
     <use xlink:href="#ArialMT-6e" transform="translate(211.132812 0)"/>
     <use xlink:href="#ArialMT-61" transform="translate(266.748047 0)"/>
     <use xlink:href="#ArialMT-6c" transform="translate(322.363281 0)"/>
     <use xlink:href="#ArialMT-20" transform="translate(344.580078 0)"/>
     <use xlink:href="#ArialMT-2d" transform="translate(372.363281 0)"/>
     <use xlink:href="#ArialMT-20" transform="translate(405.664062 0)"/>
     <use xlink:href="#ArialMT-50" transform="translate(433.447266 0)"/>
     <use xlink:href="#ArialMT-72" transform="translate(500.146484 0)"/>
     <use xlink:href="#ArialMT-6f" transform="translate(533.447266 0)"/>
     <use xlink:href="#ArialMT-64" transform="translate(589.0625 0)"/>
     <use xlink:href="#ArialMT-75" transform="translate(644.677734 0)"/>
     <use xlink:href="#ArialMT-63" transform="translate(700.292969 0)"/>
     <use xlink:href="#ArialMT-74" transform="translate(750.292969 0)"/>
     <use xlink:href="#ArialMT-20" transform="translate(778.076172 0)"/>
     <use xlink:href="#ArialMT-50" transform="translate(805.859375 0)"/>
     <use xlink:href="#ArialMT-72" transform="translate(872.558594 0)"/>
     <use xlink:href="#ArialMT-69" transform="translate(905.859375 0)"/>
     <use xlink:href="#ArialMT-63" transform="translate(928.076172 0)"/>
     <use xlink:href="#ArialMT-65" transform="translate(978.076172 0)"/>
    </g>
   </g>
  </g>
  <g id="axes_2">
   <g id="patch_47">
    <path d="M 447.12 181.50975 
L 779.04 181.50975 
L 779.04 62.3395 
L 447.12 62.3395 
z
" style="fill: #ffffff"/>
   </g>
   <g id="matplotlib.axis_3">
    <g id="xtick_10">
     <g id="line2d_14">
      <path d="M 487.352727 181.50975 
L 487.352727 62.3395 
" clip-path="url(#pea75ecbfff)" style="fill: none; stroke: #cccccc; stroke-linecap: round"/>
     </g>
     <g id="text_17">
      <!-- &lt;=50 -->
      <g style="fill: #262626" transform="translate(478.231477 196.736) scale(0.08 -0.08)">
       <defs>
        <path id="ArialMT-3c" d="M 350 2003 
L 350 2528 
L 3384 3809 
L 3384 3250 
L 978 2263 
L 3384 1266 
L 3384 706 
L 350 2003 
z
" transform="scale(0.015625)"/>
        <path id="ArialMT-3d" d="M 3381 2694 
L 356 2694 
L 356 3219 
L 3381 3219 
L 3381 2694 
z
M 3381 1303 
L 356 1303 
L 356 1828 
L 3381 1828 
L 3381 1303 
z
" transform="scale(0.015625)"/>
       </defs>
       <use xlink:href="#ArialMT-3c"/>
       <use xlink:href="#ArialMT-3d" transform="translate(58.398438 0)"/>
       <use xlink:href="#ArialMT-35" transform="translate(116.796875 0)"/>
       <use xlink:href="#ArialMT-30" transform="translate(172.412109 0)"/>
      </g>
     </g>
    </g>
    <g id="xtick_11">
     <g id="line2d_15">
      <path d="M 550.216364 181.50975 
L 550.216364 62.3395 
" clip-path="url(#pea75ecbfff)" style="fill: none; stroke: #cccccc; stroke-linecap: round"/>
     </g>
     <g id="text_18">
      <!-- 50-100 -->
      <g style="fill: #262626" transform="translate(537.762614 196.736) scale(0.08 -0.08)">
       <use xlink:href="#ArialMT-35"/>
       <use xlink:href="#ArialMT-30" transform="translate(55.615234 0)"/>
       <use xlink:href="#ArialMT-2d" transform="translate(111.230469 0)"/>
       <use xlink:href="#ArialMT-31" transform="translate(144.53125 0)"/>
       <use xlink:href="#ArialMT-30" transform="translate(200.146484 0)"/>
       <use xlink:href="#ArialMT-30" transform="translate(255.761719 0)"/>
      </g>
     </g>
    </g>
    <g id="xtick_12">
     <g id="line2d_16">
      <path d="M 613.08 181.50975 
L 613.08 62.3395 
" clip-path="url(#pea75ecbfff)" style="fill: none; stroke: #cccccc; stroke-linecap: round"/>
     </g>
     <g id="text_19">
      <!-- 100-200 -->
      <g style="fill: #262626" transform="translate(598.401875 196.736) scale(0.08 -0.08)">
       <use xlink:href="#ArialMT-31"/>
       <use xlink:href="#ArialMT-30" transform="translate(55.615234 0)"/>
       <use xlink:href="#ArialMT-30" transform="translate(111.230469 0)"/>
       <use xlink:href="#ArialMT-2d" transform="translate(166.845703 0)"/>
       <use xlink:href="#ArialMT-32" transform="translate(200.146484 0)"/>
       <use xlink:href="#ArialMT-30" transform="translate(255.761719 0)"/>
       <use xlink:href="#ArialMT-30" transform="translate(311.376953 0)"/>
      </g>
     </g>
    </g>
    <g id="xtick_13">
     <g id="line2d_17">
      <path d="M 675.943636 181.50975 
L 675.943636 62.3395 
" clip-path="url(#pea75ecbfff)" style="fill: none; stroke: #cccccc; stroke-linecap: round"/>
     </g>
     <g id="text_20">
      <!-- 200-300 -->
      <g style="fill: #262626" transform="translate(661.265511 196.736) scale(0.08 -0.08)">
       <use xlink:href="#ArialMT-32"/>
       <use xlink:href="#ArialMT-30" transform="translate(55.615234 0)"/>
       <use xlink:href="#ArialMT-30" transform="translate(111.230469 0)"/>
       <use xlink:href="#ArialMT-2d" transform="translate(166.845703 0)"/>
       <use xlink:href="#ArialMT-33" transform="translate(200.146484 0)"/>
       <use xlink:href="#ArialMT-30" transform="translate(255.761719 0)"/>
       <use xlink:href="#ArialMT-30" transform="translate(311.376953 0)"/>
      </g>
     </g>
    </g>
    <g id="xtick_14">
     <g id="line2d_18">
      <path d="M 738.807273 181.50975 
L 738.807273 62.3395 
" clip-path="url(#pea75ecbfff)" style="fill: none; stroke: #cccccc; stroke-linecap: round"/>
     </g>
     <g id="text_21">
      <!-- 300-400 -->
      <g style="fill: #262626" transform="translate(724.129148 196.736) scale(0.08 -0.08)">
       <use xlink:href="#ArialMT-33"/>
       <use xlink:href="#ArialMT-30" transform="translate(55.615234 0)"/>
       <use xlink:href="#ArialMT-30" transform="translate(111.230469 0)"/>
       <use xlink:href="#ArialMT-2d" transform="translate(166.845703 0)"/>
       <use xlink:href="#ArialMT-34" transform="translate(200.146484 0)"/>
       <use xlink:href="#ArialMT-30" transform="translate(255.761719 0)"/>
       <use xlink:href="#ArialMT-30" transform="translate(311.376953 0)"/>
      </g>
     </g>
    </g>
    <g id="text_22">
     <!-- Bin -->
     <g style="fill: #262626" transform="translate(606.576094 208.768031) scale(0.09 -0.09)">
      <defs>
       <path id="ArialMT-42" d="M 469 0 
L 469 4581 
L 2188 4581 
Q 2713 4581 3030 4442 
Q 3347 4303 3526 4014 
Q 3706 3725 3706 3409 
Q 3706 3116 3547 2856 
Q 3388 2597 3066 2438 
Q 3481 2316 3704 2022 
Q 3928 1728 3928 1328 
Q 3928 1006 3792 729 
Q 3656 453 3456 303 
Q 3256 153 2954 76 
Q 2653 0 2216 0 
L 469 0 
z
M 1075 2656 
L 2066 2656 
Q 2469 2656 2644 2709 
Q 2875 2778 2992 2937 
Q 3109 3097 3109 3338 
Q 3109 3566 3000 3739 
Q 2891 3913 2687 3977 
Q 2484 4041 1991 4041 
L 1075 4041 
L 1075 2656 
z
M 1075 541 
L 2216 541 
Q 2509 541 2628 563 
Q 2838 600 2978 687 
Q 3119 775 3209 942 
Q 3300 1109 3300 1328 
Q 3300 1584 3169 1773 
Q 3038 1963 2805 2039 
Q 2572 2116 2134 2116 
L 1075 2116 
L 1075 541 
z
" transform="scale(0.015625)"/>
      </defs>
      <use xlink:href="#ArialMT-42"/>
      <use xlink:href="#ArialMT-69" transform="translate(66.699219 0)"/>
      <use xlink:href="#ArialMT-6e" transform="translate(88.916016 0)"/>
     </g>
    </g>
   </g>
   <g id="matplotlib.axis_4">
    <g id="ytick_5">
     <g id="line2d_19">
      <path d="M 447.12 181.50975 
L 779.04 181.50975 
" clip-path="url(#pea75ecbfff)" style="fill: none; stroke-dasharray: 1.85,0.8; stroke-dashoffset: 0; stroke: #cccccc; stroke-opacity: 0.25; stroke-width: 0.5"/>
     </g>
     <g id="text_23">
      <!-- 0 -->
      <g style="fill: #262626" transform="translate(433.17125 184.372875) scale(0.08 -0.08)">
       <use xlink:href="#ArialMT-30"/>
      </g>
     </g>
    </g>
    <g id="ytick_6">
     <g id="line2d_20">
      <path d="M 447.12 158.972025 
L 779.04 158.972025 
" clip-path="url(#pea75ecbfff)" style="fill: none; stroke-dasharray: 1.85,0.8; stroke-dashoffset: 0; stroke: #cccccc; stroke-opacity: 0.25; stroke-width: 0.5"/>
     </g>
     <g id="text_24">
      <!-- 10000 -->
      <g style="fill: #262626" transform="translate(415.37625 161.83515) scale(0.08 -0.08)">
       <use xlink:href="#ArialMT-31"/>
       <use xlink:href="#ArialMT-30" transform="translate(55.615234 0)"/>
       <use xlink:href="#ArialMT-30" transform="translate(111.230469 0)"/>
       <use xlink:href="#ArialMT-30" transform="translate(166.845703 0)"/>
       <use xlink:href="#ArialMT-30" transform="translate(222.460938 0)"/>
      </g>
     </g>
    </g>
    <g id="ytick_7">
     <g id="line2d_21">
      <path d="M 447.12 136.4343 
L 779.04 136.4343 
" clip-path="url(#pea75ecbfff)" style="fill: none; stroke-dasharray: 1.85,0.8; stroke-dashoffset: 0; stroke: #cccccc; stroke-opacity: 0.25; stroke-width: 0.5"/>
     </g>
     <g id="text_25">
      <!-- 20000 -->
      <g style="fill: #262626" transform="translate(415.37625 139.297425) scale(0.08 -0.08)">
       <use xlink:href="#ArialMT-32"/>
       <use xlink:href="#ArialMT-30" transform="translate(55.615234 0)"/>
       <use xlink:href="#ArialMT-30" transform="translate(111.230469 0)"/>
       <use xlink:href="#ArialMT-30" transform="translate(166.845703 0)"/>
       <use xlink:href="#ArialMT-30" transform="translate(222.460938 0)"/>
      </g>
     </g>
    </g>
    <g id="ytick_8">
     <g id="line2d_22">
      <path d="M 447.12 113.896575 
L 779.04 113.896575 
" clip-path="url(#pea75ecbfff)" style="fill: none; stroke-dasharray: 1.85,0.8; stroke-dashoffset: 0; stroke: #cccccc; stroke-opacity: 0.25; stroke-width: 0.5"/>
     </g>
     <g id="text_26">
      <!-- 30000 -->
      <g style="fill: #262626" transform="translate(415.37625 116.7597) scale(0.08 -0.08)">
       <use xlink:href="#ArialMT-33"/>
       <use xlink:href="#ArialMT-30" transform="translate(55.615234 0)"/>
       <use xlink:href="#ArialMT-30" transform="translate(111.230469 0)"/>
       <use xlink:href="#ArialMT-30" transform="translate(166.845703 0)"/>
       <use xlink:href="#ArialMT-30" transform="translate(222.460938 0)"/>
      </g>
     </g>
    </g>
    <g id="ytick_9">
     <g id="line2d_23">
      <path d="M 447.12 91.358849 
L 779.04 91.358849 
" clip-path="url(#pea75ecbfff)" style="fill: none; stroke-dasharray: 1.85,0.8; stroke-dashoffset: 0; stroke: #cccccc; stroke-opacity: 0.25; stroke-width: 0.5"/>
     </g>
     <g id="text_27">
      <!-- 40000 -->
      <g style="fill: #262626" transform="translate(415.37625 94.221974) scale(0.08 -0.08)">
       <use xlink:href="#ArialMT-34"/>
       <use xlink:href="#ArialMT-30" transform="translate(55.615234 0)"/>
       <use xlink:href="#ArialMT-30" transform="translate(111.230469 0)"/>
       <use xlink:href="#ArialMT-30" transform="translate(166.845703 0)"/>
       <use xlink:href="#ArialMT-30" transform="translate(222.460938 0)"/>
      </g>
     </g>
    </g>
    <g id="ytick_10">
     <g id="line2d_24">
      <path d="M 447.12 68.821124 
L 779.04 68.821124 
" clip-path="url(#pea75ecbfff)" style="fill: none; stroke-dasharray: 1.85,0.8; stroke-dashoffset: 0; stroke: #cccccc; stroke-opacity: 0.25; stroke-width: 0.5"/>
     </g>
     <g id="text_28">
      <!-- 50000 -->
      <g style="fill: #262626" transform="translate(415.37625 71.684249) scale(0.08 -0.08)">
       <use xlink:href="#ArialMT-35"/>
       <use xlink:href="#ArialMT-30" transform="translate(55.615234 0)"/>
       <use xlink:href="#ArialMT-30" transform="translate(111.230469 0)"/>
       <use xlink:href="#ArialMT-30" transform="translate(166.845703 0)"/>
       <use xlink:href="#ArialMT-30" transform="translate(222.460938 0)"/>
      </g>
     </g>
    </g>
    <g id="text_29">
     <!-- Count -->
     <g style="fill: #262626" transform="translate(409.5875 133.931891) rotate(-90) scale(0.09 -0.09)">
      <use xlink:href="#ArialMT-43"/>
      <use xlink:href="#ArialMT-6f" transform="translate(72.216797 0)"/>
      <use xlink:href="#ArialMT-75" transform="translate(127.832031 0)"/>
      <use xlink:href="#ArialMT-6e" transform="translate(183.447266 0)"/>
      <use xlink:href="#ArialMT-74" transform="translate(239.0625 0)"/>
     </g>
    </g>
   </g>
   <g id="patch_48">
    <path d="M 462.207273 181.50975 
L 512.498182 181.50975 
L 512.498182 98.94054 
L 462.207273 98.94054 
z
" clip-path="url(#pea75ecbfff)" style="fill: #d6e6f4; stroke: #ffffff; stroke-linejoin: miter"/>
   </g>
   <g id="patch_49">
    <path d="M 525.070909 181.50975 
L 575.361818 181.50975 
L 575.361818 68.014274 
L 525.070909 68.014274 
z
" clip-path="url(#pea75ecbfff)" style="fill: #abd0e6; stroke: #ffffff; stroke-linejoin: miter"/>
   </g>
   <g id="patch_50">
    <path d="M 587.934545 181.50975 
L 638.225455 181.50975 
L 638.225455 110.513662 
L 587.934545 110.513662 
z
" clip-path="url(#pea75ecbfff)" style="fill: #6aaed6; stroke: #ffffff; stroke-linejoin: miter"/>
   </g>
   <g id="patch_51">
    <path d="M 650.798182 181.50975 
L 701.089091 181.50975 
L 701.089091 155.649964 
L 650.798182 155.649964 
z
" clip-path="url(#pea75ecbfff)" style="fill: #3787c0; stroke: #ffffff; stroke-linejoin: miter"/>
   </g>
   <g id="patch_52">
    <path d="M 713.661818 181.50975 
L 763.952727 181.50975 
L 763.952727 148.951752 
L 713.661818 148.951752 
z
" clip-path="url(#pea75ecbfff)" style="fill: #105ba4; stroke: #ffffff; stroke-linejoin: miter"/>
   </g>
   <g id="patch_53">
    <path d="M 447.12 181.50975 
L 447.12 62.3395 
" style="fill: none; stroke: #cccccc; stroke-width: 1.25; stroke-linejoin: miter; stroke-linecap: square"/>
   </g>
   <g id="patch_54">
    <path d="M 779.04 181.50975 
L 779.04 62.3395 
" style="fill: none; stroke: #cccccc; stroke-width: 1.25; stroke-linejoin: miter; stroke-linecap: square"/>
   </g>
   <g id="patch_55">
    <path d="M 447.12 181.50975 
L 779.04 181.50975 
" style="fill: none; stroke: #cccccc; stroke-width: 1.25; stroke-linejoin: miter; stroke-linecap: square"/>
   </g>
   <g id="patch_56">
    <path d="M 447.12 62.3395 
L 779.04 62.3395 
" style="fill: none; stroke: #cccccc; stroke-width: 1.25; stroke-linejoin: miter; stroke-linecap: square"/>
   </g>
   <g id="text_30">
    <!-- 25.4 % -->
    <g style="fill: #262626" transform="translate(474.900227 97.35054) scale(0.08 -0.08)">
     <defs>
      <path id="ArialMT-2e" d="M 581 0 
L 581 641 
L 1222 641 
L 1222 0 
L 581 0 
z
" transform="scale(0.015625)"/>
      <path id="ArialMT-25" d="M 372 3481 
Q 372 3972 619 4315 
Q 866 4659 1334 4659 
Q 1766 4659 2048 4351 
Q 2331 4044 2331 3447 
Q 2331 2866 2045 2552 
Q 1759 2238 1341 2238 
Q 925 2238 648 2547 
Q 372 2856 372 3481 
z
M 1350 4272 
Q 1141 4272 1002 4090 
Q 863 3909 863 3425 
Q 863 2984 1003 2804 
Q 1144 2625 1350 2625 
Q 1563 2625 1702 2806 
Q 1841 2988 1841 3469 
Q 1841 3913 1700 4092 
Q 1559 4272 1350 4272 
z
M 1353 -169 
L 3859 4659 
L 4316 4659 
L 1819 -169 
L 1353 -169 
z
M 3334 1075 
Q 3334 1569 3581 1911 
Q 3828 2253 4300 2253 
Q 4731 2253 5014 1945 
Q 5297 1638 5297 1041 
Q 5297 459 5011 145 
Q 4725 -169 4303 -169 
Q 3888 -169 3611 142 
Q 3334 453 3334 1075 
z
M 4316 1866 
Q 4103 1866 3964 1684 
Q 3825 1503 3825 1019 
Q 3825 581 3965 400 
Q 4106 219 4313 219 
Q 4528 219 4667 400 
Q 4806 581 4806 1063 
Q 4806 1506 4665 1686 
Q 4525 1866 4316 1866 
z
" transform="scale(0.015625)"/>
     </defs>
     <use xlink:href="#ArialMT-32"/>
     <use xlink:href="#ArialMT-35" transform="translate(55.615234 0)"/>
     <use xlink:href="#ArialMT-2e" transform="translate(111.230469 0)"/>
     <use xlink:href="#ArialMT-34" transform="translate(139.013672 0)"/>
     <use xlink:href="#ArialMT-20" transform="translate(194.628906 0)"/>
     <use xlink:href="#ArialMT-25" transform="translate(222.412109 0)"/>
    </g>
   </g>
   <g id="text_31">
    <!-- 34.9 % -->
    <g style="fill: #262626" transform="translate(537.763864 66.424274) scale(0.08 -0.08)">
     <defs>
      <path id="ArialMT-39" d="M 350 1059 
L 891 1109 
Q 959 728 1153 556 
Q 1347 384 1650 384 
Q 1909 384 2104 503 
Q 2300 622 2425 820 
Q 2550 1019 2634 1356 
Q 2719 1694 2719 2044 
Q 2719 2081 2716 2156 
Q 2547 1888 2255 1720 
Q 1963 1553 1622 1553 
Q 1053 1553 659 1965 
Q 266 2378 266 3053 
Q 266 3750 677 4175 
Q 1088 4600 1706 4600 
Q 2153 4600 2523 4359 
Q 2894 4119 3086 3673 
Q 3278 3228 3278 2384 
Q 3278 1506 3087 986 
Q 2897 466 2520 194 
Q 2144 -78 1638 -78 
Q 1100 -78 759 220 
Q 419 519 350 1059 
z
M 2653 3081 
Q 2653 3566 2395 3850 
Q 2138 4134 1775 4134 
Q 1400 4134 1122 3828 
Q 844 3522 844 3034 
Q 844 2597 1108 2323 
Q 1372 2050 1759 2050 
Q 2150 2050 2401 2323 
Q 2653 2597 2653 3081 
z
" transform="scale(0.015625)"/>
     </defs>
     <use xlink:href="#ArialMT-33"/>
     <use xlink:href="#ArialMT-34" transform="translate(55.615234 0)"/>
     <use xlink:href="#ArialMT-2e" transform="translate(111.230469 0)"/>
     <use xlink:href="#ArialMT-39" transform="translate(139.013672 0)"/>
     <use xlink:href="#ArialMT-20" transform="translate(194.628906 0)"/>
     <use xlink:href="#ArialMT-25" transform="translate(222.412109 0)"/>
    </g>
   </g>
   <g id="text_32">
    <!-- 21.8 % -->
    <g style="fill: #262626" transform="translate(600.6275 108.923662) scale(0.08 -0.08)">
     <defs>
      <path id="ArialMT-38" d="M 1131 2484 
Q 781 2613 612 2850 
Q 444 3088 444 3419 
Q 444 3919 803 4259 
Q 1163 4600 1759 4600 
Q 2359 4600 2725 4251 
Q 3091 3903 3091 3403 
Q 3091 3084 2923 2848 
Q 2756 2613 2416 2484 
Q 2838 2347 3058 2040 
Q 3278 1734 3278 1309 
Q 3278 722 2862 322 
Q 2447 -78 1769 -78 
Q 1091 -78 675 323 
Q 259 725 259 1325 
Q 259 1772 486 2073 
Q 713 2375 1131 2484 
z
M 1019 3438 
Q 1019 3113 1228 2906 
Q 1438 2700 1772 2700 
Q 2097 2700 2305 2904 
Q 2513 3109 2513 3406 
Q 2513 3716 2298 3927 
Q 2084 4138 1766 4138 
Q 1444 4138 1231 3931 
Q 1019 3725 1019 3438 
z
M 838 1322 
Q 838 1081 952 856 
Q 1066 631 1291 507 
Q 1516 384 1775 384 
Q 2178 384 2440 643 
Q 2703 903 2703 1303 
Q 2703 1709 2433 1975 
Q 2163 2241 1756 2241 
Q 1359 2241 1098 1978 
Q 838 1716 838 1322 
z
" transform="scale(0.015625)"/>
     </defs>
     <use xlink:href="#ArialMT-32"/>
     <use xlink:href="#ArialMT-31" transform="translate(55.615234 0)"/>
     <use xlink:href="#ArialMT-2e" transform="translate(111.230469 0)"/>
     <use xlink:href="#ArialMT-38" transform="translate(139.013672 0)"/>
     <use xlink:href="#ArialMT-20" transform="translate(194.628906 0)"/>
     <use xlink:href="#ArialMT-25" transform="translate(222.412109 0)"/>
    </g>
   </g>
   <g id="text_33">
    <!-- 7.9 % -->
    <g style="fill: #262626" transform="translate(665.715511 154.059964) scale(0.08 -0.08)">
     <defs>
      <path id="ArialMT-37" d="M 303 3981 
L 303 4522 
L 3269 4522 
L 3269 4084 
Q 2831 3619 2401 2847 
Q 1972 2075 1738 1259 
Q 1569 684 1522 0 
L 944 0 
Q 953 541 1156 1306 
Q 1359 2072 1739 2783 
Q 2119 3494 2547 3981 
L 303 3981 
z
" transform="scale(0.015625)"/>
     </defs>
     <use xlink:href="#ArialMT-37"/>
     <use xlink:href="#ArialMT-2e" transform="translate(55.615234 0)"/>
     <use xlink:href="#ArialMT-39" transform="translate(83.398438 0)"/>
     <use xlink:href="#ArialMT-20" transform="translate(139.013672 0)"/>
     <use xlink:href="#ArialMT-25" transform="translate(166.796875 0)"/>
    </g>
   </g>
   <g id="text_34">
    <!-- 10.0 % -->
    <g style="fill: #262626" transform="translate(726.354773 147.361752) scale(0.08 -0.08)">
     <use xlink:href="#ArialMT-31"/>
     <use xlink:href="#ArialMT-30" transform="translate(55.615234 0)"/>
     <use xlink:href="#ArialMT-2e" transform="translate(111.230469 0)"/>
     <use xlink:href="#ArialMT-30" transform="translate(139.013672 0)"/>
     <use xlink:href="#ArialMT-20" transform="translate(194.628906 0)"/>
     <use xlink:href="#ArialMT-25" transform="translate(222.412109 0)"/>
    </g>
   </g>
   <g id="text_35">
    <!-- Discretized - Product Price -->
    <g style="fill: #262626" transform="translate(547.979766 52.3395) scale(0.11 -0.11)">
     <defs>
      <path id="ArialMT-44" d="M 494 0 
L 494 4581 
L 2072 4581 
Q 2606 4581 2888 4516 
Q 3281 4425 3559 4188 
Q 3922 3881 4101 3404 
Q 4281 2928 4281 2316 
Q 4281 1794 4159 1391 
Q 4038 988 3847 723 
Q 3656 459 3429 307 
Q 3203 156 2883 78 
Q 2563 0 2147 0 
L 494 0 
z
M 1100 541 
L 2078 541 
Q 2531 541 2789 625 
Q 3047 709 3200 863 
Q 3416 1078 3536 1442 
Q 3656 1806 3656 2325 
Q 3656 3044 3420 3430 
Q 3184 3816 2847 3947 
Q 2603 4041 2063 4041 
L 1100 4041 
L 1100 541 
z
" transform="scale(0.015625)"/>
      <path id="ArialMT-73" d="M 197 991 
L 753 1078 
Q 800 744 1014 566 
Q 1228 388 1613 388 
Q 2000 388 2187 545 
Q 2375 703 2375 916 
Q 2375 1106 2209 1216 
Q 2094 1291 1634 1406 
Q 1016 1563 777 1677 
Q 538 1791 414 1992 
Q 291 2194 291 2438 
Q 291 2659 392 2848 
Q 494 3038 669 3163 
Q 800 3259 1026 3326 
Q 1253 3394 1513 3394 
Q 1903 3394 2198 3281 
Q 2494 3169 2634 2976 
Q 2775 2784 2828 2463 
L 2278 2388 
Q 2241 2644 2061 2787 
Q 1881 2931 1553 2931 
Q 1166 2931 1000 2803 
Q 834 2675 834 2503 
Q 834 2394 903 2306 
Q 972 2216 1119 2156 
Q 1203 2125 1616 2013 
Q 2213 1853 2448 1751 
Q 2684 1650 2818 1456 
Q 2953 1263 2953 975 
Q 2953 694 2789 445 
Q 2625 197 2315 61 
Q 2006 -75 1616 -75 
Q 969 -75 630 194 
Q 291 463 197 991 
z
" transform="scale(0.015625)"/>
      <path id="ArialMT-7a" d="M 125 0 
L 125 456 
L 2238 2881 
Q 1878 2863 1603 2863 
L 250 2863 
L 250 3319 
L 2963 3319 
L 2963 2947 
L 1166 841 
L 819 456 
Q 1197 484 1528 484 
L 3063 484 
L 3063 0 
L 125 0 
z
" transform="scale(0.015625)"/>
     </defs>
     <use xlink:href="#ArialMT-44"/>
     <use xlink:href="#ArialMT-69" transform="translate(72.216797 0)"/>
     <use xlink:href="#ArialMT-73" transform="translate(94.433594 0)"/>
     <use xlink:href="#ArialMT-63" transform="translate(144.433594 0)"/>
     <use xlink:href="#ArialMT-72" transform="translate(194.433594 0)"/>
     <use xlink:href="#ArialMT-65" transform="translate(227.734375 0)"/>
     <use xlink:href="#ArialMT-74" transform="translate(283.349609 0)"/>
     <use xlink:href="#ArialMT-69" transform="translate(311.132812 0)"/>
     <use xlink:href="#ArialMT-7a" transform="translate(333.349609 0)"/>
     <use xlink:href="#ArialMT-65" transform="translate(383.349609 0)"/>
     <use xlink:href="#ArialMT-64" transform="translate(438.964844 0)"/>
     <use xlink:href="#ArialMT-20" transform="translate(494.580078 0)"/>
     <use xlink:href="#ArialMT-2d" transform="translate(522.363281 0)"/>
     <use xlink:href="#ArialMT-20" transform="translate(555.664062 0)"/>
     <use xlink:href="#ArialMT-50" transform="translate(583.447266 0)"/>
     <use xlink:href="#ArialMT-72" transform="translate(650.146484 0)"/>
     <use xlink:href="#ArialMT-6f" transform="translate(683.447266 0)"/>
     <use xlink:href="#ArialMT-64" transform="translate(739.0625 0)"/>
     <use xlink:href="#ArialMT-75" transform="translate(794.677734 0)"/>
     <use xlink:href="#ArialMT-63" transform="translate(850.292969 0)"/>
     <use xlink:href="#ArialMT-74" transform="translate(900.292969 0)"/>
     <use xlink:href="#ArialMT-20" transform="translate(928.076172 0)"/>
     <use xlink:href="#ArialMT-50" transform="translate(955.859375 0)"/>
     <use xlink:href="#ArialMT-72" transform="translate(1022.558594 0)"/>
     <use xlink:href="#ArialMT-69" transform="translate(1055.859375 0)"/>
     <use xlink:href="#ArialMT-63" transform="translate(1078.076172 0)"/>
     <use xlink:href="#ArialMT-65" transform="translate(1128.076172 0)"/>
    </g>
   </g>
  </g>
  <g id="axes_3">
   <g id="patch_57">
    <path d="M 57.6 360.9 
L 389.52 360.9 
L 389.52 241.72975 
L 57.6 241.72975 
z
" style="fill: #ffffff"/>
   </g>
   <g id="matplotlib.axis_5">
    <g id="xtick_15">
     <g id="line2d_25">
      <path d="M 66.534858 360.9 
L 66.534858 241.72975 
" clip-path="url(#p1a6b6e859b)" style="fill: none; stroke-dasharray: 1.85,0.8; stroke-dashoffset: 0; stroke: #cccccc; stroke-opacity: 0.25; stroke-width: 0.5"/>
     </g>
     <g id="text_36">
      <!-- 0 -->
      <g style="fill: #262626" transform="translate(64.310483 376.12625) scale(0.08 -0.08)">
       <use xlink:href="#ArialMT-30"/>
      </g>
     </g>
    </g>
    <g id="xtick_16">
     <g id="line2d_26">
      <path d="M 128.120589 360.9 
L 128.120589 241.72975 
" clip-path="url(#p1a6b6e859b)" style="fill: none; stroke-dasharray: 1.85,0.8; stroke-dashoffset: 0; stroke: #cccccc; stroke-opacity: 0.25; stroke-width: 0.5"/>
     </g>
     <g id="text_37">
      <!-- 100 -->
      <g style="fill: #262626" transform="translate(121.447464 376.12625) scale(0.08 -0.08)">
       <use xlink:href="#ArialMT-31"/>
       <use xlink:href="#ArialMT-30" transform="translate(55.615234 0)"/>
       <use xlink:href="#ArialMT-30" transform="translate(111.230469 0)"/>
      </g>
     </g>
    </g>
    <g id="xtick_17">
     <g id="line2d_27">
      <path d="M 189.70632 360.9 
L 189.70632 241.72975 
" clip-path="url(#p1a6b6e859b)" style="fill: none; stroke-dasharray: 1.85,0.8; stroke-dashoffset: 0; stroke: #cccccc; stroke-opacity: 0.25; stroke-width: 0.5"/>
     </g>
     <g id="text_38">
      <!-- 200 -->
      <g style="fill: #262626" transform="translate(183.033195 376.12625) scale(0.08 -0.08)">
       <use xlink:href="#ArialMT-32"/>
       <use xlink:href="#ArialMT-30" transform="translate(55.615234 0)"/>
       <use xlink:href="#ArialMT-30" transform="translate(111.230469 0)"/>
      </g>
     </g>
    </g>
    <g id="xtick_18">
     <g id="line2d_28">
      <path d="M 251.292051 360.9 
L 251.292051 241.72975 
" clip-path="url(#p1a6b6e859b)" style="fill: none; stroke-dasharray: 1.85,0.8; stroke-dashoffset: 0; stroke: #cccccc; stroke-opacity: 0.25; stroke-width: 0.5"/>
     </g>
     <g id="text_39">
      <!-- 300 -->
      <g style="fill: #262626" transform="translate(244.618926 376.12625) scale(0.08 -0.08)">
       <use xlink:href="#ArialMT-33"/>
       <use xlink:href="#ArialMT-30" transform="translate(55.615234 0)"/>
       <use xlink:href="#ArialMT-30" transform="translate(111.230469 0)"/>
      </g>
     </g>
    </g>
    <g id="xtick_19">
     <g id="line2d_29">
      <path d="M 312.877782 360.9 
L 312.877782 241.72975 
" clip-path="url(#p1a6b6e859b)" style="fill: none; stroke-dasharray: 1.85,0.8; stroke-dashoffset: 0; stroke: #cccccc; stroke-opacity: 0.25; stroke-width: 0.5"/>
     </g>
     <g id="text_40">
      <!-- 400 -->
      <g style="fill: #262626" transform="translate(306.204657 376.12625) scale(0.08 -0.08)">
       <use xlink:href="#ArialMT-34"/>
       <use xlink:href="#ArialMT-30" transform="translate(55.615234 0)"/>
       <use xlink:href="#ArialMT-30" transform="translate(111.230469 0)"/>
      </g>
     </g>
    </g>
    <g id="xtick_20">
     <g id="line2d_30">
      <path d="M 374.463513 360.9 
L 374.463513 241.72975 
" clip-path="url(#p1a6b6e859b)" style="fill: none; stroke-dasharray: 1.85,0.8; stroke-dashoffset: 0; stroke: #cccccc; stroke-opacity: 0.25; stroke-width: 0.5"/>
     </g>
     <g id="text_41">
      <!-- 500 -->
      <g style="fill: #262626" transform="translate(367.790388 376.12625) scale(0.08 -0.08)">
       <use xlink:href="#ArialMT-35"/>
       <use xlink:href="#ArialMT-30" transform="translate(55.615234 0)"/>
       <use xlink:href="#ArialMT-30" transform="translate(111.230469 0)"/>
      </g>
     </g>
    </g>
    <g id="text_42">
     <!-- Value -->
     <g style="fill: #262626" transform="translate(212.383125 388.158281) scale(0.09 -0.09)">
      <use xlink:href="#ArialMT-56"/>
      <use xlink:href="#ArialMT-61" transform="translate(59.324219 0)"/>
      <use xlink:href="#ArialMT-6c" transform="translate(114.939453 0)"/>
      <use xlink:href="#ArialMT-75" transform="translate(137.15625 0)"/>
      <use xlink:href="#ArialMT-65" transform="translate(192.771484 0)"/>
     </g>
    </g>
   </g>
   <g id="matplotlib.axis_6">
    <g id="ytick_11">
     <g id="line2d_31">
      <path d="M 57.6 360.9 
L 389.52 360.9 
" clip-path="url(#p1a6b6e859b)" style="fill: none; stroke-dasharray: 1.85,0.8; stroke-dashoffset: 0; stroke: #cccccc; stroke-opacity: 0.25; stroke-width: 0.5"/>
     </g>
     <g id="text_43">
      <!-- 0 -->
      <g style="fill: #262626" transform="translate(43.65125 363.763125) scale(0.08 -0.08)">
       <use xlink:href="#ArialMT-30"/>
      </g>
     </g>
    </g>
    <g id="ytick_12">
     <g id="line2d_32">
      <path d="M 57.6 336.862497 
L 389.52 336.862497 
" clip-path="url(#p1a6b6e859b)" style="fill: none; stroke-dasharray: 1.85,0.8; stroke-dashoffset: 0; stroke: #cccccc; stroke-opacity: 0.25; stroke-width: 0.5"/>
     </g>
     <g id="text_44">
      <!-- 5000 -->
      <g style="fill: #262626" transform="translate(30.305 339.725622) scale(0.08 -0.08)">
       <use xlink:href="#ArialMT-35"/>
       <use xlink:href="#ArialMT-30" transform="translate(55.615234 0)"/>
       <use xlink:href="#ArialMT-30" transform="translate(111.230469 0)"/>
       <use xlink:href="#ArialMT-30" transform="translate(166.845703 0)"/>
      </g>
     </g>
    </g>
    <g id="ytick_13">
     <g id="line2d_33">
      <path d="M 57.6 312.824993 
L 389.52 312.824993 
" clip-path="url(#p1a6b6e859b)" style="fill: none; stroke-dasharray: 1.85,0.8; stroke-dashoffset: 0; stroke: #cccccc; stroke-opacity: 0.25; stroke-width: 0.5"/>
     </g>
     <g id="text_45">
      <!-- 10000 -->
      <g style="fill: #262626" transform="translate(25.85625 315.688118) scale(0.08 -0.08)">
       <use xlink:href="#ArialMT-31"/>
       <use xlink:href="#ArialMT-30" transform="translate(55.615234 0)"/>
       <use xlink:href="#ArialMT-30" transform="translate(111.230469 0)"/>
       <use xlink:href="#ArialMT-30" transform="translate(166.845703 0)"/>
       <use xlink:href="#ArialMT-30" transform="translate(222.460938 0)"/>
      </g>
     </g>
    </g>
    <g id="ytick_14">
     <g id="line2d_34">
      <path d="M 57.6 288.78749 
L 389.52 288.78749 
" clip-path="url(#p1a6b6e859b)" style="fill: none; stroke-dasharray: 1.85,0.8; stroke-dashoffset: 0; stroke: #cccccc; stroke-opacity: 0.25; stroke-width: 0.5"/>
     </g>
     <g id="text_46">
      <!-- 15000 -->
      <g style="fill: #262626" transform="translate(25.85625 291.650615) scale(0.08 -0.08)">
       <use xlink:href="#ArialMT-31"/>
       <use xlink:href="#ArialMT-35" transform="translate(55.615234 0)"/>
       <use xlink:href="#ArialMT-30" transform="translate(111.230469 0)"/>
       <use xlink:href="#ArialMT-30" transform="translate(166.845703 0)"/>
       <use xlink:href="#ArialMT-30" transform="translate(222.460938 0)"/>
      </g>
     </g>
    </g>
    <g id="ytick_15">
     <g id="line2d_35">
      <path d="M 57.6 264.749986 
L 389.52 264.749986 
" clip-path="url(#p1a6b6e859b)" style="fill: none; stroke-dasharray: 1.85,0.8; stroke-dashoffset: 0; stroke: #cccccc; stroke-opacity: 0.25; stroke-width: 0.5"/>
     </g>
     <g id="text_47">
      <!-- 20000 -->
      <g style="fill: #262626" transform="translate(25.85625 267.613111) scale(0.08 -0.08)">
       <use xlink:href="#ArialMT-32"/>
       <use xlink:href="#ArialMT-30" transform="translate(55.615234 0)"/>
       <use xlink:href="#ArialMT-30" transform="translate(111.230469 0)"/>
       <use xlink:href="#ArialMT-30" transform="translate(166.845703 0)"/>
       <use xlink:href="#ArialMT-30" transform="translate(222.460938 0)"/>
      </g>
     </g>
    </g>
    <g id="text_48">
     <!-- Count -->
     <g style="fill: #262626" transform="translate(20.0675 313.322141) rotate(-90) scale(0.09 -0.09)">
      <use xlink:href="#ArialMT-43"/>
      <use xlink:href="#ArialMT-6f" transform="translate(72.216797 0)"/>
      <use xlink:href="#ArialMT-75" transform="translate(127.832031 0)"/>
      <use xlink:href="#ArialMT-6e" transform="translate(183.447266 0)"/>
      <use xlink:href="#ArialMT-74" transform="translate(239.0625 0)"/>
     </g>
    </g>
   </g>
   <g id="patch_58">
    <path d="M 72.687273 360.9 
L 80.230909 360.9 
L 80.230909 357.510712 
L 72.687273 357.510712 
z
" clip-path="url(#p1a6b6e859b)" style="fill: #4472c4; opacity: 0.85; stroke: #ffffff; stroke-width: 0.7; stroke-linejoin: miter"/>
   </g>
   <g id="patch_59">
    <path d="M 80.230909 360.9 
L 87.774545 360.9 
L 87.774545 353.741631 
L 80.230909 353.741631 
z
" clip-path="url(#p1a6b6e859b)" style="fill: #4472c4; opacity: 0.85; stroke: #ffffff; stroke-width: 0.7; stroke-linejoin: miter"/>
   </g>
   <g id="patch_60">
    <path d="M 87.774545 360.9 
L 95.318182 360.9 
L 95.318182 347.688988 
L 87.774545 347.688988 
z
" clip-path="url(#p1a6b6e859b)" style="fill: #4472c4; opacity: 0.85; stroke: #ffffff; stroke-width: 0.7; stroke-linejoin: miter"/>
   </g>
   <g id="patch_61">
    <path d="M 95.318182 360.9 
L 102.861818 360.9 
L 102.861818 322.151544 
L 95.318182 322.151544 
z
" clip-path="url(#p1a6b6e859b)" style="fill: #4472c4; opacity: 0.85; stroke: #ffffff; stroke-width: 0.7; stroke-linejoin: miter"/>
   </g>
   <g id="patch_62">
    <path d="M 102.861818 360.9 
L 110.405455 360.9 
L 110.405455 334.814501 
L 102.861818 334.814501 
z
" clip-path="url(#p1a6b6e859b)" style="fill: #4472c4; opacity: 0.85; stroke: #ffffff; stroke-width: 0.7; stroke-linejoin: miter"/>
   </g>
   <g id="patch_63">
    <path d="M 110.405455 360.9 
L 117.949091 360.9 
L 117.949091 346.689028 
L 110.405455 346.689028 
z
" clip-path="url(#p1a6b6e859b)" style="fill: #4472c4; opacity: 0.85; stroke: #ffffff; stroke-width: 0.7; stroke-linejoin: miter"/>
   </g>
   <g id="patch_64">
    <path d="M 117.949091 360.9 
L 125.492727 360.9 
L 125.492727 358.106842 
L 117.949091 358.106842 
z
" clip-path="url(#p1a6b6e859b)" style="fill: #4472c4; opacity: 0.85; stroke: #ffffff; stroke-width: 0.7; stroke-linejoin: miter"/>
   </g>
   <g id="patch_65">
    <path d="M 125.492727 360.9 
L 133.036364 360.9 
L 133.036364 312.175981 
L 125.492727 312.175981 
z
" clip-path="url(#p1a6b6e859b)" style="fill: #4472c4; opacity: 0.85; stroke: #ffffff; stroke-width: 0.7; stroke-linejoin: miter"/>
   </g>
   <g id="patch_66">
    <path d="M 133.036364 360.9 
L 140.58 360.9 
L 140.58 329.300298 
L 133.036364 329.300298 
z
" clip-path="url(#p1a6b6e859b)" style="fill: #4472c4; opacity: 0.85; stroke: #ffffff; stroke-width: 0.7; stroke-linejoin: miter"/>
   </g>
   <g id="patch_67">
    <path d="M 140.58 360.9 
L 148.123636 360.9 
L 148.123636 267.105662 
L 140.58 267.105662 
z
" clip-path="url(#p1a6b6e859b)" style="fill: #4472c4; opacity: 0.85; stroke: #ffffff; stroke-width: 0.7; stroke-linejoin: miter"/>
   </g>
   <g id="patch_68">
    <path d="M 148.123636 360.9 
L 155.667273 360.9 
L 155.667273 358.659705 
L 148.123636 358.659705 
z
" clip-path="url(#p1a6b6e859b)" style="fill: #4472c4; opacity: 0.85; stroke: #ffffff; stroke-width: 0.7; stroke-linejoin: miter"/>
   </g>
   <g id="patch_69">
    <path d="M 155.667273 360.9 
L 163.210909 360.9 
L 163.210909 326.459065 
L 155.667273 326.459065 
z
" clip-path="url(#p1a6b6e859b)" style="fill: #4472c4; opacity: 0.85; stroke: #ffffff; stroke-width: 0.7; stroke-linejoin: miter"/>
   </g>
   <g id="patch_70">
    <path d="M 163.210909 360.9 
L 170.754545 360.9 
L 170.754545 350.068701 
L 163.210909 350.068701 
z
" clip-path="url(#p1a6b6e859b)" style="fill: #4472c4; opacity: 0.85; stroke: #ffffff; stroke-width: 0.7; stroke-linejoin: miter"/>
   </g>
   <g id="patch_71">
    <path d="M 170.754545 360.9 
L 178.298182 360.9 
L 178.298182 339.684499 
L 170.754545 339.684499 
z
" clip-path="url(#p1a6b6e859b)" style="fill: #4472c4; opacity: 0.85; stroke: #ffffff; stroke-width: 0.7; stroke-linejoin: miter"/>
   </g>
   <g id="patch_72">
    <path d="M 178.298182 360.9 
L 185.841818 360.9 
L 185.841818 360.409635 
L 178.298182 360.409635 
z
" clip-path="url(#p1a6b6e859b)" style="fill: #4472c4; opacity: 0.85; stroke: #ffffff; stroke-width: 0.7; stroke-linejoin: miter"/>
   </g>
   <g id="patch_73">
    <path d="M 185.841818 360.9 
L 193.385455 360.9 
L 193.385455 247.404524 
L 185.841818 247.404524 
z
" clip-path="url(#p1a6b6e859b)" style="fill: #4472c4; opacity: 0.85; stroke: #ffffff; stroke-width: 0.7; stroke-linejoin: miter"/>
   </g>
   <g id="patch_74">
    <path d="M 193.385455 360.9 
L 200.929091 360.9 
L 200.929091 360.039457 
L 193.385455 360.039457 
z
" clip-path="url(#p1a6b6e859b)" style="fill: #4472c4; opacity: 0.85; stroke: #ffffff; stroke-width: 0.7; stroke-linejoin: miter"/>
   </g>
   <g id="patch_75">
    <path d="M 200.929091 360.9 
L 208.472727 360.9 
L 208.472727 360.1308 
L 200.929091 360.1308 
z
" clip-path="url(#p1a6b6e859b)" style="fill: #4472c4; opacity: 0.85; stroke: #ffffff; stroke-width: 0.7; stroke-linejoin: miter"/>
   </g>
   <g id="patch_76">
    <path d="M 208.472727 360.9 
L 216.016364 360.9 
L 216.016364 340.170057 
L 208.472727 340.170057 
z
" clip-path="url(#p1a6b6e859b)" style="fill: #4472c4; opacity: 0.85; stroke: #ffffff; stroke-width: 0.7; stroke-linejoin: miter"/>
   </g>
   <g id="patch_77">
    <path d="M 216.016364 360.9 
L 223.56 360.9 
L 223.56 328.074385 
L 216.016364 328.074385 
z
" clip-path="url(#p1a6b6e859b)" style="fill: #4472c4; opacity: 0.85; stroke: #ffffff; stroke-width: 0.7; stroke-linejoin: miter"/>
   </g>
   <g id="patch_78">
    <path d="M 223.56 360.9 
L 231.103636 360.9 
L 231.103636 360.058687 
L 223.56 360.058687 
z
" clip-path="url(#p1a6b6e859b)" style="fill: #4472c4; opacity: 0.85; stroke: #ffffff; stroke-width: 0.7; stroke-linejoin: miter"/>
   </g>
   <g id="patch_79">
    <path d="M 231.103636 360.9 
L 238.647273 360.9 
L 238.647273 360.640395 
L 231.103636 360.640395 
z
" clip-path="url(#p1a6b6e859b)" style="fill: #4472c4; opacity: 0.85; stroke: #ffffff; stroke-width: 0.7; stroke-linejoin: miter"/>
   </g>
   <g id="patch_80">
    <path d="M 238.647273 360.9 
L 246.190909 360.9 
L 246.190909 360.621165 
L 238.647273 360.621165 
z
" clip-path="url(#p1a6b6e859b)" style="fill: #4472c4; opacity: 0.85; stroke: #ffffff; stroke-width: 0.7; stroke-linejoin: miter"/>
   </g>
   <g id="patch_81">
    <path d="M 246.190909 360.9 
L 253.734545 360.9 
L 253.734545 275.638975 
L 246.190909 275.638975 
z
" clip-path="url(#p1a6b6e859b)" style="fill: #4472c4; opacity: 0.85; stroke: #ffffff; stroke-width: 0.7; stroke-linejoin: miter"/>
   </g>
   <g id="patch_82">
    <path d="M 253.734545 360.9 
L 261.278182 360.9 
L 261.278182 360.9 
L 253.734545 360.9 
z
" clip-path="url(#p1a6b6e859b)" style="fill: #4472c4; opacity: 0.85; stroke: #ffffff; stroke-width: 0.7; stroke-linejoin: miter"/>
   </g>
   <g id="patch_83">
    <path d="M 261.278182 360.9 
L 268.821818 360.9 
L 268.821818 360.582705 
L 261.278182 360.582705 
z
" clip-path="url(#p1a6b6e859b)" style="fill: #4472c4; opacity: 0.85; stroke: #ffffff; stroke-width: 0.7; stroke-linejoin: miter"/>
   </g>
   <g id="patch_84">
    <path d="M 268.821818 360.9 
L 276.365455 360.9 
L 276.365455 360.9 
L 268.821818 360.9 
z
" clip-path="url(#p1a6b6e859b)" style="fill: #4472c4; opacity: 0.85; stroke: #ffffff; stroke-width: 0.7; stroke-linejoin: miter"/>
   </g>
   <g id="patch_85">
    <path d="M 276.365455 360.9 
L 283.909091 360.9 
L 283.909091 360.539437 
L 276.365455 360.539437 
z
" clip-path="url(#p1a6b6e859b)" style="fill: #4472c4; opacity: 0.85; stroke: #ffffff; stroke-width: 0.7; stroke-linejoin: miter"/>
   </g>
   <g id="patch_86">
    <path d="M 283.909091 360.9 
L 291.452727 360.9 
L 291.452727 360.9 
L 283.909091 360.9 
z
" clip-path="url(#p1a6b6e859b)" style="fill: #4472c4; opacity: 0.85; stroke: #ffffff; stroke-width: 0.7; stroke-linejoin: miter"/>
   </g>
   <g id="patch_87">
    <path d="M 291.452727 360.9 
L 298.996364 360.9 
L 298.996364 360.9 
L 291.452727 360.9 
z
" clip-path="url(#p1a6b6e859b)" style="fill: #4472c4; opacity: 0.85; stroke: #ffffff; stroke-width: 0.7; stroke-linejoin: miter"/>
   </g>
   <g id="patch_88">
    <path d="M 298.996364 360.9 
L 306.54 360.9 
L 306.54 360.9 
L 298.996364 360.9 
z
" clip-path="url(#p1a6b6e859b)" style="fill: #4472c4; opacity: 0.85; stroke: #ffffff; stroke-width: 0.7; stroke-linejoin: miter"/>
   </g>
   <g id="patch_89">
    <path d="M 306.54 360.9 
L 314.083636 360.9 
L 314.083636 281.528164 
L 306.54 281.528164 
z
" clip-path="url(#p1a6b6e859b)" style="fill: #4472c4; opacity: 0.85; stroke: #ffffff; stroke-width: 0.7; stroke-linejoin: miter"/>
   </g>
   <g id="patch_90">
    <path d="M 314.083636 360.9 
L 321.627273 360.9 
L 321.627273 360.9 
L 314.083636 360.9 
z
" clip-path="url(#p1a6b6e859b)" style="fill: #4472c4; opacity: 0.85; stroke: #ffffff; stroke-width: 0.7; stroke-linejoin: miter"/>
   </g>
   <g id="patch_91">
    <path d="M 321.627273 360.9 
L 329.170909 360.9 
L 329.170909 360.9 
L 321.627273 360.9 
z
" clip-path="url(#p1a6b6e859b)" style="fill: #4472c4; opacity: 0.85; stroke: #ffffff; stroke-width: 0.7; stroke-linejoin: miter"/>
   </g>
   <g id="patch_92">
    <path d="M 329.170909 360.9 
L 336.714545 360.9 
L 336.714545 360.9 
L 329.170909 360.9 
z
" clip-path="url(#p1a6b6e859b)" style="fill: #4472c4; opacity: 0.85; stroke: #ffffff; stroke-width: 0.7; stroke-linejoin: miter"/>
   </g>
   <g id="patch_93">
    <path d="M 336.714545 360.9 
L 344.258182 360.9 
L 344.258182 360.9 
L 336.714545 360.9 
z
" clip-path="url(#p1a6b6e859b)" style="fill: #4472c4; opacity: 0.85; stroke: #ffffff; stroke-width: 0.7; stroke-linejoin: miter"/>
   </g>
   <g id="patch_94">
    <path d="M 344.258182 360.9 
L 351.801818 360.9 
L 351.801818 360.9 
L 344.258182 360.9 
z
" clip-path="url(#p1a6b6e859b)" style="fill: #4472c4; opacity: 0.85; stroke: #ffffff; stroke-width: 0.7; stroke-linejoin: miter"/>
   </g>
   <g id="patch_95">
    <path d="M 351.801818 360.9 
L 359.345455 360.9 
L 359.345455 360.9 
L 351.801818 360.9 
z
" clip-path="url(#p1a6b6e859b)" style="fill: #4472c4; opacity: 0.85; stroke: #ffffff; stroke-width: 0.7; stroke-linejoin: miter"/>
   </g>
   <g id="patch_96">
    <path d="M 359.345455 360.9 
L 366.889091 360.9 
L 366.889091 360.9 
L 359.345455 360.9 
z
" clip-path="url(#p1a6b6e859b)" style="fill: #4472c4; opacity: 0.85; stroke: #ffffff; stroke-width: 0.7; stroke-linejoin: miter"/>
   </g>
   <g id="patch_97">
    <path d="M 366.889091 360.9 
L 374.432727 360.9 
L 374.432727 350.929244 
L 366.889091 350.929244 
z
" clip-path="url(#p1a6b6e859b)" style="fill: #4472c4; opacity: 0.85; stroke: #ffffff; stroke-width: 0.7; stroke-linejoin: miter"/>
   </g>
   <g id="patch_98">
    <path d="M 57.6 360.9 
L 57.6 241.72975 
" style="fill: none; stroke: #cccccc; stroke-width: 1.25; stroke-linejoin: miter; stroke-linecap: square"/>
   </g>
   <g id="patch_99">
    <path d="M 389.52 360.9 
L 389.52 241.72975 
" style="fill: none; stroke: #cccccc; stroke-width: 1.25; stroke-linejoin: miter; stroke-linecap: square"/>
   </g>
   <g id="patch_100">
    <path d="M 57.6 360.9 
L 389.52 360.9 
" style="fill: none; stroke: #cccccc; stroke-width: 1.25; stroke-linejoin: miter; stroke-linecap: square"/>
   </g>
   <g id="patch_101">
    <path d="M 57.6 241.72975 
L 389.52 241.72975 
" style="fill: none; stroke: #cccccc; stroke-width: 1.25; stroke-linejoin: miter; stroke-linecap: square"/>
   </g>
   <g id="text_49">
    <!-- Original - Sales -->
    <g style="fill: #262626" transform="translate(185.964062 231.72975) scale(0.11 -0.11)">
     <defs>
      <path id="ArialMT-53" d="M 288 1472 
L 859 1522 
Q 900 1178 1048 958 
Q 1197 738 1509 602 
Q 1822 466 2213 466 
Q 2559 466 2825 569 
Q 3091 672 3220 851 
Q 3350 1031 3350 1244 
Q 3350 1459 3225 1620 
Q 3100 1781 2813 1891 
Q 2628 1963 1997 2114 
Q 1366 2266 1113 2400 
Q 784 2572 623 2826 
Q 463 3081 463 3397 
Q 463 3744 659 4045 
Q 856 4347 1234 4503 
Q 1613 4659 2075 4659 
Q 2584 4659 2973 4495 
Q 3363 4331 3572 4012 
Q 3781 3694 3797 3291 
L 3216 3247 
Q 3169 3681 2898 3903 
Q 2628 4125 2100 4125 
Q 1550 4125 1298 3923 
Q 1047 3722 1047 3438 
Q 1047 3191 1225 3031 
Q 1400 2872 2139 2705 
Q 2878 2538 3153 2413 
Q 3553 2228 3743 1945 
Q 3934 1663 3934 1294 
Q 3934 928 3725 604 
Q 3516 281 3123 101 
Q 2731 -78 2241 -78 
Q 1619 -78 1198 103 
Q 778 284 539 648 
Q 300 1013 288 1472 
z
" transform="scale(0.015625)"/>
     </defs>
     <use xlink:href="#ArialMT-4f"/>
     <use xlink:href="#ArialMT-72" transform="translate(77.783203 0)"/>
     <use xlink:href="#ArialMT-69" transform="translate(111.083984 0)"/>
     <use xlink:href="#ArialMT-67" transform="translate(133.300781 0)"/>
     <use xlink:href="#ArialMT-69" transform="translate(188.916016 0)"/>
     <use xlink:href="#ArialMT-6e" transform="translate(211.132812 0)"/>
     <use xlink:href="#ArialMT-61" transform="translate(266.748047 0)"/>
     <use xlink:href="#ArialMT-6c" transform="translate(322.363281 0)"/>
     <use xlink:href="#ArialMT-20" transform="translate(344.580078 0)"/>
     <use xlink:href="#ArialMT-2d" transform="translate(372.363281 0)"/>
     <use xlink:href="#ArialMT-20" transform="translate(405.664062 0)"/>
     <use xlink:href="#ArialMT-53" transform="translate(433.447266 0)"/>
     <use xlink:href="#ArialMT-61" transform="translate(500.146484 0)"/>
     <use xlink:href="#ArialMT-6c" transform="translate(555.761719 0)"/>
     <use xlink:href="#ArialMT-65" transform="translate(577.978516 0)"/>
     <use xlink:href="#ArialMT-73" transform="translate(633.59375 0)"/>
    </g>
   </g>
  </g>
  <g id="axes_4">
   <g id="patch_102">
    <path d="M 447.12 360.9 
L 779.04 360.9 
L 779.04 241.72975 
L 447.12 241.72975 
z
" style="fill: #ffffff"/>
   </g>
   <g id="matplotlib.axis_7">
    <g id="xtick_21">
     <g id="line2d_36">
      <path d="M 487.352727 360.9 
L 487.352727 241.72975 
" clip-path="url(#pdfd4ccd751)" style="fill: none; stroke: #cccccc; stroke-linecap: round"/>
     </g>
     <g id="text_50">
      <!-- Q1 -->
      <g style="fill: #262626" transform="translate(482.017102 376.12625) scale(0.08 -0.08)">
       <defs>
        <path id="ArialMT-51" d="M 3966 491 
Q 4388 200 4744 66 
L 4566 -356 
Q 4072 -178 3581 206 
Q 3072 -78 2456 -78 
Q 1834 -78 1328 222 
Q 822 522 548 1065 
Q 275 1609 275 2291 
Q 275 2969 550 3525 
Q 825 4081 1333 4372 
Q 1841 4663 2469 4663 
Q 3103 4663 3612 4361 
Q 4122 4059 4389 3517 
Q 4656 2975 4656 2294 
Q 4656 1728 4484 1276 
Q 4313 825 3966 491 
z
M 2631 1266 
Q 3156 1119 3497 828 
Q 4031 1316 4031 2294 
Q 4031 2850 3842 3265 
Q 3653 3681 3289 3911 
Q 2925 4141 2472 4141 
Q 1794 4141 1347 3677 
Q 900 3213 900 2291 
Q 900 1397 1342 919 
Q 1784 441 2472 441 
Q 2797 441 3084 563 
Q 2800 747 2484 825 
L 2631 1266 
z
" transform="scale(0.015625)"/>
       </defs>
       <use xlink:href="#ArialMT-51"/>
       <use xlink:href="#ArialMT-31" transform="translate(77.783203 0)"/>
      </g>
     </g>
    </g>
    <g id="xtick_22">
     <g id="line2d_37">
      <path d="M 550.216364 360.9 
L 550.216364 241.72975 
" clip-path="url(#pdfd4ccd751)" style="fill: none; stroke: #cccccc; stroke-linecap: round"/>
     </g>
     <g id="text_51">
      <!-- Q2 -->
      <g style="fill: #262626" transform="translate(544.880739 376.12625) scale(0.08 -0.08)">
       <use xlink:href="#ArialMT-51"/>
       <use xlink:href="#ArialMT-32" transform="translate(77.783203 0)"/>
      </g>
     </g>
    </g>
    <g id="xtick_23">
     <g id="line2d_38">
      <path d="M 613.08 360.9 
L 613.08 241.72975 
" clip-path="url(#pdfd4ccd751)" style="fill: none; stroke: #cccccc; stroke-linecap: round"/>
     </g>
     <g id="text_52">
      <!-- Q3 -->
      <g style="fill: #262626" transform="translate(607.744375 376.12625) scale(0.08 -0.08)">
       <use xlink:href="#ArialMT-51"/>
       <use xlink:href="#ArialMT-33" transform="translate(77.783203 0)"/>
      </g>
     </g>
    </g>
    <g id="xtick_24">
     <g id="line2d_39">
      <path d="M 675.943636 360.9 
L 675.943636 241.72975 
" clip-path="url(#pdfd4ccd751)" style="fill: none; stroke: #cccccc; stroke-linecap: round"/>
     </g>
     <g id="text_53">
      <!-- Q4 -->
      <g style="fill: #262626" transform="translate(670.608011 376.12625) scale(0.08 -0.08)">
       <use xlink:href="#ArialMT-51"/>
       <use xlink:href="#ArialMT-34" transform="translate(77.783203 0)"/>
      </g>
     </g>
    </g>
    <g id="xtick_25">
     <g id="line2d_40">
      <path d="M 738.807273 360.9 
L 738.807273 241.72975 
" clip-path="url(#pdfd4ccd751)" style="fill: none; stroke: #cccccc; stroke-linecap: round"/>
     </g>
     <g id="text_54">
      <!-- Q5 -->
      <g style="fill: #262626" transform="translate(733.471648 376.12625) scale(0.08 -0.08)">
       <use xlink:href="#ArialMT-51"/>
       <use xlink:href="#ArialMT-35" transform="translate(77.783203 0)"/>
      </g>
     </g>
    </g>
    <g id="text_55">
     <!-- Bin -->
     <g style="fill: #262626" transform="translate(606.576094 388.158281) scale(0.09 -0.09)">
      <use xlink:href="#ArialMT-42"/>
      <use xlink:href="#ArialMT-69" transform="translate(66.699219 0)"/>
      <use xlink:href="#ArialMT-6e" transform="translate(88.916016 0)"/>
     </g>
    </g>
   </g>
   <g id="matplotlib.axis_8">
    <g id="ytick_16">
     <g id="line2d_41">
      <path d="M 447.12 360.9 
L 779.04 360.9 
" clip-path="url(#pdfd4ccd751)" style="fill: none; stroke-dasharray: 1.85,0.8; stroke-dashoffset: 0; stroke: #cccccc; stroke-opacity: 0.25; stroke-width: 0.5"/>
     </g>
     <g id="text_56">
      <!-- 0 -->
      <g style="fill: #262626" transform="translate(433.17125 363.763125) scale(0.08 -0.08)">
       <use xlink:href="#ArialMT-30"/>
      </g>
     </g>
    </g>
    <g id="ytick_17">
     <g id="line2d_42">
      <path d="M 447.12 328.07602 
L 779.04 328.07602 
" clip-path="url(#pdfd4ccd751)" style="fill: none; stroke-dasharray: 1.85,0.8; stroke-dashoffset: 0; stroke: #cccccc; stroke-opacity: 0.25; stroke-width: 0.5"/>
     </g>
     <g id="text_57">
      <!-- 10000 -->
      <g style="fill: #262626" transform="translate(415.37625 330.939145) scale(0.08 -0.08)">
       <use xlink:href="#ArialMT-31"/>
       <use xlink:href="#ArialMT-30" transform="translate(55.615234 0)"/>
       <use xlink:href="#ArialMT-30" transform="translate(111.230469 0)"/>
       <use xlink:href="#ArialMT-30" transform="translate(166.845703 0)"/>
       <use xlink:href="#ArialMT-30" transform="translate(222.460938 0)"/>
      </g>
     </g>
    </g>
    <g id="ytick_18">
     <g id="line2d_43">
      <path d="M 447.12 295.25204 
L 779.04 295.25204 
" clip-path="url(#pdfd4ccd751)" style="fill: none; stroke-dasharray: 1.85,0.8; stroke-dashoffset: 0; stroke: #cccccc; stroke-opacity: 0.25; stroke-width: 0.5"/>
     </g>
     <g id="text_58">
      <!-- 20000 -->
      <g style="fill: #262626" transform="translate(415.37625 298.115165) scale(0.08 -0.08)">
       <use xlink:href="#ArialMT-32"/>
       <use xlink:href="#ArialMT-30" transform="translate(55.615234 0)"/>
       <use xlink:href="#ArialMT-30" transform="translate(111.230469 0)"/>
       <use xlink:href="#ArialMT-30" transform="translate(166.845703 0)"/>
       <use xlink:href="#ArialMT-30" transform="translate(222.460938 0)"/>
      </g>
     </g>
    </g>
    <g id="ytick_19">
     <g id="line2d_44">
      <path d="M 447.12 262.42806 
L 779.04 262.42806 
" clip-path="url(#pdfd4ccd751)" style="fill: none; stroke-dasharray: 1.85,0.8; stroke-dashoffset: 0; stroke: #cccccc; stroke-opacity: 0.25; stroke-width: 0.5"/>
     </g>
     <g id="text_59">
      <!-- 30000 -->
      <g style="fill: #262626" transform="translate(415.37625 265.291185) scale(0.08 -0.08)">
       <use xlink:href="#ArialMT-33"/>
       <use xlink:href="#ArialMT-30" transform="translate(55.615234 0)"/>
       <use xlink:href="#ArialMT-30" transform="translate(111.230469 0)"/>
       <use xlink:href="#ArialMT-30" transform="translate(166.845703 0)"/>
       <use xlink:href="#ArialMT-30" transform="translate(222.460938 0)"/>
      </g>
     </g>
    </g>
    <g id="text_60">
     <!-- Count -->
     <g style="fill: #262626" transform="translate(409.5875 313.322141) rotate(-90) scale(0.09 -0.09)">
      <use xlink:href="#ArialMT-43"/>
      <use xlink:href="#ArialMT-6f" transform="translate(72.216797 0)"/>
      <use xlink:href="#ArialMT-75" transform="translate(127.832031 0)"/>
      <use xlink:href="#ArialMT-6e" transform="translate(183.447266 0)"/>
      <use xlink:href="#ArialMT-74" transform="translate(239.0625 0)"/>
     </g>
    </g>
   </g>
   <g id="patch_103">
    <path d="M 462.207273 360.9 
L 512.498182 360.9 
L 512.498182 256.293258 
L 462.207273 256.293258 
z
" clip-path="url(#pdfd4ccd751)" style="fill: #d6e6f4; stroke: #ffffff; stroke-linejoin: miter"/>
   </g>
   <g id="patch_104">
    <path d="M 525.070909 360.9 
L 575.361818 360.9 
L 575.361818 274.727205 
L 525.070909 274.727205 
z
" clip-path="url(#pdfd4ccd751)" style="fill: #abd0e6; stroke: #ffffff; stroke-linejoin: miter"/>
   </g>
   <g id="patch_105">
    <path d="M 587.934545 360.9 
L 638.225455 360.9 
L 638.225455 247.404524 
L 587.934545 247.404524 
z
" clip-path="url(#pdfd4ccd751)" style="fill: #6aaed6; stroke: #ffffff; stroke-linejoin: miter"/>
   </g>
   <g id="patch_106">
    <path d="M 650.798182 360.9 
L 701.089091 360.9 
L 701.089091 252.610407 
L 650.798182 252.610407 
z
" clip-path="url(#pdfd4ccd751)" style="fill: #3787c0; stroke: #ffffff; stroke-linejoin: miter"/>
   </g>
   <g id="patch_107">
    <path d="M 713.661818 360.9 
L 763.952727 360.9 
L 763.952727 299.437097 
L 713.661818 299.437097 
z
" clip-path="url(#pdfd4ccd751)" style="fill: #105ba4; stroke: #ffffff; stroke-linejoin: miter"/>
   </g>
   <g id="patch_108">
    <path d="M 447.12 360.9 
L 447.12 241.72975 
" style="fill: none; stroke: #cccccc; stroke-width: 1.25; stroke-linejoin: miter; stroke-linecap: square"/>
   </g>
   <g id="patch_109">
    <path d="M 779.04 360.9 
L 779.04 241.72975 
" style="fill: none; stroke: #cccccc; stroke-width: 1.25; stroke-linejoin: miter; stroke-linecap: square"/>
   </g>
   <g id="patch_110">
    <path d="M 447.12 360.9 
L 779.04 360.9 
" style="fill: none; stroke: #cccccc; stroke-width: 1.25; stroke-linejoin: miter; stroke-linecap: square"/>
   </g>
   <g id="patch_111">
    <path d="M 447.12 241.72975 
L 779.04 241.72975 
" style="fill: none; stroke: #cccccc; stroke-width: 1.25; stroke-linejoin: miter; stroke-linecap: square"/>
   </g>
   <g id="text_61">
    <!-- 22.1 % -->
    <g style="fill: #262626" transform="translate(474.900227 254.703258) scale(0.08 -0.08)">
     <use xlink:href="#ArialMT-32"/>
     <use xlink:href="#ArialMT-32" transform="translate(55.615234 0)"/>
     <use xlink:href="#ArialMT-2e" transform="translate(111.230469 0)"/>
     <use xlink:href="#ArialMT-31" transform="translate(139.013672 0)"/>
     <use xlink:href="#ArialMT-20" transform="translate(194.628906 0)"/>
     <use xlink:href="#ArialMT-25" transform="translate(222.412109 0)"/>
    </g>
   </g>
   <g id="text_62">
    <!-- 18.2 % -->
    <g style="fill: #262626" transform="translate(537.763864 273.137205) scale(0.08 -0.08)">
     <use xlink:href="#ArialMT-31"/>
     <use xlink:href="#ArialMT-38" transform="translate(55.615234 0)"/>
     <use xlink:href="#ArialMT-2e" transform="translate(111.230469 0)"/>
     <use xlink:href="#ArialMT-32" transform="translate(139.013672 0)"/>
     <use xlink:href="#ArialMT-20" transform="translate(194.628906 0)"/>
     <use xlink:href="#ArialMT-25" transform="translate(222.412109 0)"/>
    </g>
   </g>
   <g id="text_63">
    <!-- 23.9 % -->
    <g style="fill: #262626" transform="translate(600.6275 245.814524) scale(0.08 -0.08)">
     <use xlink:href="#ArialMT-32"/>
     <use xlink:href="#ArialMT-33" transform="translate(55.615234 0)"/>
     <use xlink:href="#ArialMT-2e" transform="translate(111.230469 0)"/>
     <use xlink:href="#ArialMT-39" transform="translate(139.013672 0)"/>
     <use xlink:href="#ArialMT-20" transform="translate(194.628906 0)"/>
     <use xlink:href="#ArialMT-25" transform="translate(222.412109 0)"/>
    </g>
   </g>
   <g id="text_64">
    <!-- 22.8 % -->
    <g style="fill: #262626" transform="translate(663.491136 251.020407) scale(0.08 -0.08)">
     <use xlink:href="#ArialMT-32"/>
     <use xlink:href="#ArialMT-32" transform="translate(55.615234 0)"/>
     <use xlink:href="#ArialMT-2e" transform="translate(111.230469 0)"/>
     <use xlink:href="#ArialMT-38" transform="translate(139.013672 0)"/>
     <use xlink:href="#ArialMT-20" transform="translate(194.628906 0)"/>
     <use xlink:href="#ArialMT-25" transform="translate(222.412109 0)"/>
    </g>
   </g>
   <g id="text_65">
    <!-- 13.0 % -->
    <g style="fill: #262626" transform="translate(726.354773 297.847097) scale(0.08 -0.08)">
     <use xlink:href="#ArialMT-31"/>
     <use xlink:href="#ArialMT-33" transform="translate(55.615234 0)"/>
     <use xlink:href="#ArialMT-2e" transform="translate(111.230469 0)"/>
     <use xlink:href="#ArialMT-30" transform="translate(139.013672 0)"/>
     <use xlink:href="#ArialMT-20" transform="translate(194.628906 0)"/>
     <use xlink:href="#ArialMT-25" transform="translate(222.412109 0)"/>
    </g>
   </g>
   <g id="text_66">
    <!-- Discretized - Sales -->
    <g style="fill: #262626" transform="translate(567.234062 231.72975) scale(0.11 -0.11)">
     <use xlink:href="#ArialMT-44"/>
     <use xlink:href="#ArialMT-69" transform="translate(72.216797 0)"/>
     <use xlink:href="#ArialMT-73" transform="translate(94.433594 0)"/>
     <use xlink:href="#ArialMT-63" transform="translate(144.433594 0)"/>
     <use xlink:href="#ArialMT-72" transform="translate(194.433594 0)"/>
     <use xlink:href="#ArialMT-65" transform="translate(227.734375 0)"/>
     <use xlink:href="#ArialMT-74" transform="translate(283.349609 0)"/>
     <use xlink:href="#ArialMT-69" transform="translate(311.132812 0)"/>
     <use xlink:href="#ArialMT-7a" transform="translate(333.349609 0)"/>
     <use xlink:href="#ArialMT-65" transform="translate(383.349609 0)"/>
     <use xlink:href="#ArialMT-64" transform="translate(438.964844 0)"/>
     <use xlink:href="#ArialMT-20" transform="translate(494.580078 0)"/>
     <use xlink:href="#ArialMT-2d" transform="translate(522.363281 0)"/>
     <use xlink:href="#ArialMT-20" transform="translate(555.664062 0)"/>
     <use xlink:href="#ArialMT-53" transform="translate(583.447266 0)"/>
     <use xlink:href="#ArialMT-61" transform="translate(650.146484 0)"/>
     <use xlink:href="#ArialMT-6c" transform="translate(705.761719 0)"/>
     <use xlink:href="#ArialMT-65" transform="translate(727.978516 0)"/>
     <use xlink:href="#ArialMT-73" transform="translate(783.59375 0)"/>
    </g>
   </g>
  </g>
  <g id="text_67">
   <!-- Price and sales discretization (original vs binned distributions) -->
   <g style="fill: #262626" transform="translate(177.685 19.7115) scale(0.16 -0.16)">
    <defs>
     <path id="ArialMT-28" d="M 1497 -1347 
Q 1031 -759 709 28 
Q 388 816 388 1659 
Q 388 2403 628 3084 
Q 909 3875 1497 4659 
L 1900 4659 
Q 1522 4009 1400 3731 
Q 1209 3300 1100 2831 
Q 966 2247 966 1656 
Q 966 153 1900 -1347 
L 1497 -1347 
z
" transform="scale(0.015625)"/>
     <path id="ArialMT-76" d="M 1344 0 
L 81 3319 
L 675 3319 
L 1388 1331 
Q 1503 1009 1600 663 
Q 1675 925 1809 1294 
L 2547 3319 
L 3125 3319 
L 1869 0 
L 1344 0 
z
" transform="scale(0.015625)"/>
     <path id="ArialMT-62" d="M 941 0 
L 419 0 
L 419 4581 
L 981 4581 
L 981 2947 
Q 1338 3394 1891 3394 
Q 2197 3394 2470 3270 
Q 2744 3147 2920 2923 
Q 3097 2700 3197 2384 
Q 3297 2069 3297 1709 
Q 3297 856 2875 390 
Q 2453 -75 1863 -75 
Q 1275 -75 941 416 
L 941 0 
z
M 934 1684 
Q 934 1088 1097 822 
Q 1363 388 1816 388 
Q 2184 388 2453 708 
Q 2722 1028 2722 1663 
Q 2722 2313 2464 2622 
Q 2206 2931 1841 2931 
Q 1472 2931 1203 2611 
Q 934 2291 934 1684 
z
" transform="scale(0.015625)"/>
     <path id="ArialMT-29" d="M 791 -1347 
L 388 -1347 
Q 1322 153 1322 1656 
Q 1322 2244 1188 2822 
Q 1081 3291 891 3722 
Q 769 4003 388 4659 
L 791 4659 
Q 1378 3875 1659 3084 
Q 1900 2403 1900 1659 
Q 1900 816 1576 28 
Q 1253 -759 791 -1347 
z
" transform="scale(0.015625)"/>
    </defs>
    <use xlink:href="#ArialMT-50"/>
    <use xlink:href="#ArialMT-72" transform="translate(66.699219 0)"/>
    <use xlink:href="#ArialMT-69" transform="translate(100 0)"/>
    <use xlink:href="#ArialMT-63" transform="translate(122.216797 0)"/>
    <use xlink:href="#ArialMT-65" transform="translate(172.216797 0)"/>
    <use xlink:href="#ArialMT-20" transform="translate(227.832031 0)"/>
    <use xlink:href="#ArialMT-61" transform="translate(255.615234 0)"/>
    <use xlink:href="#ArialMT-6e" transform="translate(311.230469 0)"/>
    <use xlink:href="#ArialMT-64" transform="translate(366.845703 0)"/>
    <use xlink:href="#ArialMT-20" transform="translate(422.460938 0)"/>
    <use xlink:href="#ArialMT-73" transform="translate(450.244141 0)"/>
    <use xlink:href="#ArialMT-61" transform="translate(500.244141 0)"/>
    <use xlink:href="#ArialMT-6c" transform="translate(555.859375 0)"/>
    <use xlink:href="#ArialMT-65" transform="translate(578.076172 0)"/>
    <use xlink:href="#ArialMT-73" transform="translate(633.691406 0)"/>
    <use xlink:href="#ArialMT-20" transform="translate(683.691406 0)"/>
    <use xlink:href="#ArialMT-64" transform="translate(711.474609 0)"/>
    <use xlink:href="#ArialMT-69" transform="translate(767.089844 0)"/>
    <use xlink:href="#ArialMT-73" transform="translate(789.306641 0)"/>
    <use xlink:href="#ArialMT-63" transform="translate(839.306641 0)"/>
    <use xlink:href="#ArialMT-72" transform="translate(889.306641 0)"/>
    <use xlink:href="#ArialMT-65" transform="translate(922.607422 0)"/>
    <use xlink:href="#ArialMT-74" transform="translate(978.222656 0)"/>
    <use xlink:href="#ArialMT-69" transform="translate(1006.005859 0)"/>
    <use xlink:href="#ArialMT-7a" transform="translate(1028.222656 0)"/>
    <use xlink:href="#ArialMT-61" transform="translate(1078.222656 0)"/>
    <use xlink:href="#ArialMT-74" transform="translate(1133.837891 0)"/>
    <use xlink:href="#ArialMT-69" transform="translate(1161.621094 0)"/>
    <use xlink:href="#ArialMT-6f" transform="translate(1183.837891 0)"/>
    <use xlink:href="#ArialMT-6e" transform="translate(1239.453125 0)"/>
    <use xlink:href="#ArialMT-20" transform="translate(1295.068359 0)"/>
    <use xlink:href="#ArialMT-28" transform="translate(1322.851562 0)"/>
    <use xlink:href="#ArialMT-6f" transform="translate(1356.152344 0)"/>
    <use xlink:href="#ArialMT-72" transform="translate(1411.767578 0)"/>
    <use xlink:href="#ArialMT-69" transform="translate(1445.068359 0)"/>
    <use xlink:href="#ArialMT-67" transform="translate(1467.285156 0)"/>
    <use xlink:href="#ArialMT-69" transform="translate(1522.900391 0)"/>
    <use xlink:href="#ArialMT-6e" transform="translate(1545.117188 0)"/>
    <use xlink:href="#ArialMT-61" transform="translate(1600.732422 0)"/>
    <use xlink:href="#ArialMT-6c" transform="translate(1656.347656 0)"/>
    <use xlink:href="#ArialMT-20" transform="translate(1678.564453 0)"/>
    <use xlink:href="#ArialMT-76" transform="translate(1706.347656 0)"/>
    <use xlink:href="#ArialMT-73" transform="translate(1756.347656 0)"/>
    <use xlink:href="#ArialMT-20" transform="translate(1806.347656 0)"/>
    <use xlink:href="#ArialMT-62" transform="translate(1834.130859 0)"/>
    <use xlink:href="#ArialMT-69" transform="translate(1889.746094 0)"/>
    <use xlink:href="#ArialMT-6e" transform="translate(1911.962891 0)"/>
    <use xlink:href="#ArialMT-6e" transform="translate(1967.578125 0)"/>
    <use xlink:href="#ArialMT-65" transform="translate(2023.193359 0)"/>
    <use xlink:href="#ArialMT-64" transform="translate(2078.808594 0)"/>
    <use xlink:href="#ArialMT-20" transform="translate(2134.423828 0)"/>
    <use xlink:href="#ArialMT-64" transform="translate(2162.207031 0)"/>
    <use xlink:href="#ArialMT-69" transform="translate(2217.822266 0)"/>
    <use xlink:href="#ArialMT-73" transform="translate(2240.039062 0)"/>
    <use xlink:href="#ArialMT-74" transform="translate(2290.039062 0)"/>
    <use xlink:href="#ArialMT-72" transform="translate(2317.822266 0)"/>
    <use xlink:href="#ArialMT-69" transform="translate(2351.123047 0)"/>
    <use xlink:href="#ArialMT-62" transform="translate(2373.339844 0)"/>
    <use xlink:href="#ArialMT-75" transform="translate(2428.955078 0)"/>
    <use xlink:href="#ArialMT-74" transform="translate(2484.570312 0)"/>
    <use xlink:href="#ArialMT-69" transform="translate(2512.353516 0)"/>
    <use xlink:href="#ArialMT-6f" transform="translate(2534.570312 0)"/>
    <use xlink:href="#ArialMT-6e" transform="translate(2590.185547 0)"/>
    <use xlink:href="#ArialMT-73" transform="translate(2645.800781 0)"/>
    <use xlink:href="#ArialMT-29" transform="translate(2695.800781 0)"/>
   </g>
  </g>
 </g>
 <defs>
  <clipPath id="pad17e84bb7">
   <rect x="57.6" y="62.3395" width="331.92" height="119.17025"/>
  </clipPath>
  <clipPath id="pea75ecbfff">
   <rect x="447.12" y="62.3395" width="331.92" height="119.17025"/>
  </clipPath>
  <clipPath id="p1a6b6e859b">
   <rect x="57.6" y="241.72975" width="331.92" height="119.17025"/>
  </clipPath>
  <clipPath id="pdfd4ccd751">
   <rect x="447.12" y="241.72975" width="331.92" height="119.17025"/>
  </clipPath>
 </defs>
</svg>
